<?xml version="1.0" encoding="UTF-8" standalone="no"?>
<!-- Created with Inkscape (http://www.inkscape.org/) -->

<svg
   version="1.1"
   id="svg1"
   width="512"
   height="512"
   viewBox="0 0 512 512"
   xml:space="preserve"
   sodipodi:docname="image-png.svg"
   inkscape:version="1.3 (0e150ed6c4, 2023-07-21)"
   xmlns:inkscape="http://www.inkscape.org/namespaces/inkscape"
   xmlns:sodipodi="http://sodipodi.sourceforge.net/DTD/sodipodi-0.dtd"
   xmlns:xlink="http://www.w3.org/1999/xlink"
   xmlns="http://www.w3.org/2000/svg"
   xmlns:svg="http://www.w3.org/2000/svg"><sodipodi:namedview
     id="namedview1"
     pagecolor="#505050"
     bordercolor="#eeeeee"
     borderopacity="1"
     inkscape:showpageshadow="0"
     inkscape:pageopacity="0"
     inkscape:pagecheckerboard="0"
     inkscape:deskcolor="#505050"
     inkscape:zoom="0.8125"
     inkscape:cx="214.15385"
     inkscape:cy="253.53846"
     inkscape:window-width="1920"
     inkscape:window-height="1028"
     inkscape:window-x="0"
     inkscape:window-y="28"
     inkscape:window-maximized="1"
     inkscape:current-layer="svg1" /><defs
     id="defs1"><linearGradient
       id="linearGradient3"
       inkscape:collect="always"><stop
         style="stop-color:#8a0cff;stop-opacity:1;"
         offset="0"
         id="stop3" /><stop
         style="stop-color:#4d82f5;stop-opacity:1;"
         offset="1"
         id="stop4" /></linearGradient><linearGradient
       id="linearGradient1"
       inkscape:collect="always"><stop
         style="stop-color:#8a0cff;stop-opacity:1;"
         offset="0"
         id="stop1" /><stop
         style="stop-color:#4d82f5;stop-opacity:1;"
         offset="1"
         id="stop2" /></linearGradient><linearGradient
       inkscape:collect="always"
       xlink:href="#linearGradient1"
       id="linearGradient2"
       x1="244.07671"
       y1="46.538364"
       x2="247.16348"
       y2="355.21545"
       gradientUnits="userSpaceOnUse" /><linearGradient
       inkscape:collect="always"
       xlink:href="#linearGradient3"
       id="linearGradient4"
       x1="266.09244"
       y1="22.892315"
       x2="273.96933"
       y2="416.73849"
       gradientUnits="userSpaceOnUse" /></defs><g
     id="layer1"
     transform="translate(-16.738546)"><path
       id="rect1"
       style="fill:url(#linearGradient4);fill-opacity:1;stroke-width:0.999989"
       d="m 130.61707,9.3535156 c -22.99578,0 -41.509278,20.2010524 -41.509278,45.2929684 V 457.35352 c 0,25.09191 18.513498,45.29296 41.509278,45.29296 h 284.24278 c 22.99578,0 41.50928,-20.20105 41.50928,-45.29296 V 118.66797 L 351.30717,9.3535156 Z" /><path
       id="path1"
       style="display:inline;fill:#171717;fill-opacity:1;stroke-width:0.999989"
       d="M 143.01003 25.074219 C 122.01958 25.074219 105.12136 43.987834 105.12136 67.480469 L 105.12136 444.51953 C 105.12136 468.01216 122.01958 486.92578 143.01003 486.92578 L 402.46706 486.92578 C 423.4575 486.92578 440.35573 468.01216 440.35573 444.51953 L 440.35573 127.42188 L 440.31472 127.37891 L 440.31472 118.61914 L 432.10769 118.61914 L 351.21901 32.292969 L 351.21901 25.091797 L 344.47097 25.091797 L 344.45534 25.074219 L 143.01003 25.074219 z " /><path
       id="rect2"
       style="display:inline;fill:#8a0cff;fill-opacity:1;stroke-width:0.999992"
       d="m 456.3693,118.61921 -0.004,-0.002 L 351.29532,9.4242514 351.09052,83.526188 c -0.0694,25.091822 10.80197,35.092972 35.89389,35.092972 z" /><path
       id="rect3"
       style="fill:#171717;fill-opacity:1;stroke-width:1"
       d="m 369.50419,28.314322 0.1442,44.81157 c 0.0578,17.969758 9.95669,27.414488 27.92652,27.436918 l 41.65592,0.052 z" /></g><path
     id="path-1-3"
     style="fill:url(#linearGradient2);fill-opacity:1;fill-rule:nonzero;stroke:none;stroke-width:0.783751"
     d="M 168.35501 94.576604 A 34.726176 35.883705 0 0 0 133.62814 130.4592 A 34.726176 35.883705 0 0 0 168.35501 166.34334 A 34.726176 35.883705 0 0 0 203.08036 130.4592 A 34.726176 35.883705 0 0 0 168.35501 94.576604 z M 267.48106 145.17442 C 266.06576 145.23442 264.75695 145.47541 263.60058 145.79438 C 263.59658 145.79538 263.5913 145.79644 263.5868 145.79744 C 260.73953 146.58714 258.3862 147.91606 256.60959 149.07787 C 256.59749 149.08587 256.58495 149.09283 256.57285 149.10083 C 253.90514 150.86339 251.61369 152.88407 249.63696 154.82282 L 249.61553 154.84425 C 247.7052 156.73047 245.88516 158.74422 244.18286 160.88158 C 244.16866 160.89938 244.154 160.91715 244.14 160.93515 C 239.88598 166.35837 236.33132 172.13781 233.17208 177.87151 C 227.98035 187.29712 223.75959 196.74841 219.15183 205.51249 C 217.56292 208.51145 215.94205 211.4925 214.28401 214.45061 C 213.05495 216.64762 211.77835 218.82962 210.44792 221.09718 C 209.29544 223.06082 208.17063 225.08297 207.1032 227.16665 C 205.25402 230.77084 203.53859 234.41722 201.90626 237.89423 C 201.19474 239.38737 200.52812 240.90323 199.91015 242.43907 C 198.3313 246.35237 197.0452 250.055 195.70208 253.40392 C 195.08578 254.9402 194.4777 256.36457 193.84986 257.70995 C 192.87217 255.5095 191.90091 253.30362 190.90773 251.08328 C 188.60961 245.93806 186.30609 240.89094 183.77897 235.89659 C 183.77497 235.88759 183.7692 235.87907 183.7652 235.87057 C 182.46565 233.32192 181.07351 230.68676 179.44385 228.08817 C 179.43115 228.06797 179.41839 228.04714 179.40559 228.02694 C 178.66866 226.87188 177.62201 225.26748 176.21088 223.72703 C 176.17128 223.68383 176.13188 223.64238 176.09149 223.59997 C 175.86123 223.35802 175.38906 222.86439 174.78268 222.35393 C 174.16029 221.83 173.29796 221.20135 172.18651 220.67163 C 170.44021 219.82433 168.68786 219.59242 167.20541 219.67357 C 165.82239 219.74927 164.61305 220.09442 163.62036 220.5262 C 160.89517 221.65328 158.98981 223.43924 157.79122 224.8751 C 156.05001 226.95674 154.97447 229.25191 154.52151 230.20674 C 154.01289 231.28042 153.67791 232.06 153.41477 232.62688 C 153.14104 233.2166 152.94937 233.59157 152.78716 233.87292 C 149.33176 239.528 146.51402 244.81263 144.42154 248.94021 C 137.82101 261.95771 131.58582 277.29747 129.43538 282.50983 A 9.231024 9.231024 0 0 0 146.50185 289.55134 C 148.73757 284.13225 154.68119 269.53141 160.88795 257.29052 C 162.64017 253.83413 164.96913 249.53073 167.67535 244.99544 C 169.85124 249.34161 171.90328 253.80582 174.05251 258.61769 C 175.30177 261.41051 176.57224 264.34229 177.94524 267.3859 C 177.95124 267.3984 177.95638 267.41024 177.96208 267.42264 C 178.21817 267.98365 178.64761 268.94085 179.16373 269.90401 C 179.66854 270.89717 180.2722 272.26391 181.15678 273.94216 C 181.15978 273.94716 181.16396 273.95216 181.16596 273.95746 C 181.68964 274.94634 182.56354 276.56752 183.83408 278.14563 C 183.85758 278.17473 183.88223 278.20408 183.90603 278.23288 C 184.22021 278.61355 184.73021 279.20642 185.40464 279.82028 C 186.07995 280.43496 187.01822 281.16142 188.23962 281.76435 C 189.34489 282.31083 190.60305 282.70043 191.96396 282.83742 C 193.29318 282.9712 194.79728 282.87121 196.33735 282.36441 C 197.83548 281.87712 198.89268 281.17126 199.54276 280.68363 C 200.20349 280.18804 200.50556 279.89145 200.51174 279.88611 C 200.53164 279.86891 200.55174 279.85146 200.57144 279.83406 C 203.56122 277.20366 205.79885 274.15206 207.53334 271.28935 C 207.53634 271.28435 207.53953 271.28007 207.54253 271.27557 C 209.7678 267.58758 211.43395 263.7756 212.83744 260.27704 C 214.396 256.39095 215.67845 252.69773 217.03326 249.33974 C 217.51125 248.1518 218.02794 246.97991 218.58239 245.81746 C 218.59039 245.80046 218.59735 245.78251 218.60535 245.76541 C 220.25704 242.24712 221.8452 238.87685 223.53134 235.59044 C 224.41225 233.87086 225.36189 232.16016 226.37091 230.44095 C 227.69315 228.18737 229.06124 225.85063 230.39222 223.47139 C 232.12625 220.37773 233.81965 217.26493 235.47282 214.14445 C 235.47682 214.13645 235.4823 214.12683 235.4866 214.11843 C 240.46414 204.65246 244.64119 195.31403 249.34153 186.78055 C 252.21654 181.5627 255.22787 176.71885 258.6455 172.3577 C 259.85028 170.845 261.17183 169.37823 262.57497 167.99197 C 264.0443 166.55087 265.39656 165.40111 266.73099 164.51714 C 267.05244 164.30748 267.26663 164.19781 267.50096 164.06862 C 267.85346 164.42028 268.2527 164.85598 268.71792 165.4111 C 270.21919 167.22487 271.60869 169.32902 273.04079 171.69947 C 275.43347 175.689 277.59068 179.90431 279.71032 184.2257 C 281.38908 187.64648 283.40997 191.98579 285.08789 195.40486 C 285.09089 195.41186 285.09358 195.41919 285.09708 195.42629 C 285.90455 197.0683 286.81494 198.88984 287.89072 200.71508 C 293.0656 209.64281 298.96352 218.21818 304.1367 227.14675 C 304.1387 227.15075 304.14082 227.15387 304.14282 227.15747 C 309.94775 237.14176 315.19908 247.61747 321.36543 257.6028 C 321.36943 257.6098 321.37307 257.6159 321.37767 257.6227 C 322.06699 258.73248 322.76623 259.8609 323.5238 261.00875 C 323.5444 261.03985 323.56567 261.07122 323.58657 261.10212 C 325.56901 264.02809 327.86137 266.42755 329.71421 268.23547 C 329.72021 268.24147 329.72648 268.24794 329.73258 268.25384 C 333.19974 271.61831 337.43549 275.02633 340.05757 277.22717 C 342.26398 279.0824 343.74783 280.37536 345.11368 281.7368 A 9.230775 9.230775 0 0 0 358.14659 268.66256 C 356.19553 266.71782 354.20783 265.00443 351.93169 263.09058 C 348.80994 260.47033 345.43329 257.76222 342.59863 255.01275 C 341.11513 253.56519 339.85257 252.18744 338.89878 250.78938 C 338.33978 249.94246 337.77552 249.03473 337.06646 247.89317 C 331.46239 238.81693 326.30867 228.55347 320.10867 217.8887 L 320.10714 217.88717 C 314.90451 208.91165 309.0484 200.40351 303.84585 191.42794 C 303.83305 191.40584 303.82048 191.38412 303.80758 191.36212 C 303.11437 190.18824 302.46657 188.91023 301.66911 187.28876 C 299.67711 183.21125 298.27692 180.17362 296.28389 176.09429 C 294.09808 171.63798 291.66831 166.86181 288.86581 162.19038 C 288.86081 162.18238 288.8557 162.17379 288.8505 162.16589 C 287.22328 159.47172 285.2886 156.47873 282.92339 153.62117 C 282.91289 153.60847 282.90175 153.5955 282.89125 153.5829 C 281.54118 151.96947 279.68629 149.93532 277.25498 148.19768 C 277.23758 148.18518 277.22053 148.17171 277.20293 148.15941 C 276.71205 147.81373 276.01979 147.35106 275.18845 146.90725 C 274.36805 146.46928 273.32873 146.00433 272.09172 145.67498 C 270.46654 145.23486 268.89805 145.1144 267.48106 145.17442 z M 188.23962 281.76435 C 188.23481 281.76198 188.2291 281.76061 188.22431 281.75823 L 188.25798 281.77507 C 188.2511 281.77168 188.24649 281.76774 188.23962 281.76435 z M 328.62583 312.54186 C 324.36224 312.54186 320.38059 313.35782 316.6813 314.98802 C 312.982 316.61822 309.76953 318.8276 307.04209 321.61775 C 304.31464 324.4079 302.16661 327.66868 300.59911 331.39932 C 299.06296 335.09862 298.29531 339.03348 298.29531 343.20303 C 298.29531 347.43528 299.07906 351.40082 300.64656 355.10012 C 302.24541 358.79942 304.40801 362.02798 307.13546 364.78678 C 309.89426 367.54558 313.12436 369.72429 316.82366 371.32314 C 320.5543 372.92199 324.53595 373.72184 328.7682 373.72184 C 332.56154 373.72184 336.1191 373.07843 339.4422 371.79308 C 342.7653 370.50773 345.68098 368.737 348.18898 366.47981 C 350.69698 364.19126 352.70314 361.4949 354.20794 358.39126 C 355.74409 355.28761 356.60682 351.9026 356.79492 348.23465 C 356.79492 346.85525 356.32406 345.74097 355.38356 344.89452 C 354.44306 344.04808 353.31421 343.60942 351.99752 343.57807 L 336.57355 343.48469 C 335.25685 343.48469 334.16021 343.95403 333.28241 344.89452 C 332.40461 345.80367 331.96443 346.90185 331.96443 348.18719 C 331.96443 349.50389 332.40461 350.61664 333.28241 351.52579 C 334.16021 352.40359 335.25685 352.84224 336.57355 352.84224 L 346.49596 352.84224 C 345.33601 356.54154 343.20408 359.39434 340.10043 361.40074 C 337.02813 363.37578 333.26582 364.36429 328.81412 364.36429 C 325.86722 364.36429 323.10952 363.81444 320.53882 362.71719 C 317.96812 361.61994 315.72653 360.11532 313.81418 358.20297 C 311.93318 356.29062 310.44313 354.04903 309.34588 351.47833 C 308.24863 348.90764 307.70031 346.13383 307.70031 343.15558 C 307.70031 340.14598 308.26474 337.35607 309.39334 334.78537 C 310.52194 332.21467 312.04266 329.98765 313.95501 328.10665 C 315.86736 326.1943 318.09285 324.70579 320.63219 323.63989 C 323.17154 322.54264 325.86789 321.99432 328.72074 321.99432 C 331.47954 321.99432 334.15979 322.51196 336.76184 323.54651 C 339.39524 324.54971 341.77717 326.10111 343.90897 328.20156 C 344.37922 328.67181 344.89686 329.01691 345.46116 329.23636 C 346.05681 329.42446 346.65191 329.51802 347.24756 329.51802 C 347.84321 329.48667 348.42374 329.3609 348.98804 329.14145 C 349.55234 328.89065 350.06998 328.54555 350.54023 328.10665 C 351.44938 327.1975 351.88803 326.11697 351.85668 324.86297 C 351.85668 323.60897 351.40193 322.5269 350.49278 321.61775 C 347.45183 318.60815 344.09749 316.35046 340.42954 314.84566 C 336.7616 313.30951 332.82673 312.54186 328.62583 312.54186 z M 203.30538 312.96588 C 201.98868 312.96588 200.87594 313.40454 199.96679 314.28234 C 199.08899 315.16014 198.6488 316.25678 198.6488 317.57348 L 198.6488 368.5494 C 198.6488 369.8661 199.08899 370.96274 199.96679 371.84054 C 200.87594 372.71833 201.98868 373.15699 203.30538 373.15699 C 204.62208 373.15699 205.73482 372.71833 206.64397 371.84054 C 207.55312 370.96274 208.00788 369.8661 208.00788 368.5494 L 208.00788 348.46885 L 219.05845 348.46885 C 221.56645 348.46885 223.91771 348.01409 226.11221 347.10495 C 228.33806 346.1958 230.26523 344.95728 231.89543 343.38979 C 233.55698 341.79094 234.85837 339.92665 235.79887 337.79485 C 236.73937 335.6317 237.21024 333.29502 237.21024 330.78702 C 237.21024 328.31037 236.73937 325.99132 235.79887 323.82817 C 234.85837 321.63367 233.55698 319.73718 231.89543 318.13833 C 230.26523 316.53948 228.33806 315.28486 226.11221 314.37571 C 223.91771 313.43522 221.56645 312.96588 219.05845 312.96588 L 203.30538 312.96588 z M 287.29219 312.96588 C 285.97549 312.96588 284.84664 313.40454 283.90614 314.28234 C 282.99699 315.16014 282.54223 316.25678 282.54223 317.57348 L 282.54223 354.63017 L 254.60888 315.59879 C 254.35808 315.19124 254.07587 314.81547 253.76237 314.47062 L 253.24497 314.0466 C 252.86877 313.76445 252.41401 313.52902 251.88106 313.34092 L 251.22283 313.20009 C 251.16013 313.16874 251.05047 313.15264 250.89372 313.15264 C 250.79967 313.12129 250.65933 313.10671 250.47123 313.10671 L 250.42378 313.10671 C 249.10708 313.10671 247.99433 313.54537 247.08518 314.42317 C 246.20738 315.30097 245.76873 316.39761 245.76873 317.71431 L 245.76873 368.5494 C 245.76873 369.8661 246.20738 370.96274 247.08518 371.84054 C 247.99433 372.71833 249.10708 373.15699 250.42378 373.15699 C 251.74048 373.15699 252.85322 372.71833 253.76237 371.84054 C 254.67152 370.96274 255.12628 369.8661 255.12628 368.5494 L 255.12628 331.68098 L 283.48212 371.37059 C 283.57617 371.52734 283.70194 371.66768 283.85869 371.79308 L 284.32863 372.16965 C 285.17508 372.828 286.14749 373.15699 287.24473 373.15699 L 287.76213 373.15699 C 288.07563 373.12564 288.35784 373.06276 288.60864 372.96871 C 289.54914 372.68656 290.3329 372.15434 290.9599 371.37059 C 291.58689 370.55549 291.89978 369.6153 291.89978 368.5494 L 291.89978 317.57348 C 291.89978 316.91513 291.77402 316.32003 291.52322 315.78708 C 291.30377 315.22278 290.99088 314.73581 290.58333 314.32826 C 290.17578 313.88936 289.69034 313.56037 289.12604 313.34092 C 288.56174 313.09012 287.95054 312.96588 287.29219 312.96588 z M 208.00788 322.22853 L 219.05845 322.22853 C 220.24975 322.22853 221.3786 322.44938 222.4445 322.88828 C 223.5104 323.29583 224.43449 323.87483 225.21824 324.62723 C 226.03334 325.37963 226.67675 326.27305 227.147 327.3076 C 227.61725 328.31079 227.85115 329.39286 227.85115 330.55281 C 227.85115 331.68141 227.61725 332.76348 227.147 333.79803 C 226.7081 334.83258 226.0808 335.74057 225.2657 336.52432 C 224.48195 337.30807 223.55632 337.93537 222.49042 338.40562 C 221.42452 338.87587 220.29721 339.1113 219.10591 339.1113 L 208.00788 339.1113 L 208.00788 322.22853 z M 180.82613 362.52891 C 180.07373 362.52891 179.35287 362.68688 178.66317 363.00038 C 178.00482 363.28253 177.42582 363.67441 176.92422 364.17601 C 176.42262 364.67761 176.01464 365.27271 175.70114 365.96241 C 175.41899 366.65211 175.27865 367.37298 175.27865 368.12537 C 175.27865 368.87777 175.41899 369.59864 175.70114 370.28834 C 176.01464 370.97804 176.42262 371.57467 176.92422 372.07627 C 177.42582 372.57787 178.00482 372.96975 178.66317 373.2519 C 179.35287 373.5654 180.07373 373.72184 180.82613 373.72184 C 181.60988 373.72184 182.33228 373.5654 182.99063 373.2519 C 183.68033 372.96975 184.27543 372.57787 184.77703 372.07627 C 185.27863 371.57467 185.67051 370.97804 185.95266 370.28834 C 186.26616 369.59864 186.4226 368.87777 186.4226 368.12537 C 186.4226 367.37298 186.26616 366.65211 185.95266 365.96241 C 185.67051 365.27271 185.27863 364.67761 184.77703 364.17601 C 184.27543 363.67441 183.68033 363.28253 182.99063 363.00038 C 182.33228 362.68688 181.60988 362.52891 180.82613 362.52891 z "
     transform="matrix(1.2759165,0,0,1.2759165,-50.25225,-26.640599)" /></svg>
