<?xml version="1.0" encoding="UTF-8" standalone="no"?>
<!-- Created with Inkscape (http://www.inkscape.org/) -->

<svg
   version="1.1"
   id="svg1"
   width="24"
   height="24"
   viewBox="0 0 24 24"
   xml:space="preserve"
   sodipodi:docname="application-x-zip.svg"
   inkscape:version="1.3 (0e150ed6c4, 2023-07-21)"
   xmlns:inkscape="http://www.inkscape.org/namespaces/inkscape"
   xmlns:sodipodi="http://sodipodi.sourceforge.net/DTD/sodipodi-0.dtd"
   xmlns:xlink="http://www.w3.org/1999/xlink"
   xmlns="http://www.w3.org/2000/svg"
   xmlns:svg="http://www.w3.org/2000/svg"><sodipodi:namedview
     id="namedview1"
     pagecolor="#505050"
     bordercolor="#eeeeee"
     borderopacity="1"
     inkscape:showpageshadow="0"
     inkscape:pageopacity="0"
     inkscape:pagecheckerboard="0"
     inkscape:deskcolor="#505050"
     inkscape:zoom="13"
     inkscape:cx="1.8461539"
     inkscape:cy="20.538462"
     inkscape:window-width="1920"
     inkscape:window-height="1028"
     inkscape:window-x="0"
     inkscape:window-y="28"
     inkscape:window-maximized="1"
     inkscape:current-layer="svg1" /><defs
     id="defs1"><linearGradient
       id="linearGradient6"
       inkscape:collect="always"><stop
         style="stop-color:#f1d005;stop-opacity:1;"
         offset="0"
         id="stop6" /><stop
         style="stop-color:#44bd39;stop-opacity:1;"
         offset="1"
         id="stop7" /></linearGradient><linearGradient
       id="linearGradient159"
       inkscape:collect="always"><stop
         style="stop-color:#f1d005;stop-opacity:1;"
         offset="0"
         id="stop159" /><stop
         style="stop-color:#71c22b;stop-opacity:1;"
         offset="1"
         id="stop160" /></linearGradient><linearGradient
       inkscape:collect="always"
       xlink:href="#linearGradient159"
       id="linearGradient160"
       x1="282.52707"
       y1="17.847504"
       x2="282.21414"
       y2="479.75278"
       gradientUnits="userSpaceOnUse" /><linearGradient
       inkscape:collect="always"
       xlink:href="#linearGradient6"
       id="linearGradient7"
       x1="270.51126"
       y1="81.918129"
       x2="278.0303"
       y2="553.34369"
       gradientUnits="userSpaceOnUse" /></defs><g
     id="layer1"
     transform="matrix(0.04770193,0,0,0.04770193,-0.93093446,-0.14366826)"
     style="stroke-width:20.9636"><path
       id="rect1"
       style="fill:url(#linearGradient160);fill-opacity:1;stroke-width:20.9633;opacity:1;stroke:#000000;stroke-opacity:0;fill-rule:nonzero"
       d="m 130.61707,9.3535156 c -22.99578,0 -41.509278,20.2010524 -41.509278,45.2929684 V 457.35352 c 0,25.09191 18.513498,45.29296 41.509278,45.29296 h 284.24278 c 22.99578,0 41.50928,-20.20105 41.50928,-45.29296 V 118.66797 L 351.30717,9.3535156 Z" /><path
       id="path1"
       style="display:inline;fill:#161616;fill-opacity:1;stroke-width:20.9633"
       d="M 143.00385 25.080801 C 122.0134 25.080801 105.13031 44.006524 105.13031 67.499159 L 105.13031 444.51483 C 105.13031 468.00745 122.0134 486.93318 143.00385 486.93318 L 402.46826 486.93318 C 423.4587 486.93318 440.34179 468.00745 440.34179 444.51483 L 440.34179 127.40076 L 440.30084 127.35981 L 440.30084 118.63866 L 432.11197 118.63866 L 351.20592 32.287009 L 351.20592 25.080801 L 344.4501 25.080801 L 331.30696 25.080801 L 143.00385 25.080801 z " /><path
       id="rect2"
       style="display:inline;fill:#f0cf06;fill-opacity:1;stroke-width:20.9633;opacity:1;stroke:#000000;stroke-opacity:0;fill-rule:nonzero"
       d="m 456.3693,118.61921 -0.004,-0.002 L 351.29532,9.4242514 351.09052,83.526188 c -0.0694,25.091822 10.80197,35.092972 35.89389,35.092972 z" /><path
       id="rect3"
       style="fill:#161616;fill-opacity:1;stroke-width:20.9636"
       d="m 369.50419,28.314322 0.1442,44.81157 c 0.0578,17.969758 9.95669,27.414488 27.92652,27.436918 l 41.65592,0.052 z" /></g><g
     id="layer2"
     transform="matrix(0.04770193,0,0,0.04770193,-0.13247338,-0.14366826)"
     style="stroke-width:20.9636;fill-opacity:1;fill:url(#linearGradient7)"><path
       id="rect18"
       style="fill:url(#linearGradient7);fill-opacity:1;stroke-width:20.9636;opacity:1;stroke:#000000;stroke-opacity:0;fill-rule:nonzero"
       d="M 133.4715 79.168301 L 133.4715 112.66079 L 166.8821 112.66079 L 166.8821 141.85412 L 133.4715 141.85412 L 133.4715 175.30566 L 166.8821 175.30566 L 166.8821 205.19504 L 133.4715 205.19504 L 133.4715 238.68753 L 166.8821 238.68753 L 166.8821 269.35485 L 200.37459 269.35485 L 200.37459 235.90331 L 166.96399 235.90331 L 166.96399 207.32415 L 200.37459 207.32415 L 200.37459 173.87261 L 166.96399 173.87261 L 166.96399 144.67928 L 200.37459 144.67928 L 200.37459 111.18679 L 166.96399 111.18679 L 166.96399 79.168301 L 133.4715 79.168301 z M 127.49363 287.16565 L 127.49363 372.1252 L 151.73269 372.1252 L 151.73269 445.66127 L 188.17317 445.66127 L 188.17317 372.1252 L 212.45318 372.1252 L 212.45318 287.16565 L 127.49363 287.16565 z M 145.22254 304.89456 L 194.72427 304.89456 L 194.72427 354.39629 L 145.22254 354.39629 L 145.22254 304.89456 z M 254.25737 364.42766 C 253.41737 364.42766 252.60165 364.59899 251.84165 364.91899 C 251.12165 365.23899 250.51821 365.66921 249.95821 366.22921 C 249.39821 366.74921 248.92705 367.39265 248.60705 368.11265 C 248.28705 368.83265 248.15666 369.60648 248.15666 370.44648 C 248.15666 372.12648 248.71538 373.54469 249.83538 374.70469 C 250.99538 375.82469 252.41359 376.38341 254.09359 376.38341 L 294.21906 376.38341 L 248.60705 431.33074 C 248.04705 431.97074 247.65966 432.65892 247.41966 433.4189 C 247.21966 434.1789 247.13399 434.95179 247.17399 435.71179 C 247.25399 436.43179 247.4691 437.16184 247.8291 437.88184 C 248.1891 438.60184 248.66216 439.20434 249.26216 439.72434 C 249.90214 440.32434 250.63126 440.75361 251.39126 440.99361 C 252.15126 441.23361 252.92509 441.31928 253.72509 441.23928 L 307.7307 441.23928 C 309.4107 441.23928 310.78703 440.68056 311.90703 439.56056 C 313.02703 438.40056 313.58574 436.98233 313.58574 435.30235 C 313.58574 433.62235 313.02703 432.20413 311.90703 431.04413 C 310.78703 429.88413 309.4107 429.28352 307.7307 429.28352 L 265.84462 429.28352 L 311.37475 374.45903 C 311.89475 373.81903 312.28119 373.13181 312.52119 372.41181 C 312.80119 371.65181 312.8878 370.87892 312.8078 370.11892 C 312.7678 369.35892 312.59458 368.66982 312.23458 367.98982 C 311.91458 367.26982 311.44247 366.62543 310.84247 366.06543 L 310.06453 365.53316 C 309.10453 364.89316 308.02991 364.50766 306.82993 364.42766 L 254.25737 364.42766 z M 329.92254 364.42766 C 328.24256 364.42766 326.82433 364.98638 325.66433 366.10638 C 324.54433 367.22638 323.98561 368.64365 323.98561 370.32365 L 323.98561 435.34329 C 323.98561 437.02329 324.54433 438.44056 325.66433 439.56056 C 326.82433 440.68056 328.24256 441.23928 329.92254 441.23928 C 331.60254 441.23928 333.02076 440.68056 334.18076 439.56056 C 335.34076 438.44056 335.94137 437.02329 335.94137 435.34329 L 335.94137 370.32365 C 335.94137 368.64365 335.34076 367.22638 334.18076 366.10638 C 333.02076 364.98638 331.60254 364.42766 329.92254 364.42766 z M 357.4781 364.42766 C 355.7981 364.42766 354.37987 364.98638 353.21989 366.10638 C 352.09989 367.22638 351.54117 368.64365 351.54117 370.32365 L 351.54117 435.34329 C 351.54117 437.02329 352.09989 438.44056 353.21989 439.56056 C 354.37987 440.68056 355.7981 441.23928 357.4781 441.23928 C 359.1581 441.23928 360.57631 440.68056 361.73631 439.56056 C 362.89631 438.44056 363.45598 437.02329 363.45598 435.34329 L 363.45598 409.75306 L 377.54084 409.75306 C 380.74082 409.75306 383.74861 409.15246 386.54859 407.99246 C 389.38859 406.83246 391.87954 405.24291 393.95952 403.24291 C 396.07952 401.20291 397.71379 398.83859 398.91379 396.11859 C 400.11379 393.35861 400.71534 390.39272 400.71534 387.19272 C 400.71534 384.03274 400.11379 381.06778 398.91379 378.3078 C 397.71379 375.5078 396.07952 373.0597 393.95952 371.0197 C 391.87954 368.9797 389.38859 367.38921 386.54859 366.22921 C 383.74861 365.02921 380.74082 364.42766 377.54084 364.42766 L 357.4781 364.42766 z M 363.45598 376.26058 L 377.54084 376.26058 C 379.06082 376.26058 380.52094 376.51947 381.88094 377.07947 C 383.24094 377.59945 384.40215 378.37141 385.40215 379.33141 C 386.44215 380.29139 387.29976 381.40979 387.89976 382.72979 C 388.49976 384.00979 388.80053 385.38517 388.80053 386.86517 C 388.80053 388.30517 388.49976 389.68055 387.89976 391.00055 C 387.33976 392.32055 386.52404 393.48082 385.48404 394.48082 C 384.48404 395.48082 383.28188 396.29654 381.92188 396.89654 C 380.56188 397.49654 379.14272 397.79731 377.62272 397.79731 L 363.45598 397.79731 L 363.45598 376.26058 z M 229.64981 427.68669 C 228.68981 427.68669 227.78653 427.85992 226.90653 428.25992 C 226.06655 428.61992 225.33554 429.13486 224.69554 429.77486 C 224.05554 430.41486 223.53965 431.18774 223.13965 432.06774 C 222.77965 432.94774 222.56643 433.85101 222.56643 434.81101 C 222.56643 435.77101 222.77965 436.67429 223.13965 437.55429 C 223.53965 438.43427 224.05554 439.20717 224.69554 439.84717 C 225.33554 440.48717 226.06655 441.00211 226.90653 441.36211 C 227.78653 441.76211 228.68981 441.93533 229.64981 441.93533 C 230.64981 441.93533 231.59402 441.76211 232.43402 441.36211 C 233.31402 441.00211 234.04596 440.48717 234.68596 439.84717 C 235.32596 439.20717 235.8409 438.43427 236.2009 437.55429 C 236.6009 436.67429 236.81507 435.77101 236.81507 434.81101 C 236.81507 433.85101 236.6009 432.94774 236.2009 432.06774 C 235.8409 431.18774 235.32596 430.41486 234.68596 429.77486 C 234.04596 429.13486 233.31402 428.61992 232.43402 428.25992 C 231.59402 427.85992 230.64981 427.68669 229.64981 427.68669 z " /></g></svg>
