<?xml version="1.0" encoding="UTF-8" standalone="no"?>
<!-- Created with Inkscape (http://www.inkscape.org/) -->

<svg
   version="1.1"
   id="svg1"
   width="128"
   height="128"
   viewBox="0 0 128 128"
   xml:space="preserve"
   sodipodi:docname="application-x-pdf.svg"
   inkscape:version="1.3 (0e150ed6c4, 2023-07-21)"
   xmlns:inkscape="http://www.inkscape.org/namespaces/inkscape"
   xmlns:sodipodi="http://sodipodi.sourceforge.net/DTD/sodipodi-0.dtd"
   xmlns:xlink="http://www.w3.org/1999/xlink"
   xmlns="http://www.w3.org/2000/svg"
   xmlns:svg="http://www.w3.org/2000/svg"><sodipodi:namedview
     id="namedview1"
     pagecolor="#505050"
     bordercolor="#eeeeee"
     borderopacity="1"
     inkscape:showpageshadow="0"
     inkscape:pageopacity="0"
     inkscape:pagecheckerboard="0"
     inkscape:deskcolor="#505050"
     inkscape:zoom="4.596194"
     inkscape:cx="53.087402"
     inkscape:cy="90.074527"
     inkscape:window-width="1920"
     inkscape:window-height="1028"
     inkscape:window-x="0"
     inkscape:window-y="28"
     inkscape:window-maximized="1"
     inkscape:current-layer="svg1" /><defs
     id="defs1"><linearGradient
       id="linearGradient1"
       inkscape:collect="always"><stop
         style="stop-color:#ff0c0c;stop-opacity:1;"
         offset="0"
         id="stop1" /><stop
         style="stop-color:#ff5421;stop-opacity:1;"
         offset="1"
         id="stop2" /></linearGradient><linearGradient
       id="linearGradient6"
       inkscape:collect="always"><stop
         style="stop-color:#ff0c0c;stop-opacity:1;"
         offset="0"
         id="stop6" /><stop
         style="stop-color:#ff5c30;stop-opacity:1;"
         offset="1"
         id="stop7" /></linearGradient><linearGradient
       inkscape:collect="always"
       xlink:href="#linearGradient1"
       id="linearGradient2"
       x1="267.14178"
       y1="12.41221"
       x2="258.94699"
       y2="367.52084"
       gradientUnits="userSpaceOnUse" /><linearGradient
       inkscape:collect="always"
       xlink:href="#linearGradient6"
       id="linearGradient3"
       x1="246.22679"
       y1="68.862114"
       x2="251.69003"
       y2="391.19144"
       gradientUnits="userSpaceOnUse" /></defs><g
     id="layer1"
     transform="matrix(0.25487885,0,0,0.25487885,-5.515287,-1.248985)"
     style="display:inline;stroke-width:3.92341"><path
       id="rect1"
       style="fill:url(#linearGradient2);fill-opacity:1;stroke-width:3.92339"
       d="m 130.61707,9.3535156 c -22.99578,0 -41.509278,20.2010524 -41.509278,45.2929684 V 457.35352 c 0,25.09191 18.513498,45.29296 41.509278,45.29296 h 284.24278 c 22.99578,0 41.50928,-20.20105 41.50928,-45.29296 V 118.66797 L 351.30717,9.3535156 Z" /><path
       id="path1"
       style="display:inline;fill:#171717;fill-opacity:0.99607801;stroke-width:3.92339"
       d="M 143.01239 25.076867 C 122.02194 25.076867 105.11908 43.991022 105.11908 67.483657 L 105.11908 444.51634 C 105.11908 468.00896 122.02194 486.92313 143.01239 486.92313 L 402.4647 486.92313 C 423.45514 486.92313 440.35801 468.00896 440.35801 444.51634 L 440.35801 127.42329 L 440.31203 127.37731 L 440.31203 118.61855 L 432.10501 118.61855 L 351.22252 32.29537 L 351.22252 25.092193 L 344.47146 25.092193 L 344.45614 25.076867 L 143.01239 25.076867 z " /><path
       id="rect2"
       style="display:inline;fill:#ff0c0c;fill-opacity:1;stroke-width:3.92341"
       d="m 456.3693,118.61921 -0.004,-0.002 L 351.29532,9.4242514 351.09052,83.526188 c -0.0694,25.091822 10.80197,35.092972 35.89389,35.092972 z" /><path
       id="rect3"
       style="fill:#181717;fill-opacity:1;stroke-width:3.92341"
       d="m 369.50419,28.314322 0.1442,44.81157 c 0.0578,17.969758 9.95669,27.414488 27.92652,27.436918 l 41.65592,0.052 z" /></g><g
     id="layer2"
     transform="matrix(0.25487885,0,0,0.25487885,-0.18449668,-1.0160762)"
     style="stroke-width:3.92341;fill-opacity:1;fill:url(#linearGradient3)"><path
       id="text5"
       style="font-style:normal;font-variant:normal;font-weight:normal;font-stretch:normal;font-size:136.643px;line-height:1;font-family:Cantarell;-inkscape-font-specification:Cantarell;fill:url(#linearGradient3);fill-opacity:1;stroke-width:3.92341"
       d="M 232.46693 48.201753 C 230.89047 48.216662 229.94581 48.370338 229.94581 48.370338 C 202.29068 50.277372 204.55078 89.51274 204.55078 89.51274 C 206.52877 124.03384 221.07211 154.5559 221.07211 154.5559 C 198.77476 224.81173 178.34348 255.71456 178.34348 255.71456 C 148.31399 265.78321 117.02452 287.67674 117.02452 287.67674 C 85.376668 310.87061 95.269391 330.82684 95.269391 330.82684 C 106.95751 352.04293 130.95577 345.26384 130.95577 345.26384 C 166.04917 342.46686 210.52023 263.16295 210.52023 263.16295 C 251.20824 248.66943 288.46013 242.16645 288.46013 242.16645 C 307.16113 259.78662 335.21182 270.57303 335.21182 270.57303 C 393.83225 291.06994 401.22055 256.04406 401.22051 256.04406 C 404.52639 201.37561 293.39508 223.53015 293.39508 223.53015 C 261.86186 193.01753 250.29096 166.34918 250.29096 166.34918 C 285.44795 54.660253 243.50216 48.097461 232.46693 48.201753 z M 232.13742 67.95685 C 233.8317 67.961554 240.64348 68.853632 241.24101 82.746352 C 241.24101 82.746352 240.7152 101.76706 236.48998 120.47874 C 236.48998 120.47874 235.85824 123.77796 231.42476 137.68207 C 231.42476 137.68207 222.97298 120.06318 221.04146 95.436204 C 221.04146 95.436204 218.18166 69.857803 231.75427 67.979839 C 231.75427 67.979839 231.89538 67.956457 232.13742 67.95685 z M 242.87322 191.12352 C 242.87322 191.12352 253.45812 208.70414 269.16482 226.28881 C 269.16482 226.28881 245.7807 230.72898 222.90356 238.41161 C 222.90356 238.41161 234.33697 216.04935 242.87322 191.12352 z M 329.97802 233.54563 C 333.91998 233.50836 338.14939 233.5821 342.59891 233.80617 C 366.32963 235.00125 366.84449 242.16645 366.84449 242.16645 C 366.84449 242.16645 371.2389 251.51255 360.86739 257.23182 C 360.86739 257.23182 352.90663 263.17103 330.20025 253.35437 C 330.20025 253.35437 318.00827 249.19004 301.28792 235.85218 C 301.28792 235.85218 312.89618 233.70764 329.97802 233.54563 z M 172.53496 272.58838 C 156.35542 298.90399 142.41189 312.15222 142.41189 312.15222 C 126.64803 327.88321 119.99775 325.0643 119.99775 325.0643 C 108.79062 322.36052 116.38083 310.68093 116.38083 310.68093 C 129.43525 290.7714 172.53496 272.58838 172.53496 272.58838 z M 215.6544 368.20673 C 213.7414 368.20673 212.12464 368.84713 210.80375 370.12247 C 209.52842 371.3978 208.89568 372.99115 208.89568 374.90415 L 208.89568 448.9666 C 208.89568 450.8796 209.52842 452.47295 210.80375 453.74829 C 212.12464 455.02362 213.7414 455.66403 215.6544 455.66403 C 217.5674 455.66403 219.18417 455.02362 220.50505 453.74829 C 221.82594 452.47295 222.48976 450.8796 222.48976 448.9666 L 222.48976 419.79374 L 238.54365 419.79374 C 242.18746 419.79374 245.60835 419.12991 248.79668 417.80903 C 252.03056 416.48815 254.8268 414.69169 257.19528 412.41431 C 259.6093 410.09138 261.49944 407.38116 262.86587 404.28392 C 264.2323 401.14113 264.91954 397.74366 264.91954 394.09985 C 264.91954 390.50159 264.2323 387.1352 262.86587 383.99241 C 261.49944 380.80408 259.6093 378.04702 257.19528 375.72409 C 254.8268 373.40116 252.03056 371.58128 248.79668 370.2604 C 245.60835 368.89397 242.18746 368.20673 238.54365 368.20673 L 215.6544 368.20673 z M 284.11524 368.20673 C 282.20224 368.20673 280.58547 368.84713 279.26459 370.12247 C 277.98926 371.3978 277.34885 372.99115 277.34885 374.90415 L 277.34885 448.9666 C 277.34885 450.8796 277.98926 452.47295 279.26459 453.74829 C 280.58547 455.02362 282.20224 455.66403 284.11524 455.66403 L 299.14996 455.66403 C 303.24924 455.66403 307.18578 455.15647 310.96623 454.15442 C 314.79223 453.10683 318.34597 451.65399 321.6254 449.78654 C 324.90483 447.91909 327.91184 445.68533 330.6447 443.08912 C 333.37756 440.44736 335.69732 437.5106 337.61032 434.27672 C 339.52332 431.04284 341.00724 427.55936 342.05484 423.82445 C 343.14798 420.08955 343.69471 416.16877 343.69471 412.06948 C 343.69471 407.97019 343.14798 404.05708 342.05484 400.32217 C 341.00724 396.54172 339.52332 393.03481 337.61032 389.80093 C 335.69732 386.56705 333.37756 383.6303 330.6447 380.98854 C 327.91184 378.30123 324.90483 376.02063 321.6254 374.15318 C 318.34597 372.24018 314.79223 370.77968 310.96623 369.77763 C 307.18578 368.73004 303.24924 368.20673 299.14996 368.20673 L 284.11524 368.20673 z M 363.02834 368.20673 C 361.79856 368.20673 360.75194 368.4175 359.88653 368.82743 C 359.06667 369.23736 358.37943 369.76067 357.83286 370.39833 C 357.28629 371.036 356.88007 371.739 356.60679 372.51331 C 356.37905 373.28762 356.26195 374.03746 356.26195 374.76622 L 356.26195 448.9666 C 356.26195 449.9231 356.42589 450.80579 356.74472 451.62565 C 357.1091 452.39996 357.58557 453.11062 358.17769 453.74829 C 358.81536 454.34041 359.54178 454.81688 360.36164 455.18126 C 361.18149 455.50009 362.07184 455.66403 363.02834 455.66403 C 363.98484 455.66403 364.87519 455.50009 365.69505 455.18126 C 366.51491 454.81688 367.21791 454.34041 367.81003 453.74829 C 368.44769 453.15617 368.94758 452.44551 369.31197 451.62565 C 369.67635 450.80579 369.85604 449.9231 369.85604 448.9666 L 369.85604 418.42207 L 390.01727 418.42207 C 391.93027 418.42207 393.52362 417.83616 394.79895 416.65193 C 396.11983 415.42214 396.77599 413.84455 396.77599 411.93155 C 396.77599 410.01855 396.11983 408.4252 394.79895 407.14986 C 393.52362 405.82898 391.93027 405.17282 390.01727 405.17282 L 369.85604 405.17282 L 369.85604 381.80847 L 399.2358 381.80847 C 401.1488 381.80847 402.74215 381.16807 404.01749 379.89273 C 405.29282 378.57185 405.93322 376.95508 405.93322 375.04208 C 405.93322 374.08558 405.75354 373.19523 405.38916 372.37538 C 405.07032 371.55552 404.58619 370.85252 403.94852 370.2604 C 403.3564 369.62273 402.6534 369.12284 401.83354 368.75846 C 401.05923 368.39408 400.1923 368.20673 399.2358 368.20673 L 363.02834 368.20673 z M 222.48976 381.67054 L 238.54365 381.67054 C 240.27446 381.67054 241.91465 381.99074 243.46327 382.62841 C 245.01189 383.22053 246.35529 384.05638 247.49398 385.14952 C 248.67822 386.24266 249.61541 387.54689 250.29862 389.04996 C 250.98184 390.50749 251.32546 392.07742 251.32546 393.76268 C 251.32546 395.4024 250.98184 396.97233 250.29862 398.4754 C 249.66095 399.97847 248.74718 401.29845 247.56295 402.43715 C 246.42426 403.57584 245.08085 404.48961 243.53223 405.17282 C 241.98361 405.85603 240.34343 406.19199 238.61262 406.19199 L 222.48976 406.19199 L 222.48976 381.67054 z M 290.95059 381.93874 L 299.55609 381.93874 C 303.79202 381.98429 307.75198 382.80438 311.44133 384.39855 C 315.17624 385.94717 318.40978 388.06383 321.14263 390.75114 C 323.87549 393.43845 326.03899 396.60939 327.63316 400.2532 C 329.22732 403.89701 330.03166 407.83355 330.03166 412.06948 C 330.03166 416.3965 329.22732 420.37988 327.63316 424.02369 C 326.03899 427.6675 323.85974 430.83844 321.08133 433.52575 C 318.30293 436.16751 315.02255 438.23734 311.2421 439.74041 C 307.50719 441.24348 303.49274 441.99332 299.21126 441.99332 L 290.95059 441.99332 L 290.95059 381.93874 z M 183.00256 440.22317 C 181.90941 440.22317 180.86279 440.4497 179.86074 440.90518 C 178.90424 441.31511 178.06073 441.88525 177.33197 442.61402 C 176.60321 443.34278 176.00964 444.20205 175.55416 445.20409 C 175.14424 446.20614 174.94113 447.26043 174.94113 448.35357 C 174.94113 449.44671 175.14424 450.49333 175.55416 451.49538 C 176.00964 452.49743 176.60321 453.3567 177.33197 454.08546 C 178.06073 454.81422 178.90424 455.38437 179.86074 455.7943 C 180.86279 456.24977 181.90941 456.48396 183.00256 456.48396 C 184.14125 456.48396 185.18787 456.24977 186.14437 455.7943 C 187.14642 455.38437 188.01335 454.81422 188.74211 454.08546 C 189.47087 453.3567 190.04102 452.49743 190.45095 451.49538 C 190.90642 450.49333 191.13295 449.44671 191.13295 448.35357 C 191.13295 447.26043 190.90642 446.20614 190.45095 445.20409 C 190.04102 444.20205 189.47087 443.34278 188.74211 442.61402 C 188.01335 441.88525 187.14642 441.31511 186.14437 440.90518 C 185.18787 440.4497 184.14125 440.22317 183.00256 440.22317 z " /></g></svg>
