<?xml version="1.0" encoding="UTF-8" standalone="no"?>
<!-- Created with Inkscape (http://www.inkscape.org/) -->

<svg
   version="1.1"
   id="svg1"
   width="32"
   height="32"
   viewBox="0 0 32 32"
   xml:space="preserve"
   sodipodi:docname="application-pdf.svg"
   inkscape:version="1.3 (0e150ed6c4, 2023-07-21)"
   xmlns:inkscape="http://www.inkscape.org/namespaces/inkscape"
   xmlns:sodipodi="http://sodipodi.sourceforge.net/DTD/sodipodi-0.dtd"
   xmlns="http://www.w3.org/2000/svg"
   xmlns:svg="http://www.w3.org/2000/svg"><sodipodi:namedview
     id="namedview1"
     pagecolor="#505050"
     bordercolor="#eeeeee"
     borderopacity="1"
     inkscape:showpageshadow="0"
     inkscape:pageopacity="0"
     inkscape:pagecheckerboard="0"
     inkscape:deskcolor="#505050"
     inkscape:zoom="13"
     inkscape:cx="17.846154"
     inkscape:cy="15.615385"
     inkscape:window-width="1920"
     inkscape:window-height="1028"
     inkscape:window-x="0"
     inkscape:window-y="28"
     inkscape:window-maximized="1"
     inkscape:current-layer="svg1" /><defs
     id="defs1" /><g
     id="layer1"
     transform="matrix(0.0639067,0,0,0.0639067,-1.4298204,-0.36011506)"
     style="display:inline;stroke-width:15.6478"><path
       id="rect1"
       style="fill:#ff0c0c;fill-opacity:1;stroke-width:15.6475"
       d="m 130.61707,9.3535156 c -22.99578,0 -41.509278,20.2010524 -41.509278,45.2929684 V 457.35352 c 0,25.09191 18.513498,45.29296 41.509278,45.29296 h 284.24278 c 22.99578,0 41.50928,-20.20105 41.50928,-45.29296 V 118.66797 L 351.30717,9.3535156 Z" /><path
       id="path1"
       style="display:inline;fill:#000000;fill-opacity:0.996078;stroke-width:15.6475"
       d="m 143.01066,25.073769 c -20.99047,0 -37.88952,18.913518 -37.88952,42.406176 V 444.52006 c 0,23.49265 16.89905,42.40617 37.88952,42.40617 h 259.45577 c 20.99046,0 37.88952,-18.91352 37.88952,-42.40617 V 127.42095 L 344.45577,25.073769 Z" /><path
       id="rect2"
       style="display:inline;fill:#ff0c0c;fill-opacity:1;stroke-width:15.6477"
       d="m 456.3693,118.61921 -0.004,-0.002 L 351.29532,9.4242514 351.09052,83.526188 c -0.0694,25.091822 10.80197,35.092972 35.89389,35.092972 z" /><path
       id="rect3"
       style="fill:#000000;fill-opacity:0.996078;stroke-width:15.6478"
       d="m 369.50419,28.314322 0.1442,44.81157 c 0.0578,17.969758 9.95669,27.414488 27.92652,27.436918 l 41.65592,0.052 z" /><rect
       style="fill:#000000;fill-opacity:0.996078;stroke-width:15.6478"
       id="rect4"
       width="18.392153"
       height="16.984617"
       x="421.92319"
       y="118.61918" /><rect
       style="fill:#000000;fill-opacity:0.996078;stroke-width:15.6478"
       id="rect5"
       width="19.902409"
       height="16.333183"
       x="331.31668"
       y="25.091255" /></g><g
     id="layer2"
     transform="matrix(0.0639067,0,0,0.0639067,-0.09321203,-0.30171697)"
     style="stroke-width:15.6478"><g
       id="g4"
       transform="matrix(7.9893335,0,0,7.9893335,3.919265,-36.587275)"
       style="stroke-width:1.9586"><path
         d="M 48.2,33.9 C 47,32.6 44.7,32 41.4,32 c -1.8,0 -3.7,0.2 -5.5,0.5 -1.2,-1.1 -2.2,-2.4 -3.2,-3.7 -0.7,-1 -1.4,-2 -2,-3.1 1,-2.8 1.6,-5.8 1.8,-8.8 0,-2.7 -1.1,-5.6 -4.1,-5.6 -1,0 -2,0.6 -2.5,1.5 -1.3,2.2 -0.8,6.7 1.3,11.4 -0.7,2.1 -1.5,4.2 -2.4,6.5 -0.8,2 -1.7,3.9 -2.8,5.7 -3.1,1.2 -9.6,4.2 -10.2,7.5 -0.2,1 0.1,2 0.9,2.6 0.7,0.6 1.7,1 2.7,0.9 3.9,0 7.8,-5.4 10.5,-10.1 1.5,-0.5 3,-1 4.6,-1.4 1.7,-0.4 3.3,-0.8 4.8,-1.1 4.2,3.6 7.9,4.2 9.7,4.2 2.5,0 3.5,-1.1 3.8,-2 0.4,-1.1 0.2,-2.3 -0.6,-3.1 z m -2.7,1.9 c -0.1,0.7 -0.9,1.2 -1.9,1.2 -0.3,0 -0.6,0 -0.9,-0.1 -2,-0.5 -3.9,-1.5 -5.5,-2.8 1.3,-0.2 2.7,-0.3 4,-0.3 0.9,0 1.8,0.1 2.7,0.2 0.9,0.2 1.9,0.6 1.6,1.8 z M 27.6,13.7 c 0.2,-0.3 0.5,-0.5 0.9,-0.6 1,0 1.2,1.1 1.2,2.1 -0.1,2.3 -0.5,4.5 -1.2,6.7 -1.7,-4.3 -1.5,-7.2 -0.9,-8.2 z m 5.6,19.2 c -1.1,0.2 -2.2,0.5 -3.3,0.8 -0.8,0.2 -1.6,0.5 -2.5,0.7 0.4,-0.9 0.8,-1.8 1.2,-2.6 0.5,-1.1 0.9,-2.2 1.3,-3.3 0.4,0.6 0.7,1.1 1.1,1.6 0.7,1 1.5,1.9 2.2,2.8 z m -12.1,5.8 c -2.5,4 -5,6.6 -6.4,6.6 -0.2,0 -0.5,-0.1 -0.6,-0.2 -0.3,-0.2 -0.4,-0.6 -0.3,-0.9 0.2,-1.5 3.1,-3.6 7.3,-5.5 z"
         fill="#fff"
         id="path2"
         style="fill:#ff0c0c;fill-opacity:1;stroke-width:1.9586" /></g><text
       xml:space="preserve"
       style="font-style:normal;font-variant:normal;font-weight:normal;font-stretch:normal;font-size:136.643px;line-height:1;font-family:Cantarell;-inkscape-font-specification:Cantarell;fill:#ff0c0c;fill-opacity:1;stroke-width:15.6478"
       x="168.24271"
       y="455.66034"
       id="text5"><tspan
         id="tspan5"
         x="168.24271"
         y="455.66034"
         style="font-style:normal;font-variant:normal;font-weight:600;font-stretch:normal;line-height:1;font-family:'Antipasto Pro';-inkscape-font-specification:'Antipasto Pro Semi-Bold';fill:#ff0c0c;fill-opacity:1;stroke-width:15.6478">.PDF</tspan></text></g><path
     style="display:none;fill:#010000;fill-opacity:1;stroke:#3a3a3a;stroke-width:0.377953;stroke-linecap:round;stroke-linejoin:round;stroke-opacity:0"
     d="m 229.6,53.723069 c 0,0 58.58463,-9.353853 19.69231,114.215391 0,0 11.19999,25.81539 41.72307,55.35385 0,0 107.56923,-21.44616 104.36924,31.47692 0,0 -7.15035,33.90439 -63.89295,14.06188 0,0 -27.15291,-10.44341 -45.25484,-27.501 0,0 -36.05221,6.30066 -75.43683,20.33143 0,0 -43.04615,76.76924 -77.01538,79.47693 0,0 -23.23663,6.56226 -34.550341,-13.97648 0,0 -9.573144,-19.32033 21.060901,-41.77369 0,0 30.28593,-21.19145 59.35346,-30.93864 0,0 19.77722,-29.91606 41.3603,-97.92886 0,0 -14.07685,-29.54618 -15.99148,-62.965133 0,0 -2.18669,-37.986453 24.58254,-39.832598 z"
     id="path3" /><path
     style="display:none;fill:#ffcbcb;fill-opacity:0.455594;stroke:#3a3a3a;stroke-width:0.377953;stroke-linecap:round;stroke-linejoin:round;stroke-opacity:0"
     d="m 172.49231,272.56923 c 0,0 -43.07692,18.21539 -56.12308,38.15385 0,0 -7.58461,11.6923 3.61539,14.4 0,0 6.64615,2.82307 22.4,-12.93077 0,0 13.93846,-13.26923 30.10769,-39.62308 z"
     id="path4" /></svg>
