<?xml version="1.0" encoding="UTF-8" standalone="no"?>
<!-- Created with Inkscape (http://www.inkscape.org/) -->

<svg
   version="1.1"
   id="svg1"
   width="24"
   height="24"
   viewBox="0 0 24 24"
   xml:space="preserve"
   sodipodi:docname="application-x-zip.svg"
   inkscape:version="1.3 (0e150ed6c4, 2023-07-21)"
   xmlns:inkscape="http://www.inkscape.org/namespaces/inkscape"
   xmlns:sodipodi="http://sodipodi.sourceforge.net/DTD/sodipodi-0.dtd"
   xmlns="http://www.w3.org/2000/svg"
   xmlns:svg="http://www.w3.org/2000/svg"><sodipodi:namedview
     id="namedview1"
     pagecolor="#505050"
     bordercolor="#eeeeee"
     borderopacity="1"
     inkscape:showpageshadow="0"
     inkscape:pageopacity="0"
     inkscape:pagecheckerboard="0"
     inkscape:deskcolor="#505050"
     inkscape:zoom="13"
     inkscape:cx="9.4615386"
     inkscape:cy="14.923077"
     inkscape:window-width="1920"
     inkscape:window-height="1028"
     inkscape:window-x="0"
     inkscape:window-y="28"
     inkscape:window-maximized="1"
     inkscape:current-layer="svg1" /><defs
     id="defs1" /><g
     id="layer1"
     transform="matrix(0.04770193,0,0,0.04770193,-0.93093446,-0.14366826)"
     style="stroke-width:20.9636"><path
       id="rect1"
       style="fill:#f6cc00;fill-opacity:1;stroke-width:20.9633"
       d="m 130.61707,9.3535156 c -22.99578,0 -41.509278,20.2010524 -41.509278,45.2929684 V 457.35352 c 0,25.09191 18.513498,45.29296 41.509278,45.29296 h 284.24278 c 22.99578,0 41.50928,-20.20105 41.50928,-45.29296 V 118.66797 L 351.30717,9.3535156 Z" /><path
       id="path1"
       style="display:inline;fill:#302d23;fill-opacity:1;stroke-width:20.9633"
       d="M 143.00385 25.080801 C 122.0134 25.080801 105.13031 44.006524 105.13031 67.499159 L 105.13031 444.51483 C 105.13031 468.00745 122.0134 486.93318 143.00385 486.93318 L 402.46826 486.93318 C 423.4587 486.93318 440.34179 468.00745 440.34179 444.51483 L 440.34179 127.40076 L 440.30084 127.35981 L 440.30084 118.63866 L 432.11197 118.63866 L 351.20592 32.287009 L 351.20592 25.080801 L 344.4501 25.080801 L 331.30696 25.080801 L 143.00385 25.080801 z " /><path
       id="rect2"
       style="display:inline;fill:#f6cc00;fill-opacity:1;stroke-width:20.9633"
       d="m 456.3693,118.61921 -0.004,-0.002 L 351.29532,9.4242514 351.09052,83.526188 c -0.0694,25.091822 10.80197,35.092972 35.89389,35.092972 z" /><path
       id="rect3"
       style="fill:#302d23;fill-opacity:1;stroke-width:20.9636"
       d="m 369.50419,28.314322 0.1442,44.81157 c 0.0578,17.969758 9.95669,27.414488 27.92652,27.436918 l 41.65592,0.052 z" /></g><g
     id="layer2"
     transform="matrix(0.04770193,0,0,0.04770193,-0.13247338,-0.14366826)"
     style="stroke-width:20.9636"><rect
       style="fill:#f6cc00;fill-opacity:1;stroke-width:20.9636"
       id="rect6"
       width="33.476921"
       height="33.476921"
       x="133.47812"
       y="79.177078" /><rect
       style="fill:#f6cc00;fill-opacity:1;stroke-width:20.9636"
       id="rect7"
       width="33.476921"
       height="33.476921"
       x="166.89708"
       y="111.20358" /><rect
       style="fill:#f6cc00;fill-opacity:1;stroke-width:20.9636"
       id="rect8"
       width="33.476921"
       height="33.476921"
       x="133.47812"
       y="141.83762" /><rect
       style="fill:#f6cc00;fill-opacity:1;stroke-width:20.9636"
       id="rect9"
       width="33.476921"
       height="33.476921"
       x="166.89708"
       y="173.86412" /><rect
       style="fill:#f6cc00;fill-opacity:1;stroke-width:20.9636"
       id="rect10"
       width="33.476921"
       height="33.476921"
       x="133.47812"
       y="79.177078" /><rect
       style="fill:#f6cc00;fill-opacity:1;stroke-width:20.9636"
       id="rect11"
       width="33.476921"
       height="33.476921"
       x="166.89708"
       y="111.20358" /><rect
       style="fill:#f6cc00;fill-opacity:1;stroke-width:20.9636"
       id="rect12"
       width="33.476921"
       height="33.476921"
       x="133.47812"
       y="141.83762" /><rect
       style="fill:#f6cc00;fill-opacity:1;stroke-width:20.9636"
       id="rect13"
       width="33.476921"
       height="33.476921"
       x="166.89708"
       y="173.86412" /><rect
       style="fill:#f6cc00;fill-opacity:1;stroke-width:20.9636"
       id="rect14"
       width="33.476921"
       height="33.476921"
       x="133.47812"
       y="205.20784" /><rect
       style="fill:#f6cc00;fill-opacity:1;stroke-width:20.9636"
       id="rect18"
       width="84.93985"
       height="84.93985"
       x="127.4968"
       y="287.1821" /><rect
       style="fill:#f6cc00;fill-opacity:1;stroke-width:20.9636"
       id="rect19"
       width="33.476921"
       height="33.476921"
       x="166.89708"
       y="235.8949" /><rect
       style="fill:#302d23;fill-opacity:1;stroke-width:20.9636"
       id="rect20"
       width="49.493675"
       height="49.493675"
       x="145.21989"
       y="304.90518"
       inkscape:label="square" /><rect
       style="fill:#f6cc00;fill-opacity:1;stroke-width:20.9636"
       id="rect21"
       width="36.430779"
       height="79.753868"
       x="151.75134"
       y="365.90768" /><text
       xml:space="preserve"
       style="font-weight:600;font-size:120px;line-height:1;font-family:'Antipasto Pro';-inkscape-font-specification:'Antipasto Pro Semi-Bold';fill:#f6cc00;fill-opacity:1;stroke-width:20.9636"
       x="216.70102"
       y="441.23462"
       id="text21"><tspan
         id="tspan21"
         x="216.70102"
         y="441.23462"
         style="stroke-width:20.9636">.ZIP</tspan></text></g></svg>
