<?xml version="1.0" encoding="UTF-8" standalone="no"?>
<!-- Created with Inkscape (http://www.inkscape.org/) -->

<svg
   version="1.1"
   id="svg1"
   width="512"
   height="512"
   viewBox="0 0 512 512"
   xml:space="preserve"
   sodipodi:docname="protonvpn.svg"
   inkscape:version="1.3 (0e150ed6c4, 2023-07-21)"
   xmlns:inkscape="http://www.inkscape.org/namespaces/inkscape"
   xmlns:sodipodi="http://sodipodi.sourceforge.net/DTD/sodipodi-0.dtd"
   xmlns:xlink="http://www.w3.org/1999/xlink"
   xmlns="http://www.w3.org/2000/svg"
   xmlns:svg="http://www.w3.org/2000/svg"><sodipodi:namedview
     id="namedview1"
     pagecolor="#505050"
     bordercolor="#eeeeee"
     borderopacity="1"
     inkscape:showpageshadow="0"
     inkscape:pageopacity="0"
     inkscape:pagecheckerboard="0"
     inkscape:deskcolor="#505050"
     inkscape:zoom="0.8125"
     inkscape:cx="87.384615"
     inkscape:cy="221.53846"
     inkscape:window-width="1920"
     inkscape:window-height="1028"
     inkscape:window-x="0"
     inkscape:window-y="28"
     inkscape:window-maximized="1"
     inkscape:current-layer="layer3" /><defs
     id="defs1"><linearGradient
       id="linearGradient7"
       inkscape:collect="always"><stop
         style="stop-color:#8064ff;stop-opacity:1;"
         offset="0"
         id="stop7" /><stop
         style="stop-color:#aff7f1;stop-opacity:1;"
         offset="1"
         id="stop8" /></linearGradient><linearGradient
       id="linearGradient5"
       inkscape:collect="always"><stop
         style="stop-color:#2dd9cc;stop-opacity:1;"
         offset="0"
         id="stop5" /><stop
         style="stop-color:#655bf9;stop-opacity:1;"
         offset="1"
         id="stop6" /></linearGradient><linearGradient
       inkscape:collect="always"
       xlink:href="#linearGradient5"
       id="linearGradient6"
       x1="224.70767"
       y1="309.82156"
       x2="228.88503"
       y2="222.09682"
       gradientUnits="userSpaceOnUse" /><linearGradient
       inkscape:collect="always"
       xlink:href="#linearGradient7"
       id="linearGradient8"
       x1="143.46904"
       y1="123.46104"
       x2="354.42267"
       y2="338.10928"
       gradientUnits="userSpaceOnUse" /></defs><g
     id="layer2"
     style="display:inline;fill:#171717;fill-opacity:1"><path
       id="path11"
       style="fill:#171717;fill-opacity:1;stroke-width:1.68464"
       d="M 388.48633 -5.2890625 A 116.70013 104.5648 0 0 1 386.69531 -5.4042969 L 117.79297 -5.7441406 L 117.42578 -6.1308594 A 104.30371 113.51506 0 0 1 109.52539 -5.7714844 A 104.30371 113.51506 0 0 1 5.2226562 -119.28711 A 104.30371 113.51506 0 0 1 5.5292969 -123.96289 L 5.4394531 -124.05859 L 5.1347656 -401.1582 L 5.3535156 -401.35156 A 113.76122 106.02679 0 0 1 118.90039 -504.57227 A 113.76122 106.02679 0 0 1 122.05273 -504.36133 L 123.10156 -505.28711 L 388.85742 -505.375 A 113.8843 105.04218 0 0 1 391.16992 -505.52734 A 113.8843 105.04218 0 0 1 504.92578 -402.15234 L 505.11328 -401.98438 L 505.20117 -107.13281 L 505.11328 -107.05273 A 116.70013 104.5648 0 0 1 388.48633 -5.2890625 z "
       transform="scale(1,-1)" /></g><g
     inkscape:groupmode="layer"
     id="layer3"
     inkscape:label="logo"
     transform="matrix(1.2134956,0,0,1.2144664,-52.806991,-46.682038)"
     style="stroke-width:0.823737"><path
       style="fill:#000000;fill-opacity:1;stroke:#e2e2e2;stroke-width:13.7564;stroke-linecap:round;stroke-linejoin:round;stroke-opacity:0"
       d="m 118.14559,170.31252 c 0,0 -8.70285,-41.86072 32.20056,-43.07912 m 0,0 259.38852,28.71942 c 0,0 36.4303,6.7078 25.35337,45.84627 L 299.24189,409.58371 c 0,0 -25.1077,25.6 -51.69231,-3.44616 L 118.14559,170.31252"
       id="path1" /><path
       style="fill:url(#linearGradient8);fill-opacity:1;stroke:#e2e2e2;stroke-width:13.7564;stroke-linecap:round;stroke-linejoin:round;stroke-opacity:0"
       d="m 95.426781,145.99035 c 0,0 -8.702852,-41.86072 32.200559,-43.07912 m 0,0 259.38852,28.71942 c 0,0 36.4303,6.7078 25.35337,45.84627 L 276.52308,385.26154 c 0,0 -25.1077,25.6 -51.69231,-3.44616 L 95.426781,145.99035"
       id="path6" /><path
       style="fill:url(#linearGradient6);fill-opacity:1;stroke:#e2e2e2;stroke-width:13.7564;stroke-linecap:round;stroke-linejoin:round;stroke-opacity:0"
       d="m 98.690344,153.95347 216.613996,24.97718 c 0,0 20.53874,1.04433 15.31703,26.80478 l -101.91041,152.8221 c 0,0 -12.18399,10.0953 -19.14627,-4.17737 z"
       id="path5" /></g></svg>
