<?xml version="1.0" encoding="UTF-8" standalone="no"?>
<!-- Created with Inkscape (http://www.inkscape.org/) -->

<svg
   version="1.1"
   id="svg1"
   width="512"
   height="512"
   viewBox="0 0 512 512"
   sodipodi:docname="appimagekit-kitty.svg"
   xml:space="preserve"
   inkscape:version="1.3 (0e150ed6c4, 2023-07-21)"
   xmlns:inkscape="http://www.inkscape.org/namespaces/inkscape"
   xmlns:sodipodi="http://sodipodi.sourceforge.net/DTD/sodipodi-0.dtd"
   xmlns:xlink="http://www.w3.org/1999/xlink"
   xmlns="http://www.w3.org/2000/svg"
   xmlns:svg="http://www.w3.org/2000/svg"><sodipodi:namedview
     id="namedview1"
     pagecolor="#505050"
     bordercolor="#eeeeee"
     borderopacity="1"
     inkscape:showpageshadow="0"
     inkscape:pageopacity="0"
     inkscape:pagecheckerboard="0"
     inkscape:deskcolor="#505050"
     inkscape:zoom="0.8125"
     inkscape:cx="33.230769"
     inkscape:cy="251.07692"
     inkscape:window-width="1920"
     inkscape:window-height="1028"
     inkscape:window-x="0"
     inkscape:window-y="28"
     inkscape:window-maximized="1"
     inkscape:current-layer="svg1" /><defs
     id="defs1"><linearGradient
       id="linearGradient1"
       inkscape:collect="always"><stop
         style="stop-color:#982cff;stop-opacity:1;"
         offset="0"
         id="stop1" /><stop
         style="stop-color:#120070;stop-opacity:1;"
         offset="0.99989998"
         id="stop2" /></linearGradient><linearGradient
       inkscape:collect="always"
       xlink:href="#linearGradient1"
       id="linearGradient2"
       x1="-63.840714"
       y1="316.54016"
       x2="254.68372"
       y2="511.83215"
       gradientUnits="userSpaceOnUse" /></defs><g
     id="layer2"
     style="display:inline;fill:url(#linearGradient2);fill-opacity:1"
     transform="translate(0.8320274,0.59179375)"><path
       id="path11"
       style="fill:url(#linearGradient2);fill-opacity:1;stroke-width:1.68464"
       d="m 388.48633,-5.2890625 a 116.70013,104.5648 0 0 1 -1.79102,-0.1152344 l -268.90234,-0.3398437 -0.36719,-0.3867188 a 104.30371,113.51506 0 0 1 -7.90039,0.359375 A 104.30371,113.51506 0 0 1 5.2226562,-119.28711 a 104.30371,113.51506 0 0 1 0.3066407,-4.67578 l -0.089844,-0.0957 -0.3046875,-277.09961 0.21875,-0.19336 a 113.76122,106.02679 0 0 1 113.5468746,-103.22071 113.76122,106.02679 0 0 1 3.15234,0.21094 l 1.04883,-0.92578 265.75586,-0.0879 a 113.8843,105.04218 0 0 1 2.3125,-0.15234 113.8843,105.04218 0 0 1 113.75586,103.375 l 0.1875,0.16796 0.0879,294.85157 -0.0879,0.0801 A 116.70013,104.5648 0 0 1 388.48633,-5.2890625 Z"
       transform="scale(1,-1)" /></g><g
     id="g1"
     style="display:inline;fill:#171717;fill-opacity:1;stroke-width:1.19817"
     transform="matrix(0.83460655,0,0,0.83460655,43.035139,42.834638)"><path
       id="path1"
       style="fill:#171717;fill-opacity:1;stroke-width:2.01848"
       d="m 388.48633,-5.2890625 a 116.70013,104.5648 0 0 1 -1.79102,-0.1152344 l -268.90234,-0.3398437 -0.36719,-0.3867188 a 104.30371,113.51506 0 0 1 -7.90039,0.359375 A 104.30371,113.51506 0 0 1 5.2226562,-119.28711 a 104.30371,113.51506 0 0 1 0.3066407,-4.67578 l -0.089844,-0.0957 -0.3046875,-277.09961 0.21875,-0.19336 a 113.76122,106.02679 0 0 1 113.5468746,-103.22071 113.76122,106.02679 0 0 1 3.15234,0.21094 l 1.04883,-0.92578 265.75586,-0.0879 a 113.8843,105.04218 0 0 1 2.3125,-0.15234 113.8843,105.04218 0 0 1 113.75586,103.375 l 0.1875,0.16796 0.0879,294.85157 -0.0879,0.0801 A 116.70013,104.5648 0 0 1 388.48633,-5.2890625 Z"
       transform="scale(1,-1)" /></g><text
     xml:space="preserve"
     style="font-weight:600;font-size:156.211px;line-height:1;font-family:'Antipasto Pro';-inkscape-font-specification:'Antipasto Pro Semi-Bold';display:none;fill:#000000;fill-opacity:1;stroke-width:0.999997"
     x="105.05471"
     y="268.3775"
     id="text2"><tspan
       id="tspan2"
       x="105.05471"
       y="268.3775"
       style="fill:#000000;fill-opacity:1;stroke-width:0.999997">[#!]$</tspan></text><text
     xml:space="preserve"
     style="font-weight:600;font-size:156.211px;line-height:1;font-family:'Antipasto Pro';-inkscape-font-specification:'Antipasto Pro Semi-Bold';display:none;fill:#ffffff;fill-opacity:1;stroke-width:0.999997"
     x="75.813148"
     y="237.74347"
     id="text3"><tspan
       id="tspan3"
       x="75.813148"
       y="237.74347"
       style="fill:#ffffff;fill-opacity:1;stroke-width:0.999997">[#!]$</tspan></text><text
     xml:space="preserve"
     style="font-size:436.196px;line-height:1;font-family:'Antipasto Pro';-inkscape-font-specification:'Antipasto Pro';display:none;fill:#000000;fill-opacity:1;stroke:#000000;stroke-width:16.7;stroke-linecap:round;stroke-linejoin:round;stroke-opacity:0"
     x="120.39187"
     y="307.02716"
     id="text4"
     transform="scale(0.84110303,1.188915)"><tspan
       sodipodi:role="line"
       id="tspan4"
       x="120.39187"
       y="307.02716"
       style="fill:#000000;fill-opacity:1;stroke-width:16.7">&gt;_</tspan></text><text
     xml:space="preserve"
     style="font-size:436.196px;line-height:1;font-family:'Antipasto Pro';-inkscape-font-specification:'Antipasto Pro';display:none;fill:#ffffff;stroke:#000000;stroke-width:16.7;stroke-linecap:round;stroke-linejoin:round;stroke-opacity:0"
     x="103.83675"
     y="292.97278"
     id="text1"
     transform="scale(0.84110303,1.188915)"><tspan
       sodipodi:role="line"
       id="tspan1"
       x="103.83675"
       y="292.97278"
       style="fill:#ffffff;fill-opacity:1;stroke-width:16.7">&gt;_</tspan></text><path
     id="path3"
     style="fill:#000000;fill-opacity:1;stroke:#000000;stroke-width:16.7;stroke-linecap:round;stroke-linejoin:round;stroke-opacity:0"
     d="m 118.76808,116.99441 c -2.41311,0.0861 -4.58916,1.06775 -5.96289,2.92187 l -8.73242,11.78516 c -2.74747,3.70826 -1.21711,9.46588 3.43164,12.91016 l 113.37695,84.00195 -110.67774,87.92774 c -4.5301,3.59889 -5.86689,9.40591 -2.99609,13.01953 l 9.12501,11.48633 c 2.8708,3.61361 8.82927,3.62429 13.35937,0.0254 l 125.21094,-99.47266 c 0.29773,-0.23653 0.54265,-0.50542 0.8125,-0.75976 a 9.7230778,13.907691 0 0 0 5.48633,-12.48438 9.7230778,13.907691 0 0 0 -4.34376,-11.58008 c -0.63898,-0.76741 -1.35144,-1.50187 -2.21093,-2.13867 L 126.15675,119.43972 c -2.32437,-1.72214 -4.97556,-2.53144 -7.38867,-2.44531 z m 125.92188,214.96484 c -5.78562,-0.0235 -10.45785,3.67394 -10.47656,8.28907 l -0.0606,14.66797 c -0.0187,4.61512 4.62453,8.34958 10.41015,8.37304 l 159.91211,0.64844 c 5.78562,0.0235 10.45981,-3.67394 10.47852,-8.28906 l 0.0586,-14.66797 c 0.0187,-4.61513 -4.62258,-8.34959 -10.4082,-8.37305 z" /><path
     id="rect1"
     style="fill:#ffffff;fill-opacity:1;stroke:#000000;stroke-width:16.7;stroke-linecap:round;stroke-linejoin:round;stroke-opacity:0"
     d="M 140.04647 17.583872 C 138.15882 19.089631 136.99475 21.173786 136.99475 23.481367 L 136.99416 38.149192 C 136.99416 42.764353 141.65138 46.479525 147.43704 46.479525 L 288.54219 46.479833 L 251.9578 183.01712 C 250.46036 188.60564 252.84325 194.06735 257.30115 195.26185 L 271.471 199.05881 C 275.9289 200.2533 280.72285 196.71473 282.22029 191.12621 L 323.60918 36.660842 C 323.70759 36.29355 323.74431 35.931697 323.80972 35.566684 A 13.907691 9.7230778 53.465062 0 0 320.78584 22.269482 A 13.907691 9.7230778 53.465062 0 0 310.40189 15.550849 C 309.43162 15.314634 308.42193 15.148638 307.35224 15.148638 L 147.43895 15.150095 C 144.54612 15.150095 141.93412 16.078113 140.04647 17.583872 z M 369.19528 115.34392 C 364.5326 118.76933 362.9796 124.5216 365.71201 128.24097 L 374.39539 140.06264 C 377.12779 143.782 383.08179 144.01843 387.74447 140.59303 L 516.61891 45.916311 C 521.28159 42.490906 522.83616 36.737467 520.10375 33.018104 L 511.4188 21.197597 C 508.68639 17.478234 502.73396 17.240636 498.07129 20.666042 L 369.19528 115.34392 z "
     transform="rotate(36.534938)" /></svg>
