<?xml version="1.0" encoding="UTF-8" standalone="no"?>
<!-- Created with Inkscape (http://www.inkscape.org/) -->

<svg
   version="1.1"
   id="svg1"
   width="512"
   height="512"
   viewBox="0 0 512 512"
   xml:space="preserve"
   sodipodi:docname="com.google.Chrome.svg"
   inkscape:version="1.3 (0e150ed6c4, 2023-07-21)"
   xmlns:inkscape="http://www.inkscape.org/namespaces/inkscape"
   xmlns:sodipodi="http://sodipodi.sourceforge.net/DTD/sodipodi-0.dtd"
   xmlns:xlink="http://www.w3.org/1999/xlink"
   xmlns="http://www.w3.org/2000/svg"
   xmlns:svg="http://www.w3.org/2000/svg"><sodipodi:namedview
     id="namedview1"
     pagecolor="#505050"
     bordercolor="#eeeeee"
     borderopacity="1"
     inkscape:showpageshadow="0"
     inkscape:pageopacity="0"
     inkscape:pagecheckerboard="0"
     inkscape:deskcolor="#505050"
     inkscape:zoom="0.57452425"
     inkscape:cx="191.46276"
     inkscape:cy="241.93931"
     inkscape:window-width="1920"
     inkscape:window-height="1028"
     inkscape:window-x="0"
     inkscape:window-y="28"
     inkscape:window-maximized="1"
     inkscape:current-layer="svg1" /><defs
     id="defs1"><linearGradient
       id="linearGradient7"
       inkscape:collect="always"><stop
         style="stop-color:#ffe90e;stop-opacity:0.99927003;"
         offset="0"
         id="stop7" /><stop
         style="stop-color:#ffe90e;stop-opacity:0;"
         offset="1"
         id="stop8" /></linearGradient><linearGradient
       id="linearGradient5"
       inkscape:collect="always"><stop
         style="stop-color:#19ff09;stop-opacity:1;"
         offset="0.19753087"
         id="stop5" /><stop
         style="stop-color:#ff1075;stop-opacity:1;"
         offset="1"
         id="stop6" /></linearGradient><linearGradient
       id="linearGradient3"
       inkscape:collect="always"><stop
         style="stop-color:#ff1075;stop-opacity:1;"
         offset="0.24444449"
         id="stop3" /><stop
         style="stop-color:#ffe90e;stop-opacity:1;"
         offset="1"
         id="stop4" /></linearGradient><linearGradient
       id="swatch1"><stop
         style="stop-color:#000000;stop-opacity:1;"
         offset="0"
         id="stop1" /></linearGradient><linearGradient
       xlink:href="#swatch1"
       id="linearGradient1"
       x1="154.74224"
       y1="256.12177"
       x2="357.58452"
       y2="256.12177"
       gradientUnits="userSpaceOnUse"
       gradientTransform="matrix(1.1338971,0,0,1.1338971,-32.487289,-34.413039)" /><linearGradient
       inkscape:collect="always"
       xlink:href="#swatch1"
       id="linearGradient2"
       gradientUnits="userSpaceOnUse"
       x1="154.74224"
       y1="256.12177"
       x2="357.58452"
       y2="256.12177"
       gradientTransform="matrix(1.2225064,0,0,1.2225064,-57.154456,-57.110523)" /><linearGradient
       inkscape:collect="always"
       xlink:href="#linearGradient3"
       id="linearGradient4"
       x1="152.58652"
       y1="113.08306"
       x2="337.0524"
       y2="126.6487"
       gradientUnits="userSpaceOnUse" /><linearGradient
       inkscape:collect="always"
       xlink:href="#linearGradient5"
       id="linearGradient6"
       x1="251.29498"
       y1="442.46243"
       x2="111.44455"
       y2="286.18378"
       gradientUnits="userSpaceOnUse" /><linearGradient
       inkscape:collect="always"
       xlink:href="#linearGradient7"
       id="linearGradient8"
       x1="416.33237"
       y1="205.80222"
       x2="344.36621"
       y2="383.21915"
       gradientUnits="userSpaceOnUse" /></defs><g
     id="layer2-5"
     style="display:inline;fill:#393939;fill-opacity:1;stroke-width:0.992215"
     transform="matrix(1.0078462,0,0,1.0078462,0.7994758,-1.4099692)"><ellipse
       style="fill:#393939;fill-opacity:1;stroke-width:1.67153"
       id="path11-3"
       cx="109.52541"
       cy="-119.28624"
       rx="104.30371"
       ry="113.51506"
       transform="scale(1,-1)" /><ellipse
       style="fill:#393939;fill-opacity:1;stroke-width:1.69693"
       id="ellipse11-5"
       cx="-109.85475"
       cy="-388.48688"
       rx="104.5648"
       ry="116.70013"
       transform="matrix(0,-1,-1,0,0,0)" /><ellipse
       style="fill:#393939;fill-opacity:1;stroke-width:1.68711"
       id="ellipse12-6"
       cx="-398.54544"
       cy="-118.90063"
       rx="106.02679"
       ry="113.76122"
       transform="matrix(0,-1,-1,0,0,0)" /><ellipse
       style="fill:#393939;fill-opacity:1;stroke-width:1.68015"
       id="ellipse13-2"
       cx="-400.48523"
       cy="-391.17087"
       rx="105.04218"
       ry="113.8843"
       transform="matrix(0,-1,-1,0,0,0)" /><path
       style="fill:#393939;fill-opacity:1;stroke-width:0.992215"
       d="m 123.10186,505.28763 266.00269,0.087 116.00903,-103.38988 0.087,-294.85265 L 392.49866,5.395766 117.79312,5.7438815 5.4392829,124.05917 5.1346778,401.158 Z"
       id="path10-9" /></g><g
     id="layer1"
     style="display:inline;stroke-width:0.881915"
     transform="matrix(0.80178626,0.80178626,-0.80178626,0.80178626,258.11696,-155.04927)"><path
       id="circle3"
       style="display:inline;fill:url(#linearGradient4);fill-opacity:1;stroke-width:0.881915"
       d="M 255.81836,52.125 A 203.91295,203.91295 0 0 0 79.238281,155.02344 l 88.478519,153.44922 0.99023,0.0156 c -2.97341,-5.13175 -6.11416,-11.47562 -7.8125,-15.95508 -1.95554,-5.15778 -4.87183,-16.33843 -5.61719,-21.5332 -0.70319,-4.90089 -0.71643,-23.88138 -0.0195,-28.8457 0.28098,-2.00158 1.20486,-6.37337 2.05274,-9.7168 3.13063,-12.34499 7.92616,-23.16284 14.52539,-32.76758 14.18156,-20.64036 34.58781,-35.07049 58.35547,-41.26562 10.41621,-2.71503 13.71634,-3.10445 26.10742,-3.08008 12.20824,0.024 15.98311,0.48998 26.39258,3.2539 35.09877,9.31946 63.24129,38.07278 71.96289,73.52735 1.09828,4.46467 1.46757,6.35126 2.38476,12.16601 0.13212,0.83764 0.35521,5.04757 0.49414,9.35547 0.66358,20.57473 -5.05075,40.63135 -15.91406,57.59766 l 0.25977,0.004 -85.76172,148.70117 A 203.91295,203.91295 0 0 0 459.73242,256.03711 203.91295,203.91295 0 0 0 255.81836,52.125 Z M 72.199219,167.91406 a 203.91295,203.91295 0 0 0 -2.25,4.44532 203.91295,203.91295 0 0 1 2.25,-4.44532 z m 183.113281,7.79297 c -8.49588,0.10441 -17.08301,1.33884 -23.44336,3.55274 -2.33929,0.81424 -4.44631,1.48046 -4.68164,1.48046 -0.61718,0 -9.76776,4.50628 -13.09961,6.45118 -5.08535,2.96845 -9.69293,6.66272 -15.25391,12.22851 -7.74445,7.75117 -11.36377,12.80609 -15.9121,22.22461 -6.5981,13.66309 -9.22638,29.52506 -7.33399,44.25195 1.61245,12.54839 4.71719,21.92709 10.55078,31.8711 2.06963,3.52791 4.93613,7.43441 8.0625,11.125 l 121.92969,1.92773 c 7.48388,-8.24823 13.20847,-17.9413 16.76172,-28.71093 5.37447,-16.28962 5.43518,-34.48158 0.16797,-50.63868 -2.81104,-8.62281 -8.70055,-19.47368 -14.18946,-26.14453 -5.5168,-6.70474 -13.98569,-13.95918 -21.66797,-18.55859 -7.61563,-4.55953 -18.14992,-8.43123 -27.19726,-9.9961 -4.53168,-0.78382 -9.59583,-1.1271 -14.69336,-1.06445 z" /><path
       id="circle4"
       style="display:inline;fill:url(#linearGradient6);fill-opacity:1;stroke-width:0.881915"
       d="M 255.81836,52.125 A 203.91295,203.91295 0 0 1 278.78125,53.474609 203.91295,203.91295 0 0 0 255.81836,52.125 Z m 24.66406,1.558594 a 203.91295,203.91295 0 0 1 21.81836,3.865234 203.91295,203.91295 0 0 0 -21.81836,-3.865234 z m -50.67969,0.302734 a 203.91295,203.91295 0 0 0 -11.49414,2.0625 203.91295,203.91295 0 0 1 11.49414,-2.0625 z m 73.58008,3.804688 a 203.91295,203.91295 0 0 1 22.30664,6.707031 203.91295,203.91295 0 0 0 -22.30664,-6.707031 z M 204.45117,59.0625 a 203.91295,203.91295 0 0 0 -13.47851,4.082031 203.91295,203.91295 0 0 1 13.47851,-4.082031 z m 121.3711,5.486328 a 203.91295,203.91295 0 0 1 21.22461,9.189453 203.91295,203.91295 0 0 0 -21.22461,-9.189453 z m -145.41797,2.53711 a 203.91295,203.91295 0 0 0 -14.52539,6.324218 203.91295,203.91295 0 0 1 14.52539,-6.324218 z m 167.62304,7.146484 a 203.91295,203.91295 0 0 1 39.08789,25.847658 203.91295,203.91295 0 0 0 -39.08789,-25.847658 z m -188.89062,2.859375 a 203.91295,203.91295 0 0 0 -51.05664,39.044923 203.91295,203.91295 0 0 1 51.05664,-39.044923 z m 228.10937,23.101563 a 203.91295,203.91295 0 0 1 17.06641,16.17773 203.91295,203.91295 0 0 0 -17.06641,-16.17773 z m 17.25782,16.37891 a 203.91295,203.91295 0 0 1 28.16015,38.06445 203.91295,203.91295 0 0 0 -28.16015,-38.06445 z m -297.16407,0.30468 A 203.91295,203.91295 0 0 0 93.236328,133.82617 203.91295,203.91295 0 0 1 107.33984,116.87695 Z M 91.658203,135.9375 A 203.91295,203.91295 0 0 0 79.330078,154.85742 203.91295,203.91295 0 0 1 91.658203,135.9375 Z M 254.98438,154.53906 165.51758,303.99023 79.326172,154.86133 A 203.91295,203.91295 0 0 0 51.90625,256.03711 203.91295,203.91295 0 0 0 255.81836,459.95117 203.91295,203.91295 0 0 0 459.73242,256.03711 203.91295,203.91295 0 0 0 432.66602,154.63867 Z" /><path
       id="path7"
       style="display:inline;fill:url(#linearGradient8);fill-opacity:1;stroke-width:0.881915"
       d="m 432.80859,154.61523 -172.24414,0.0801 0.39258,0.70508 c 8.53314,0.16753 12.87695,0.82591 21.73438,3.17773 35.09877,9.31946 63.24129,38.07278 71.96289,73.52735 1.09828,4.46467 1.46757,6.35126 2.38476,12.16601 0.13212,0.83764 0.35521,5.04757 0.49414,9.35547 0.59648,18.4942 -3.97089,36.56572 -12.7832,52.35743 l 0.50977,0.91601 -88.92774,153.82813 A 203.91295,203.91295 0 0 0 433.53516,358.83008 203.91295,203.91295 0 0 0 432.80859,154.61523 Z m -159.60156,22.79883 59.11328,106.23242 c 0.18212,-0.5169 0.4001,-1.01527 0.57227,-1.5371 5.37447,-16.28962 5.43518,-34.48158 0.16797,-50.63868 -2.81104,-8.62281 -8.70055,-19.47368 -14.18946,-26.14453 -5.5168,-6.70474 -13.98569,-13.95918 -21.66797,-18.55859 -6.73314,-4.03118 -15.74492,-7.51657 -23.99609,-9.35352 z" /></g><path
     style="display:none;fill:#000000;fill-opacity:1;stroke:url(#linearGradient2);stroke-width:1"
     d="m 246.06539,379.84174 c -11.35943,-1.35997 -24.99172,-4.27852 -30.90533,-6.61657 -1.58093,-0.62506 -3.912,-1.49024 -5.18014,-1.92263 -1.26814,-0.43238 -4.97858,-2.06907 -8.24544,-3.6371 -19.66316,-9.43795 -37.63128,-25.16965 -49.67716,-43.49404 -4.29655,-6.536 -9.8606,-17.37328 -12.51718,-24.38016 -2.39067,-6.30544 -5.95682,-19.97468 -6.86803,-26.32532 -0.85965,-5.99138 -0.87446,-29.19441 -0.0225,-35.26334 0.3435,-2.44694 1.47262,-7.7932 2.50917,-11.88056 3.82723,-15.09185 9.6896,-28.31683 17.75721,-40.05872 17.33708,-25.23298 42.28272,-42.87311 71.33886,-50.44671 12.7339,-3.31913 16.7697,-3.79526 31.91788,-3.76546 14.92467,0.0293 19.53936,0.59818 32.26502,3.9771 42.90851,11.39311 77.31267,46.54595 87.9749,89.88943 1.34264,5.4581 1.79465,7.76345 2.91592,14.87202 0.16152,1.02403 0.43267,6.1708 0.60251,11.43724 1.21766,37.75454 -15.04466,74.13082 -43.9673,98.34808 -9.08005,7.60282 -13.4825,10.52293 -24.20073,16.05201 -16.56918,8.54735 -34.31626,12.92833 -53.72844,13.26325 -5.55903,0.096 -10.94518,0.0741 -11.96921,-0.0486 z m 16.61304,-25.25656 c 19.84857,-1.40959 36.20141,-7.46605 52.2781,-19.36176 16.42022,-12.14989 28.45443,-28.78469 34.85226,-48.17606 6.57034,-19.91418 6.64386,-42.15403 0.20465,-61.90621 -3.43652,-10.54145 -10.63588,-23.80714 -17.3461,-31.9623 -6.74434,-8.1966 -17.0983,-17.06411 -26.48994,-22.68694 -9.31017,-5.57405 -22.18735,-10.30698 -33.2478,-12.22005 -14.77334,-2.55527 -34.18179,-1.2893 -46.62271,3.04111 -2.85981,0.99543 -5.43502,1.80987 -5.72271,1.80987 -0.75451,0 -11.942,5.50984 -16.01522,7.88749 -6.21689,3.62896 -11.84982,8.1444 -18.64814,14.94862 -9.46765,9.47588 -13.89121,15.65436 -19.45156,27.16857 -8.06623,16.70323 -11.28069,36.09641 -8.96722,54.10016 1.97121,15.34048 5.76684,26.80598 12.89846,38.96261 5.3424,9.10669 14.98164,20.30252 22.93381,26.63725 15.48599,12.3362 35.10218,20.21798 54.061,21.72171 3.21838,0.25528 6.14595,0.49758 6.5057,0.53847 0.35976,0.0409 4.3096,-0.18524 8.77742,-0.50254 z"
     id="path4" /><path
     style="display:inline;fill:#14ff30;fill-opacity:1;stroke:url(#linearGradient1);stroke-width:0.999996"
     d="m 248.75468,370.8682 c -10.53608,-1.2614 -23.18028,-3.9684 -28.66526,-6.13699 -1.46634,-0.57975 -3.62845,-1.38222 -4.80467,-1.78327 -1.17623,-0.40104 -4.61773,-1.9191 -7.6478,-3.37348 -18.23794,-8.75387 -34.90371,-23.34531 -46.07647,-40.34152 -3.98514,-6.06225 -9.1459,-16.11403 -11.60992,-22.61304 -2.21739,-5.84841 -5.52507,-18.52688 -6.37022,-24.41722 -0.79735,-5.55711 -0.81109,-27.07835 -0.0209,-32.7074 0.3186,-2.26958 1.36588,-7.22833 2.3273,-11.01943 3.54983,-13.99798 8.98728,-26.26439 16.47013,-37.1552 16.08047,-23.40406 39.218,-39.7656 66.16811,-46.79026 11.81093,-3.07854 15.5542,-3.52017 29.60442,-3.49253 13.8429,0.0272 18.12312,0.55482 29.92639,3.68884 39.79844,10.56731 71.70893,43.17222 81.59834,83.37409 1.24532,5.06249 1.66457,7.20075 2.70457,13.79408 0.14982,0.9498 0.40131,5.72353 0.55884,10.60825 1.1294,35.01803 -13.9542,68.75769 -40.78048,91.21964 -8.42191,7.05176 -12.50527,9.76022 -22.44662,14.88854 -15.36822,7.92782 -31.82896,11.99126 -49.83412,12.30191 -5.1561,0.089 -10.15185,0.0687 -11.10166,-0.0451 z m 15.40891,-23.42592 c 18.40991,-1.30742 33.57746,-6.92489 48.48889,-17.95839 15.23006,-11.26924 26.39201,-26.69833 32.32611,-44.68417 6.09411,-18.47078 6.1623,-39.09864 0.18982,-57.41915 -3.18743,-9.7774 -9.86498,-22.08156 -16.08883,-29.64562 -6.2555,-7.6025 -15.85898,-15.82728 -24.56991,-21.04255 -8.63535,-5.17004 -20.57916,-9.55992 -30.83794,-11.33433 -13.70254,-2.37005 -31.70424,-1.19585 -43.24342,2.82069 -2.65253,0.92328 -5.04108,1.67868 -5.30792,1.67868 -0.69982,0 -11.07642,5.11048 -14.85441,7.31579 -5.76628,3.36593 -10.99093,7.55409 -17.29649,13.86512 -8.78142,8.78905 -12.88435,14.51972 -18.04168,25.19936 -7.48158,15.49254 -10.46304,33.48008 -8.31726,50.17889 1.82833,14.22858 5.34885,24.86303 11.96356,36.13853 4.95517,8.44662 13.89574,18.83097 21.27153,24.70654 14.36353,11.44206 32.55791,18.75255 50.14257,20.14728 2.98511,0.23678 5.70048,0.46152 6.03416,0.49944 0.33367,0.0379 3.99723,-0.17181 8.14122,-0.46611 z"
     id="path5" /><circle
     style="display:inline;fill:#393939;fill-opacity:1;stroke-width:0.999996"
     id="circle11"
     cx="257.96924"
     cy="256.00272"
     r="115.06915" /><circle
     style="display:inline;fill:#0785d2;fill-opacity:1;stroke-width:0.999996"
     id="path2"
     cx="257.96924"
     cy="256.00272"
     r="91.38562" /></svg>
