<?xml version="1.0" encoding="UTF-8" standalone="no"?>
<!-- Created with Inkscape (http://www.inkscape.org/) -->

<svg
   version="1.1"
   id="svg1"
   width="512"
   height="512"
   viewBox="0 0 512 512"
   xml:space="preserve"
   sodipodi:docname="com.google.Chrome.svg"
   inkscape:version="1.3 (0e150ed6c4, 2023-07-21)"
   xmlns:inkscape="http://www.inkscape.org/namespaces/inkscape"
   xmlns:sodipodi="http://sodipodi.sourceforge.net/DTD/sodipodi-0.dtd"
   xmlns:xlink="http://www.w3.org/1999/xlink"
   xmlns="http://www.w3.org/2000/svg"
   xmlns:svg="http://www.w3.org/2000/svg"><sodipodi:namedview
     id="namedview1"
     pagecolor="#505050"
     bordercolor="#eeeeee"
     borderopacity="1"
     inkscape:showpageshadow="0"
     inkscape:pageopacity="0"
     inkscape:pagecheckerboard="0"
     inkscape:deskcolor="#505050"
     inkscape:zoom="0.57452425"
     inkscape:cx="221.05246"
     inkscape:cy="362.03868"
     inkscape:window-width="1920"
     inkscape:window-height="1028"
     inkscape:window-x="0"
     inkscape:window-y="28"
     inkscape:window-maximized="1"
     inkscape:current-layer="svg1" /><defs
     id="defs1"><linearGradient
       id="swatch1"><stop
         style="stop-color:#000000;stop-opacity:1;"
         offset="0"
         id="stop1" /></linearGradient><linearGradient
       xlink:href="#swatch1"
       id="linearGradient1"
       x1="154.74224"
       y1="256.12177"
       x2="357.58452"
       y2="256.12177"
       gradientUnits="userSpaceOnUse"
       gradientTransform="matrix(3.7845051,0,0,2.9229309,-442.62004,-674.00763)" /></defs><g
     id="layer2-5"
     style="display:inline;fill:#161616;fill-opacity:1;stroke-width:0.992215"
     transform="matrix(1.0078462,0,0,1.0078462,0.7994758,-1.4099692)"><ellipse
       style="fill:#161616;fill-opacity:1;stroke-width:1.67153"
       id="path11-3"
       cx="109.52541"
       cy="-119.28624"
       rx="104.30371"
       ry="113.51506"
       transform="scale(1,-1)" /><ellipse
       style="fill:#161616;fill-opacity:1;stroke-width:1.69693"
       id="ellipse11-5"
       cx="-109.85475"
       cy="-388.48688"
       rx="104.5648"
       ry="116.70013"
       transform="matrix(0,-1,-1,0,0,0)" /><ellipse
       style="fill:#161616;fill-opacity:1;stroke-width:1.68711"
       id="ellipse12-6"
       cx="-398.54544"
       cy="-118.90063"
       rx="106.02679"
       ry="113.76122"
       transform="matrix(0,-1,-1,0,0,0)" /><ellipse
       style="fill:#161616;fill-opacity:1;stroke-width:1.68015"
       id="ellipse13-2"
       cx="-400.48523"
       cy="-391.17087"
       rx="105.04218"
       ry="113.8843"
       transform="matrix(0,-1,-1,0,0,0)" /><path
       style="fill:#161616;fill-opacity:1;stroke-width:0.992215"
       d="m 123.10186,505.28763 266.00269,0.087 116.00903,-103.38988 0.087,-294.85265 L 392.49866,5.395766 117.79312,5.7438815 5.4392829,124.05917 5.1346778,401.158 Z"
       id="path10-9" /></g><g
     inkscape:groupmode="layer"
     id="layer3"
     inkscape:label="some"
     transform="translate(39.384616,33.476939)"><g
       id="g6"
       style="display:inline;fill:#000000;fill-opacity:1;stroke-width:1.02571"
       transform="matrix(-0.46204282,0.85849176,-0.85849176,-0.46204282,594.7346,154.62131)"
       inkscape:label="layer1"><path
         id="path1"
         style="display:inline;fill:#000000;fill-opacity:1;stroke-width:1.02571"
         d="M 255.81836,52.125 A 203.91295,203.91295 0 0 0 79.238281,155.02344 l 88.478519,153.44922 0.99023,0.0156 c -2.97341,-5.13175 -6.11416,-11.47562 -7.8125,-15.95508 -1.95554,-5.15778 -4.87183,-16.33843 -5.61719,-21.5332 -0.70319,-4.90089 -0.71643,-23.88138 -0.0195,-28.8457 0.28098,-2.00158 1.20486,-6.37337 2.05274,-9.7168 3.13063,-12.34499 7.92616,-23.16284 14.52539,-32.76758 14.18156,-20.64036 34.58781,-35.07049 58.35547,-41.26562 10.41621,-2.71503 13.71634,-3.10445 26.10742,-3.08008 12.20824,0.024 15.98311,0.48998 26.39258,3.2539 35.09877,9.31946 63.24129,38.07278 71.96289,73.52735 1.09828,4.46467 1.46757,6.35126 2.38476,12.16601 0.13212,0.83764 0.35521,5.04757 0.49414,9.35547 0.66358,20.57473 -5.05075,40.63135 -15.91406,57.59766 l 0.25977,0.004 -85.76172,148.70117 A 203.91295,203.91295 0 0 0 459.73242,256.03711 203.91295,203.91295 0 0 0 255.81836,52.125 Z M 72.199219,167.91406 a 203.91295,203.91295 0 0 0 -2.25,4.44532 203.91295,203.91295 0 0 1 2.25,-4.44532 z m 183.113281,7.79297 c -8.49588,0.10441 -17.08301,1.33884 -23.44336,3.55274 -2.33929,0.81424 -4.44631,1.48046 -4.68164,1.48046 -0.61718,0 -9.76776,4.50628 -13.09961,6.45118 -5.08535,2.96845 -9.69293,6.66272 -15.25391,12.22851 -7.74445,7.75117 -11.36377,12.80609 -15.9121,22.22461 -6.5981,13.66309 -9.22638,29.52506 -7.33399,44.25195 1.61245,12.54839 4.71719,21.92709 10.55078,31.8711 2.06963,3.52791 4.93613,7.43441 8.0625,11.125 l 121.92969,1.92773 c 7.48388,-8.24823 13.20847,-17.9413 16.76172,-28.71093 5.37447,-16.28962 5.43518,-34.48158 0.16797,-50.63868 -2.81104,-8.62281 -8.70055,-19.47368 -14.18946,-26.14453 -5.5168,-6.70474 -13.98569,-13.95918 -21.66797,-18.55859 -7.61563,-4.55953 -18.14992,-8.43123 -27.19726,-9.9961 -4.53168,-0.78382 -9.59583,-1.1271 -14.69336,-1.06445 z" /><path
         id="path3"
         style="display:inline;fill:#000000;fill-opacity:1;stroke-width:1.02571"
         d="M 255.81836,52.125 A 203.91295,203.91295 0 0 1 278.78125,53.474609 203.91295,203.91295 0 0 0 255.81836,52.125 Z m 24.66406,1.558594 a 203.91295,203.91295 0 0 1 21.81836,3.865234 203.91295,203.91295 0 0 0 -21.81836,-3.865234 z m -50.67969,0.302734 a 203.91295,203.91295 0 0 0 -11.49414,2.0625 203.91295,203.91295 0 0 1 11.49414,-2.0625 z m 73.58008,3.804688 a 203.91295,203.91295 0 0 1 22.30664,6.707031 203.91295,203.91295 0 0 0 -22.30664,-6.707031 z M 204.45117,59.0625 a 203.91295,203.91295 0 0 0 -13.47851,4.082031 203.91295,203.91295 0 0 1 13.47851,-4.082031 z m 121.3711,5.486328 a 203.91295,203.91295 0 0 1 21.22461,9.189453 203.91295,203.91295 0 0 0 -21.22461,-9.189453 z m -145.41797,2.53711 a 203.91295,203.91295 0 0 0 -14.52539,6.324218 203.91295,203.91295 0 0 1 14.52539,-6.324218 z m 167.62304,7.146484 a 203.91295,203.91295 0 0 1 39.08789,25.847658 203.91295,203.91295 0 0 0 -39.08789,-25.847658 z m -188.89062,2.859375 a 203.91295,203.91295 0 0 0 -51.05664,39.044923 203.91295,203.91295 0 0 1 51.05664,-39.044923 z m 228.10937,23.101563 a 203.91295,203.91295 0 0 1 17.06641,16.17773 203.91295,203.91295 0 0 0 -17.06641,-16.17773 z m 17.25782,16.37891 a 203.91295,203.91295 0 0 1 28.16015,38.06445 203.91295,203.91295 0 0 0 -28.16015,-38.06445 z m -297.16407,0.30468 A 203.91295,203.91295 0 0 0 93.236328,133.82617 203.91295,203.91295 0 0 1 107.33984,116.87695 Z M 91.658203,135.9375 A 203.91295,203.91295 0 0 0 79.330078,154.85742 203.91295,203.91295 0 0 1 91.658203,135.9375 Z M 254.98438,154.53906 165.51758,303.99023 79.326172,154.86133 A 203.91295,203.91295 0 0 0 51.90625,256.03711 203.91295,203.91295 0 0 0 255.81836,459.95117 203.91295,203.91295 0 0 0 459.73242,256.03711 203.91295,203.91295 0 0 0 432.66602,154.63867 Z" /><path
         id="path6"
         style="display:inline;fill:#000000;fill-opacity:1;stroke-width:1.02571"
         d="m 432.80859,154.61523 -172.24414,0.0801 0.39258,0.70508 c 8.53314,0.16753 12.87695,0.82591 21.73438,3.17773 35.09877,9.31946 63.24129,38.07278 71.96289,73.52735 1.09828,4.46467 1.46757,6.35126 2.38476,12.16601 0.13212,0.83764 0.35521,5.04757 0.49414,9.35547 0.59648,18.4942 -3.97089,36.56572 -12.7832,52.35743 l 0.50977,0.91601 -88.92774,153.82813 A 203.91295,203.91295 0 0 0 433.53516,358.83008 203.91295,203.91295 0 0 0 432.80859,154.61523 Z m -159.60156,22.79883 59.11328,106.23242 c 0.18212,-0.5169 0.4001,-1.01527 0.57227,-1.5371 5.37447,-16.28962 5.43518,-34.48158 0.16797,-50.63868 -2.81104,-8.62281 -8.70055,-19.47368 -14.18946,-26.14453 -5.5168,-6.70474 -13.98569,-13.95918 -21.66797,-18.55859 -6.73314,-4.03118 -15.74492,-7.51657 -23.99609,-9.35352 z" /></g></g><g
     id="layer1"
     style="display:inline;stroke-width:1.02571"
     transform="matrix(-0.46204282,0.85849176,-0.85849176,-0.46204282,594.7346,154.62131)"
     inkscape:label="layer1"><path
       id="circle3"
       style="display:inline;fill:#143cd8;fill-opacity:1;stroke-width:1.02571"
       d="M 255.81836,52.125 A 203.91295,203.91295 0 0 0 79.238281,155.02344 l 88.478519,153.44922 0.99023,0.0156 c -2.97341,-5.13175 -6.11416,-11.47562 -7.8125,-15.95508 -1.95554,-5.15778 -4.87183,-16.33843 -5.61719,-21.5332 -0.70319,-4.90089 -0.71643,-23.88138 -0.0195,-28.8457 0.28098,-2.00158 1.20486,-6.37337 2.05274,-9.7168 3.13063,-12.34499 7.92616,-23.16284 14.52539,-32.76758 14.18156,-20.64036 34.58781,-35.07049 58.35547,-41.26562 10.41621,-2.71503 13.71634,-3.10445 26.10742,-3.08008 12.20824,0.024 15.98311,0.48998 26.39258,3.2539 35.09877,9.31946 63.24129,38.07278 71.96289,73.52735 1.09828,4.46467 1.46757,6.35126 2.38476,12.16601 0.13212,0.83764 0.35521,5.04757 0.49414,9.35547 0.66358,20.57473 -5.05075,40.63135 -15.91406,57.59766 l 0.25977,0.004 -85.76172,148.70117 A 203.91295,203.91295 0 0 0 459.73242,256.03711 203.91295,203.91295 0 0 0 255.81836,52.125 Z M 72.199219,167.91406 a 203.91295,203.91295 0 0 0 -2.25,4.44532 203.91295,203.91295 0 0 1 2.25,-4.44532 z m 183.113281,7.79297 c -8.49588,0.10441 -17.08301,1.33884 -23.44336,3.55274 -2.33929,0.81424 -4.44631,1.48046 -4.68164,1.48046 -0.61718,0 -9.76776,4.50628 -13.09961,6.45118 -5.08535,2.96845 -9.69293,6.66272 -15.25391,12.22851 -7.74445,7.75117 -11.36377,12.80609 -15.9121,22.22461 -6.5981,13.66309 -9.22638,29.52506 -7.33399,44.25195 1.61245,12.54839 4.71719,21.92709 10.55078,31.8711 2.06963,3.52791 4.93613,7.43441 8.0625,11.125 l 121.92969,1.92773 c 7.48388,-8.24823 13.20847,-17.9413 16.76172,-28.71093 5.37447,-16.28962 5.43518,-34.48158 0.16797,-50.63868 -2.81104,-8.62281 -8.70055,-19.47368 -14.18946,-26.14453 -5.5168,-6.70474 -13.98569,-13.95918 -21.66797,-18.55859 -7.61563,-4.55953 -18.14992,-8.43123 -27.19726,-9.9961 -4.53168,-0.78382 -9.59583,-1.1271 -14.69336,-1.06445 z"
       inkscape:label="yellow" /><path
       id="circle4"
       style="display:inline;fill:#355bed;fill-opacity:1;stroke-width:1.02571"
       d="M 255.81836,52.125 A 203.91295,203.91295 0 0 1 278.78125,53.474609 203.91295,203.91295 0 0 0 255.81836,52.125 Z m 24.66406,1.558594 a 203.91295,203.91295 0 0 1 21.81836,3.865234 203.91295,203.91295 0 0 0 -21.81836,-3.865234 z m -50.67969,0.302734 a 203.91295,203.91295 0 0 0 -11.49414,2.0625 203.91295,203.91295 0 0 1 11.49414,-2.0625 z m 73.58008,3.804688 a 203.91295,203.91295 0 0 1 22.30664,6.707031 203.91295,203.91295 0 0 0 -22.30664,-6.707031 z M 204.45117,59.0625 a 203.91295,203.91295 0 0 0 -13.47851,4.082031 203.91295,203.91295 0 0 1 13.47851,-4.082031 z m 121.3711,5.486328 a 203.91295,203.91295 0 0 1 21.22461,9.189453 203.91295,203.91295 0 0 0 -21.22461,-9.189453 z m -145.41797,2.53711 a 203.91295,203.91295 0 0 0 -14.52539,6.324218 203.91295,203.91295 0 0 1 14.52539,-6.324218 z m 167.62304,7.146484 a 203.91295,203.91295 0 0 1 39.08789,25.847658 203.91295,203.91295 0 0 0 -39.08789,-25.847658 z m -188.89062,2.859375 a 203.91295,203.91295 0 0 0 -51.05664,39.044923 203.91295,203.91295 0 0 1 51.05664,-39.044923 z m 228.10937,23.101563 a 203.91295,203.91295 0 0 1 17.06641,16.17773 203.91295,203.91295 0 0 0 -17.06641,-16.17773 z m 17.25782,16.37891 a 203.91295,203.91295 0 0 1 28.16015,38.06445 203.91295,203.91295 0 0 0 -28.16015,-38.06445 z m -297.16407,0.30468 A 203.91295,203.91295 0 0 0 93.236328,133.82617 203.91295,203.91295 0 0 1 107.33984,116.87695 Z M 91.658203,135.9375 A 203.91295,203.91295 0 0 0 79.330078,154.85742 203.91295,203.91295 0 0 1 91.658203,135.9375 Z M 254.98438,154.53906 165.51758,303.99023 79.326172,154.86133 A 203.91295,203.91295 0 0 0 51.90625,256.03711 203.91295,203.91295 0 0 0 255.81836,459.95117 203.91295,203.91295 0 0 0 459.73242,256.03711 203.91295,203.91295 0 0 0 432.66602,154.63867 Z"
       inkscape:label="red" /><path
       id="path7"
       style="display:inline;fill:#0083eb;fill-opacity:1;stroke-width:1.02571"
       d="m 432.80859,154.61523 -172.24414,0.0801 0.39258,0.70508 c 8.53314,0.16753 12.87695,0.82591 21.73438,3.17773 35.09877,9.31946 63.24129,38.07278 71.96289,73.52735 1.09828,4.46467 1.46757,6.35126 2.38476,12.16601 0.13212,0.83764 0.35521,5.04757 0.49414,9.35547 0.59648,18.4942 -3.97089,36.56572 -12.7832,52.35743 l 0.50977,0.91601 -88.92774,153.82813 A 203.91295,203.91295 0 0 0 433.53516,358.83008 203.91295,203.91295 0 0 0 432.80859,154.61523 Z m -159.60156,22.79883 59.11328,106.23242 c 0.18212,-0.5169 0.4001,-1.01527 0.57227,-1.5371 5.37447,-16.28962 5.43518,-34.48158 0.16797,-50.63868 -2.81104,-8.62281 -8.70055,-19.47368 -14.18946,-26.14453 -5.5168,-6.70474 -13.98569,-13.95918 -21.66797,-18.55859 -6.73314,-4.03118 -15.74492,-7.51657 -23.99609,-9.35352 z"
       inkscape:label="green" /></g><g
     inkscape:groupmode="layer"
     id="layer2"
     inkscape:label="new"
     transform="matrix(0.85980615,0,0,0.85980615,34.197901,35.887304)"
     style="display:inline;stroke-width:1.16305"><circle
       style="display:inline;fill:#000000;fill-opacity:1;stroke-width:1.16305"
       id="circle11"
       cx="257.96924"
       cy="256.00272"
       r="115.06915" /><circle
       style="display:inline;fill:#0785d2;fill-opacity:1;stroke-width:1.16305"
       id="path2"
       cx="257.96924"
       cy="256.00272"
       r="91.38562" /></g></svg>
