<?xml version="1.0" encoding="UTF-8" standalone="no"?>
<!-- Created with Inkscape (http://www.inkscape.org/) -->

<svg
   version="1.1"
   id="svg1"
   width="512"
   height="512"
   viewBox="0 0 512 512"
   sodipodi:docname="discord.svg"
   xml:space="preserve"
   inkscape:version="1.3 (0e150ed6c4, 2023-07-21)"
   xmlns:inkscape="http://www.inkscape.org/namespaces/inkscape"
   xmlns:sodipodi="http://sodipodi.sourceforge.net/DTD/sodipodi-0.dtd"
   xmlns="http://www.w3.org/2000/svg"
   xmlns:svg="http://www.w3.org/2000/svg"><sodipodi:namedview
     id="namedview1"
     pagecolor="#505050"
     bordercolor="#eeeeee"
     borderopacity="1"
     inkscape:showpageshadow="0"
     inkscape:pageopacity="0"
     inkscape:pagecheckerboard="0"
     inkscape:deskcolor="#505050"
     inkscape:zoom="0.81249999"
     inkscape:cx="32.000001"
     inkscape:cy="315.07693"
     inkscape:window-width="1920"
     inkscape:window-height="1028"
     inkscape:window-x="0"
     inkscape:window-y="28"
     inkscape:window-maximized="1"
     inkscape:current-layer="svg1" /><defs
     id="defs1" /><g
     id="layer2"
     style="display:inline;fill:#181818;fill-opacity:1"><ellipse
       style="fill:#181818;fill-opacity:1;stroke-width:1.68464"
       id="path11"
       cx="109.52541"
       cy="-119.28624"
       rx="104.30371"
       ry="113.51506"
       transform="scale(1,-1)" /><ellipse
       style="fill:#181818;fill-opacity:1;stroke-width:1.71024"
       id="ellipse11"
       cx="-109.85475"
       cy="-388.48688"
       rx="104.5648"
       ry="116.70013"
       transform="matrix(0,-1,-1,0,0,0)" /><ellipse
       style="fill:#181818;fill-opacity:1;stroke-width:1.70034"
       id="ellipse12"
       cx="-398.54544"
       cy="-118.90063"
       rx="106.02679"
       ry="113.76122"
       transform="matrix(0,-1,-1,0,0,0)" /><ellipse
       style="fill:#181818;fill-opacity:1;stroke-width:1.69334"
       id="ellipse13"
       cx="-400.48523"
       cy="-391.17087"
       rx="105.04218"
       ry="113.8843"
       transform="matrix(0,-1,-1,0,0,0)" /><path
       style="fill:#181818;fill-opacity:1"
       d="m 123.10186,505.28763 266.00269,0.087 116.00903,-103.38988 0.087,-294.85265 L 392.49866,5.395766 117.79312,5.7438815 5.4392829,124.05917 5.1346778,401.158 Z"
       id="path10" /></g><g
     inkscape:groupmode="layer"
     id="g4"
     inkscape:label="Layer 1"
     transform="matrix(1.136276,0,0,1.1364922,-3.7711239,0.17929189)"
     style="stroke-width:0.879984;fill:#000000;fill-opacity:1"><path
       id="path3"
       style="fill:#000000;fill-opacity:1;stroke:#878787;stroke-width:0.616822;stroke-opacity:0"
       d="m 212.18945,131.92383 c 0,0 -12.09545,0.098 -23.80078,3.1875 -11.70533,3.08951 -24.74304,6.99543 -37.29687,13.70312 -12.2749,6.55865 -15.52109,8.05275 -23.53907,13.86719 l -0.082,-0.11328 -0.0176,0.18359 c -0.1484,0.10776 -0.27204,0.19194 -0.42382,0.30274 l 0.15625,0.21484 c -1.10385,1.87866 -28.695362,49.29313 -37.224612,111.04492 -8.702852,63.00861 -6.351563,65.00977 -6.351563,65.00977 0,0 27.859505,44.86126 91.613285,45.10742 l 19.46289,-23.62305 0.18945,0.0332 c 0,0 -0.1671,-0.0378 -0.18359,-0.041 l 0.0391,-0.0469 -1.54688,-0.30664 c -6.77794,-1.68812 -33.31966,-9.73768 -51.57031,-35.98243 0,0 33.59384,34.44096 116.00977,34.78907 v -0.0176 l 0.80859,0.01 v 0.008 c 0.0816,-3.5e-4 0.15875,-0.004 0.24024,-0.004 l 0.47656,0.006 0.006,-0.0137 c 81.88076,-0.5489 115.28515,-34.77735 115.28515,-34.77735 -18.25065,26.24475 -44.79237,34.29431 -51.57031,35.98243 l -1.54687,0.30664 0.0391,0.0469 c -0.0162,0.003 -0.18164,0.041 -0.18164,0.041 l 0.1875,-0.0332 19.46289,23.62305 c 63.75377,-0.24616 91.61523,-45.10742 91.61523,-45.10742 0,0 2.34934,-2.00116 -6.35351,-65.00977 -8.52992,-61.7566 -36.12288,-109.17519 -37.22266,-111.04687 l 0.1543,-0.21289 c -0.15186,-0.11085 -0.27536,-0.19493 -0.42383,-0.30274 l -0.0176,-0.18359 -0.082,0.11328 c -8.0178,-5.81429 -11.26429,-7.3086 -23.53906,-13.86719 -12.55384,-6.70769 -25.59155,-10.61361 -37.29688,-13.70312 -11.70533,-3.08947 -23.80078,-3.1875 -23.80078,-3.1875 l -4.55469,3.63476 14.68555,4.5 c 14.11955,5.13136 15.31714,5.15019 35.08203,14.67969 18.25517,8.8016 28.5857,17.91839 30.76172,19.93945 l -0.0527,0.0723 c -0.0334,-0.0247 -0.0601,-0.0475 -0.0937,-0.0723 -45.00333,-33.18427 -111.60412,-31.42353 -121.66407,-30.95507 -10.05162,-0.46829 -76.65911,-2.23184 -121.66601,30.95507 -0.0336,0.0248 -0.0603,0.0475 -0.0937,0.0723 l -0.0527,-0.0723 c 2.17576,-2.02083 12.50622,-11.13769 30.76172,-19.93945 19.76506,-9.52958 20.9641,-9.5482 35.08399,-14.67969 l 14.68554,-4.5 z m 176.52735,31.55469 0.35937,4.29687 -0.40234,-4.23828 z m -261.37891,0.002 0.041,0.0566 -0.38672,4.07031 z" /><ellipse
       style="fill:#000000;stroke:#878787;stroke-width:0.879984;stroke-opacity:0;fill-opacity:1"
       id="ellipse3"
       cx="308.92307"
       cy="277.47693"
       rx="31.015387"
       ry="33.107685" /><ellipse
       style="fill:#000000;stroke:#878787;stroke-width:0.879984;stroke-opacity:0;fill-opacity:1"
       id="ellipse4"
       cx="199.61525"
       cy="277.47693"
       rx="31.015387"
       ry="33.107685" /><path
       style="fill:#000000;fill-opacity:1;stroke:#878787;stroke-width:0.879984;stroke-opacity:0"
       d="m 218.39809,145.72927 c 0,0 32.37461,-5.91794 80.06624,0 47.69164,5.91794 -56.7426,31.15621 -56.7426,31.15621 z"
       id="path4" /></g><g
     inkscape:groupmode="layer"
     id="layer1"
     inkscape:label="Layer 1"
     transform="matrix(1.136276,0,0,1.1364922,-37.1901,-37.417043)"
     style="stroke-width:0.879984"><path
       id="path1"
       style="fill:#0f75b2;fill-opacity:1;stroke:#878787;stroke-width:0.616822;stroke-opacity:0"
       d="m 212.18945,131.92383 c 0,0 -12.09545,0.098 -23.80078,3.1875 -11.70533,3.08951 -24.74304,6.99543 -37.29687,13.70312 -12.2749,6.55865 -15.52109,8.05275 -23.53907,13.86719 l -0.082,-0.11328 -0.0176,0.18359 c -0.1484,0.10776 -0.27204,0.19194 -0.42382,0.30274 l 0.15625,0.21484 c -1.10385,1.87866 -28.695362,49.29313 -37.224612,111.04492 -8.702852,63.00861 -6.351563,65.00977 -6.351563,65.00977 0,0 27.859505,44.86126 91.613285,45.10742 l 19.46289,-23.62305 0.18945,0.0332 c 0,0 -0.1671,-0.0378 -0.18359,-0.041 l 0.0391,-0.0469 -1.54688,-0.30664 c -6.77794,-1.68812 -33.31966,-9.73768 -51.57031,-35.98243 0,0 33.59384,34.44096 116.00977,34.78907 v -0.0176 l 0.80859,0.01 v 0.008 c 0.0816,-3.5e-4 0.15875,-0.004 0.24024,-0.004 l 0.47656,0.006 0.006,-0.0137 c 81.88076,-0.5489 115.28515,-34.77735 115.28515,-34.77735 -18.25065,26.24475 -44.79237,34.29431 -51.57031,35.98243 l -1.54687,0.30664 0.0391,0.0469 c -0.0162,0.003 -0.18164,0.041 -0.18164,0.041 l 0.1875,-0.0332 19.46289,23.62305 c 63.75377,-0.24616 91.61523,-45.10742 91.61523,-45.10742 0,0 2.34934,-2.00116 -6.35351,-65.00977 -8.52992,-61.7566 -36.12288,-109.17519 -37.22266,-111.04687 l 0.1543,-0.21289 c -0.15186,-0.11085 -0.27536,-0.19493 -0.42383,-0.30274 l -0.0176,-0.18359 -0.082,0.11328 c -8.0178,-5.81429 -11.26429,-7.3086 -23.53906,-13.86719 -12.55384,-6.70769 -25.59155,-10.61361 -37.29688,-13.70312 -11.70533,-3.08947 -23.80078,-3.1875 -23.80078,-3.1875 l -4.55469,3.63476 14.68555,4.5 c 14.11955,5.13136 15.31714,5.15019 35.08203,14.67969 18.25517,8.8016 28.5857,17.91839 30.76172,19.93945 l -0.0527,0.0723 c -0.0334,-0.0247 -0.0601,-0.0475 -0.0937,-0.0723 -45.00333,-33.18427 -111.60412,-31.42353 -121.66407,-30.95507 -10.05162,-0.46829 -76.65911,-2.23184 -121.66601,30.95507 -0.0336,0.0248 -0.0603,0.0475 -0.0937,0.0723 l -0.0527,-0.0723 c 2.17576,-2.02083 12.50622,-11.13769 30.76172,-19.93945 19.76506,-9.52958 20.9641,-9.5482 35.08399,-14.67969 l 14.68554,-4.5 z m 176.52735,31.55469 0.35937,4.29687 -0.40234,-4.23828 z m -261.37891,0.002 0.041,0.0566 -0.38672,4.07031 z" /><ellipse
       style="fill:#c6c6c6;stroke:#878787;stroke-width:0.879984;stroke-opacity:0"
       id="path2"
       cx="308.92307"
       cy="277.47693"
       rx="31.015387"
       ry="33.107685" /><ellipse
       style="fill:#c6c6c6;stroke:#878787;stroke-width:0.879984;stroke-opacity:0"
       id="ellipse2"
       cx="199.61525"
       cy="277.47693"
       rx="31.015387"
       ry="33.107685" /><path
       style="fill:#0f75b2;fill-opacity:1;stroke:#878787;stroke-width:0.879984;stroke-opacity:0"
       d="m 218.39809,145.72927 c 0,0 32.37461,-5.91794 80.06624,0 47.69164,5.91794 -56.7426,31.15621 -56.7426,31.15621 z"
       id="path12" /></g></svg>
