<?xml version="1.0" encoding="UTF-8" standalone="no"?>
<!-- Created with Inkscape (http://www.inkscape.org/) -->

<svg
   version="1.1"
   id="svg1"
   width="512"
   height="512"
   viewBox="0 0 512 512"
   xml:space="preserve"
   sodipodi:docname="firefox.svg"
   inkscape:version="1.3 (0e150ed6c4, 2023-07-21)"
   xmlns:inkscape="http://www.inkscape.org/namespaces/inkscape"
   xmlns:sodipodi="http://sodipodi.sourceforge.net/DTD/sodipodi-0.dtd"
   xmlns:xlink="http://www.w3.org/1999/xlink"
   xmlns="http://www.w3.org/2000/svg"
   xmlns:svg="http://www.w3.org/2000/svg"><sodipodi:namedview
     id="namedview1"
     pagecolor="#505050"
     bordercolor="#eeeeee"
     borderopacity="1"
     inkscape:showpageshadow="0"
     inkscape:pageopacity="0"
     inkscape:pagecheckerboard="0"
     inkscape:deskcolor="#505050"
     inkscape:zoom="0.81249999"
     inkscape:cx="190.76923"
     inkscape:cy="315.07693"
     inkscape:window-width="1920"
     inkscape:window-height="1028"
     inkscape:window-x="0"
     inkscape:window-y="28"
     inkscape:window-maximized="1"
     inkscape:current-layer="layer5" /><defs
     id="defs1"><linearGradient
       id="linearGradient1"
       inkscape:collect="always"><stop
         style="stop-color:#c83ff9;stop-opacity:1;"
         offset="0"
         id="stop1" /><stop
         style="stop-color:#6d02d5;stop-opacity:1;"
         offset="1"
         id="stop2" /></linearGradient><linearGradient
       inkscape:collect="always"
       xlink:href="#linearGradient1"
       id="linearGradient2"
       x1="260.38391"
       y1="83.995346"
       x2="266.87808"
       y2="497.45111"
       gradientUnits="userSpaceOnUse" /></defs><g
     id="layer2"
     style="display:inline;fill:#161616;fill-opacity:1"><path
       id="path11"
       style="fill:#161616;fill-opacity:1;stroke-width:1.68464"
       d="m 388.48633,-5.2890625 a 116.70013,104.5648 0 0 1 -1.79102,-0.1152344 l -268.90234,-0.3398437 -0.36719,-0.3867188 a 104.30371,113.51506 0 0 1 -7.90039,0.359375 A 104.30371,113.51506 0 0 1 5.2226562,-119.28711 a 104.30371,113.51506 0 0 1 0.3066407,-4.67578 l -0.089844,-0.0957 -0.3046875,-277.09961 0.21875,-0.19336 a 113.76122,106.02679 0 0 1 113.5468746,-103.22071 113.76122,106.02679 0 0 1 3.15234,0.21094 l 1.04883,-0.92578 265.75586,-0.0879 a 113.8843,105.04218 0 0 1 2.3125,-0.15234 113.8843,105.04218 0 0 1 113.75586,103.375 l 0.1875,0.16796 0.0879,294.85157 -0.0879,0.0801 A 116.70013,104.5648 0 0 1 388.48633,-5.2890625 Z"
       transform="scale(1,-1)" /></g><g
     inkscape:groupmode="layer"
     id="g14"
     inkscape:label="fox"
     transform="matrix(0.86814558,0,0,0.86815393,70.776925,65.679122)"
     style="fill:#000000;fill-opacity:1;stroke-width:1.15188"><g
       id="g6"
       transform="matrix(1.0478654,0,0,1.0478623,-9.9397215,-8.7302491)"
       style="fill:#000000;fill-opacity:1;stroke-width:1.09926"><path
         style="fill:#000000;fill-opacity:1;stroke:#878787;stroke-width:1.09926;stroke-dasharray:none;stroke-opacity:0"
         d="m 434.35384,336.58462 c -0.24615,0.86154 5.78462,15.50769 2.21539,26.95384 -3.56923,11.44616 -26.83077,23.5077 -26.83077,23.5077 l -16.36923,-10.7077 -2.46154,-21.90769 20.67692,-11.32308 z"
         id="path4" /><path
         style="fill:#000000;fill-opacity:1;stroke:#878787;stroke-width:1.09926;stroke-dasharray:none;stroke-opacity:0"
         d="m 373.98461,418.58461 c 0.12308,0.36923 -1.84616,22.76923 -18.58462,27.81539 -16.73846,5.04615 -48,1.96923 -48.4923,2.09231 -0.49231,0.12308 -8.36924,-15.26154 -8.36924,-15.26154 0,0 26.21539,-8.98462 28.3077,-9.35385 2.0923,-0.36923 39.87692,-4.67692 40.86153,-4.67692 0.98462,0 6.27693,-0.61539 6.27693,-0.61539 z"
         id="path5" /><path
         style="fill:#000000;fill-opacity:1;stroke:#878787;stroke-width:1.09926;stroke-dasharray:none;stroke-opacity:0"
         d="m 455.28974,225.31686 c 0,0 10.79154,-2.95897 9.57314,7.48445 -1.2184,10.44342 -5.56983,36.20387 -5.56983,36.20387 L 430.64616,294.52308 400.86154,277.29231 440,241.35385 Z"
         id="path6" /></g><g
       id="g10"
       transform="matrix(1.0478654,0,0,1.0478623,-9.9397215,-8.7302491)"
       style="fill:#000000;fill-opacity:1;stroke-width:1.09926"><path
         id="path10"
         style="display:inline;fill:#000000;fill-opacity:1;stroke:#878787;stroke-width:1.09926;stroke-dasharray:none;stroke-opacity:0"
         d="m 328.91602,29.013672 c -3.9727,-0.383066 -11.95899,7.103516 -11.95899,7.103516 -83.54683,87.027902 17.88477,176.275392 17.88477,176.275392 48.73562,75.54021 -24.41016,132.0664 -24.41016,132.0664 -80.0657,40.72908 -123.92969,-13.57617 -123.92969,-13.57617 l -0.13867,-0.65429 0.13867,0.10937 c 38.0661,11.35305 60.15071,-3.67403 61.93555,-4.94531 0.4299,-0.34902 1.94024,-1.55682 4.31836,-3.27539 1.03599,-0.75916 1.98459,-1.45731 3.04687,-2.12305 2.90972,-1.95877 6.29531,-3.90973 9.60157,-5.42969 0.92991,-0.54258 2.05338,-1.07035 3.38672,-1.4707 4.22431,-1.43933 9.2602,-1.27943 12.63476,-1.04297 0.64161,-0.002 1.47797,0.0178 2.11914,0.11524 0.15527,0.0157 0.79353,0.0393 0.86133,0.0469 0.40033,-0.0317 0.75743,-0.13238 1.01563,-0.22851 1.25603,-0.59058 9.32134,-5.14075 -6.80665,-21.1543 -17.35371,-17.23063 -34.8457,-8.10742 -34.8457,-8.10742 0,0 -35.23166,16.15404 -56.92383,-8.35352 -13.67336,-15.44799 -12.32784,-24.55786 -9.48047,-29.23242 1.51334,-2.13106 5.0984,-5.17118 12.52344,-2.64844 2.4874,1.26627 4.65088,2.79223 5.45117,3.45117 0.16553,0.17694 0.35974,0.41884 0.58008,0.75782 0.27917,0.84623 0.61307,1.47433 0.98438,1.92187 0.002,0.005 0.006,0.0101 0.008,0.0156 l 0.004,-0.004 c 2.53399,3.02596 6.76171,-2.18555 6.76171,-2.18555 10.44752,-19.31575 -1.00519,-29.71137 -1.30468,-29.97851 l 1.91601,-1.69727 c -0.14299,-5.2014 -1.42551,-53.004 0.55469,-66.86523 2.08868,-14.62072 21.04883,-29.76367 21.04883,-29.76368 12.27095,-8.96387 -1.88086,-12.11718 -1.88086,-12.11718 -32.72251,-4.17736 -53.7832,21.06054 -53.7832,21.06054 l -9.36719,6.57813 9.36719,-6.64453 c -26.80465,-12.18397 -47.34375,-3.82813 -47.34375,-3.82813 -65.445025,18.79802 -89.421879,100.82227 -89.421879,100.82227 l 0.126953,-0.0898 c -0.0021,0.0221 -0.04,0.0624 -0.04102,0.084 -0.391621,8.31115 9.333985,1.31055 9.333984,1.31055 0,0 -7.147072,31.97262 -8.191406,46.1582 -1.044335,14.18558 9.185547,4.46289 9.185547,4.46289 3.938434,108.30693 89.363281,162.07617 89.363281,162.07617 145.51073,75.19217 225.00586,7.3086 225.00586,7.3086 0,0 -21.8694,5.42064 -38.05664,3.33203 -16.18716,-2.08869 -7.75781,-5.24414 -7.75781,-5.24414 126.71262,-20.8867 124.19922,-80.67188 124.19922,-80.67188 -3.44615,7.50763 -17.10742,16.36914 -17.10742,16.36914 0,0 -13.66175,7.38491 -7.13867,-1.47656 6.52301,-8.86147 24.75976,-32.04102 24.75976,-32.04102 40.03286,-52.91293 27.67578,-113.67968 27.67578,-113.67968 -2.61078,16.88339 -13.8271,45.90753 -23.57422,49.38867 -9.74713,3.48107 -5.4082,-2.41602 -5.4082,-2.41602 C 453.59157,270.52797 456,225.10742 456,225.10742 c 0,0 -5.41466,-40.36889 -27.56836,-65.96875 -22.15371,-25.5998 -37.25927,-60.58917 -41.34961,-71.554686 -4.09027,-10.965516 -5.83096,-11.140954 -9.66015,-9.40039 -3.82925,1.740556 -8.0293,12.435547 -8.0293,12.435547 0,0 -41.80686,-39.185677 -38.67383,-54.763672 0.97907,-4.868124 0.003,-6.667676 -1.80273,-6.841797 z" /></g><g
       id="g13"
       transform="matrix(1.0478654,0,0,1.0478623,-9.9397215,-8.7302491)"
       style="fill:#000000;fill-opacity:1;stroke-width:1.09926"><path
         style="display:inline;fill:#000000;fill-opacity:1;stroke:#878787;stroke-width:1.09926;stroke-dasharray:none;stroke-opacity:0"
         d="m 204.60407,147.29578 c 0,0 -2.43681,12.35805 15.83918,19.32034 18.276,6.96228 15.14296,1.91462 28.71942,4.00331 13.57645,2.08869 -10.61748,30.63404 -10.61748,30.63404 0,0 -17.4057,17.40571 -33.94112,15.83919 -16.53542,-1.56651 -13.05428,-62.31242 0,-69.79688 z"
         id="path12" /><path
         id="path13"
         style="display:inline;fill:#000000;fill-opacity:1;stroke:#878787;stroke-width:1.09926;stroke-dasharray:none;stroke-opacity:0"
         d="m 108.41424,76.418091 c -2.38882,-0.07061 -5.21484,3.121094 -5.21484,3.121094 C 60.860979,118.67761 72.775573,154.99036 72.775573,154.99036 l 2.212891,-1.40821 A 22.028068,56.226846 56.895557 0 1 94.365417,137.87903 22.028068,56.226846 56.895557 0 1 121.5119,123.99426 l 1.22656,-0.77929 c -15.3846,-21.16921 -11.19922,-41.75391 -11.19922,-41.75391 -0.41538,-3.784612 -1.69171,-5.000602 -3.125,-5.042969 z" /></g></g><g
     inkscape:groupmode="layer"
     id="layer5"
     inkscape:label="fox"
     transform="matrix(0.86814558,0,0,0.86815393,37.357949,35.045069)"
     style="stroke-width:1.15188"><g
       id="layer4"
       transform="matrix(1.0478654,0,0,1.0478623,-9.9397215,-8.7302491)"
       style="fill:#6d0496;fill-opacity:1;stroke-width:1.09926"><path
         style="fill:#6d0496;fill-opacity:1;stroke:#878787;stroke-width:1.09926;stroke-dasharray:none;stroke-opacity:0"
         d="m 434.35384,336.58462 c -0.24615,0.86154 5.78462,15.50769 2.21539,26.95384 -3.56923,11.44616 -26.83077,23.5077 -26.83077,23.5077 l -16.36923,-10.7077 -2.46154,-21.90769 20.67692,-11.32308 z"
         id="path8" /><path
         style="fill:#6d0496;fill-opacity:1;stroke:#878787;stroke-width:1.09926;stroke-dasharray:none;stroke-opacity:0"
         d="m 373.98461,418.58461 c 0.12308,0.36923 -1.84616,22.76923 -18.58462,27.81539 -16.73846,5.04615 -48,1.96923 -48.4923,2.09231 -0.49231,0.12308 -8.36924,-15.26154 -8.36924,-15.26154 0,0 26.21539,-8.98462 28.3077,-9.35385 2.0923,-0.36923 39.87692,-4.67692 40.86153,-4.67692 0.98462,0 6.27693,-0.61539 6.27693,-0.61539 z"
         id="path9" /><path
         style="fill:#6d0496;fill-opacity:1;stroke:#878787;stroke-width:1.09926;stroke-dasharray:none;stroke-opacity:0"
         d="m 455.28974,225.31686 c 0,0 10.79154,-2.95897 9.57314,7.48445 -1.2184,10.44342 -5.56983,36.20387 -5.56983,36.20387 L 430.64616,294.52308 400.86154,277.29231 440,241.35385 Z"
         id="path7" /></g><g
       id="layer3"
       transform="matrix(1.0478654,0,0,1.0478623,-9.9397215,-8.7302491)"
       style="fill:#0b7ef5;fill-opacity:1;stroke-width:1.09926"><path
         id="path3"
         style="display:inline;fill:url(#linearGradient2);fill-opacity:1;stroke:#878787;stroke-width:1.09926;stroke-dasharray:none;stroke-opacity:0"
         d="m 328.91602,29.013672 c -3.9727,-0.383066 -11.95899,7.103516 -11.95899,7.103516 -83.54683,87.027902 17.88477,176.275392 17.88477,176.275392 48.73562,75.54021 -24.41016,132.0664 -24.41016,132.0664 -80.0657,40.72908 -123.92969,-13.57617 -123.92969,-13.57617 l -0.13867,-0.65429 0.13867,0.10937 c 38.0661,11.35305 60.15071,-3.67403 61.93555,-4.94531 0.4299,-0.34902 1.94024,-1.55682 4.31836,-3.27539 1.03599,-0.75916 1.98459,-1.45731 3.04687,-2.12305 2.90972,-1.95877 6.29531,-3.90973 9.60157,-5.42969 0.92991,-0.54258 2.05338,-1.07035 3.38672,-1.4707 4.22431,-1.43933 9.2602,-1.27943 12.63476,-1.04297 0.64161,-0.002 1.47797,0.0178 2.11914,0.11524 0.15527,0.0157 0.79353,0.0393 0.86133,0.0469 0.40033,-0.0317 0.75743,-0.13238 1.01563,-0.22851 1.25603,-0.59058 9.32134,-5.14075 -6.80665,-21.1543 -17.35371,-17.23063 -34.8457,-8.10742 -34.8457,-8.10742 0,0 -35.23166,16.15404 -56.92383,-8.35352 -13.67336,-15.44799 -12.32784,-24.55786 -9.48047,-29.23242 1.51334,-2.13106 5.0984,-5.17118 12.52344,-2.64844 2.4874,1.26627 4.65088,2.79223 5.45117,3.45117 0.16553,0.17694 0.35974,0.41884 0.58008,0.75782 0.27917,0.84623 0.61307,1.47433 0.98438,1.92187 0.002,0.005 0.006,0.0101 0.008,0.0156 l 0.004,-0.004 c 2.53399,3.02596 6.76171,-2.18555 6.76171,-2.18555 10.44752,-19.31575 -1.00519,-29.71137 -1.30468,-29.97851 l 1.91601,-1.69727 c -0.14299,-5.2014 -1.42551,-53.004 0.55469,-66.86523 2.08868,-14.62072 21.04883,-29.76367 21.04883,-29.76368 12.27095,-8.96387 -1.88086,-12.11718 -1.88086,-12.11718 -32.72251,-4.17736 -53.7832,21.06054 -53.7832,21.06054 l -9.36719,6.57813 9.36719,-6.64453 c -26.80465,-12.18397 -47.34375,-3.82813 -47.34375,-3.82813 -65.445025,18.79802 -89.421879,100.82227 -89.421879,100.82227 l 0.126953,-0.0898 c -0.0021,0.0221 -0.04,0.0624 -0.04102,0.084 -0.391621,8.31115 9.333985,1.31055 9.333984,1.31055 0,0 -7.147072,31.97262 -8.191406,46.1582 -1.044335,14.18558 9.185547,4.46289 9.185547,4.46289 3.938434,108.30693 89.363281,162.07617 89.363281,162.07617 145.51073,75.19217 225.00586,7.3086 225.00586,7.3086 0,0 -21.8694,5.42064 -38.05664,3.33203 -16.18716,-2.08869 -7.75781,-5.24414 -7.75781,-5.24414 126.71262,-20.8867 124.19922,-80.67188 124.19922,-80.67188 -3.44615,7.50763 -17.10742,16.36914 -17.10742,16.36914 0,0 -13.66175,7.38491 -7.13867,-1.47656 6.52301,-8.86147 24.75976,-32.04102 24.75976,-32.04102 40.03286,-52.91293 27.67578,-113.67968 27.67578,-113.67968 -2.61078,16.88339 -13.8271,45.90753 -23.57422,49.38867 -9.74713,3.48107 -5.4082,-2.41602 -5.4082,-2.41602 C 453.59157,270.52797 456,225.10742 456,225.10742 c 0,0 -5.41466,-40.36889 -27.56836,-65.96875 -22.15371,-25.5998 -37.25927,-60.58917 -41.34961,-71.554686 -4.09027,-10.965516 -5.83096,-11.140954 -9.66015,-9.40039 -3.82925,1.740556 -8.0293,12.435547 -8.0293,12.435547 0,0 -41.80686,-39.185677 -38.67383,-54.763672 0.97907,-4.868124 0.003,-6.667676 -1.80273,-6.841797 z" /></g><g
       id="layer1"
       transform="matrix(1.0478654,0,0,1.0478623,-9.9397215,-8.7302491)"
       style="fill:#6d0496;fill-opacity:1;stroke-width:1.09926"><path
         style="display:inline;fill:#6d0496;fill-opacity:1;stroke:#878787;stroke-width:1.09926;stroke-dasharray:none;stroke-opacity:0"
         d="m 204.60407,147.29578 c 0,0 -2.43681,12.35805 15.83918,19.32034 18.276,6.96228 15.14296,1.91462 28.71942,4.00331 13.57645,2.08869 -10.61748,30.63404 -10.61748,30.63404 0,0 -17.4057,17.40571 -33.94112,15.83919 -16.53542,-1.56651 -13.05428,-62.31242 0,-69.79688 z"
         id="path1" /><path
         id="path2"
         style="display:inline;fill:#6d0496;fill-opacity:1;stroke:#878787;stroke-width:1.09926;stroke-dasharray:none;stroke-opacity:0"
         d="m 108.41424,76.418091 c -2.38882,-0.07061 -5.21484,3.121094 -5.21484,3.121094 C 60.860979,118.67761 72.775573,154.99036 72.775573,154.99036 l 2.212891,-1.40821 A 22.028068,56.226846 56.895557 0 1 94.365417,137.87903 22.028068,56.226846 56.895557 0 1 121.5119,123.99426 l 1.22656,-0.77929 c -15.3846,-21.16921 -11.19922,-41.75391 -11.19922,-41.75391 -0.41538,-3.784612 -1.69171,-5.000602 -3.125,-5.042969 z" /></g></g></svg>
