<?xml version="1.0" encoding="UTF-8" standalone="no"?>
<!-- Created with Inkscape (http://www.inkscape.org/) -->

<svg
   version="1.1"
   id="svg1"
   width="512"
   height="512"
   viewBox="0 0 512 512"
   sodipodi:docname="help-browser.svg"
   inkscape:version="1.3 (0e150ed6c4, 2023-07-21)"
   xml:space="preserve"
   xmlns:inkscape="http://www.inkscape.org/namespaces/inkscape"
   xmlns:sodipodi="http://sodipodi.sourceforge.net/DTD/sodipodi-0.dtd"
   xmlns:xlink="http://www.w3.org/1999/xlink"
   xmlns="http://www.w3.org/2000/svg"
   xmlns:svg="http://www.w3.org/2000/svg"><defs
     id="defs1"><linearGradient
       id="linearGradient3"
       inkscape:collect="always"><stop
         style="stop-color:#c72ef9;stop-opacity:1;"
         offset="0"
         id="stop3" /><stop
         style="stop-color:#8a5df5;stop-opacity:1;"
         offset="1"
         id="stop4" /></linearGradient><linearGradient
       inkscape:collect="always"
       xlink:href="#linearGradient3"
       id="linearGradient4"
       x1="174.4052"
       y1="94.513016"
       x2="232.88837"
       y2="289.45691"
       gradientUnits="userSpaceOnUse"
       gradientTransform="matrix(0.90306247,0,0,0.90246543,26.030588,9.7482637)" /></defs><sodipodi:namedview
     id="namedview1"
     pagecolor="#505050"
     bordercolor="#eeeeee"
     borderopacity="1"
     inkscape:showpageshadow="0"
     inkscape:pageopacity="0"
     inkscape:pagecheckerboard="0"
     inkscape:deskcolor="#505050"
     inkscape:zoom="1.1490485"
     inkscape:cx="180.14905"
     inkscape:cy="278.49129"
     inkscape:window-width="1920"
     inkscape:window-height="1028"
     inkscape:window-x="0"
     inkscape:window-y="28"
     inkscape:window-maximized="1"
     inkscape:current-layer="layer3" /><g
     inkscape:groupmode="layer"
     id="layer2"
     inkscape:label="background"
     style="display:inline;fill:#4b00ff;fill-opacity:1"><path
       id="path11"
       style="fill:#171717;fill-opacity:1;stroke-width:1.68464"
       d="M 388.48633 -5.2890625 A 116.70013 104.5648 0 0 1 386.69531 -5.4042969 L 117.79297 -5.7441406 L 117.42578 -6.1308594 A 104.30371 113.51506 0 0 1 109.52539 -5.7714844 A 104.30371 113.51506 0 0 1 5.2226562 -119.28711 A 104.30371 113.51506 0 0 1 5.5292969 -123.96289 L 5.4394531 -124.05859 L 5.1347656 -401.1582 L 5.3535156 -401.35156 A 113.76122 106.02679 0 0 1 118.90039 -504.57227 A 113.76122 106.02679 0 0 1 122.05273 -504.36133 L 123.10156 -505.28711 L 388.85742 -505.375 A 113.8843 105.04218 0 0 1 391.16992 -505.52734 A 113.8843 105.04218 0 0 1 504.92578 -402.15234 L 505.11328 -401.98438 L 505.20117 -107.13281 L 505.11328 -107.05273 A 116.70013 104.5648 0 0 1 388.48633 -5.2890625 z "
       transform="scale(1,-1)" /></g><g
     inkscape:groupmode="layer"
     id="layer3"
     inkscape:label="hello"
     transform="translate(-2.7849235,22.279282)"><path
       id="path1"
       style="fill:url(#linearGradient4);fill-opacity:1;stroke:#e2e2e2;stroke-width:16.7;stroke-linecap:round;stroke-linejoin:round;stroke-opacity:0"
       d="m 162.04888,69.372605 a 97.269698,97.310672 0 0 0 -97.269464,97.310435 97.269698,97.310672 0 0 0 34.891057,74.53248 l 135.290627,135.3476 0.002,-0.002 23.94501,23.95508 28.19789,-28.20768 -0.002,-0.005 131.74413,-131.79964 a 97.269698,97.310672 0 0 0 33.9423,-73.82153 97.269698,97.310672 0 0 0 -97.26947,-97.310435 97.269698,97.310672 0 0 0 -74.67717,35.142005 l -21.94182,21.95106 -22.6503,-22.6619 A 97.269698,97.310672 0 0 0 162.04888,69.371915 Z" /></g></svg>
