<?xml version="1.0" encoding="UTF-8" standalone="no"?>
<!-- Created with Inkscape (http://www.inkscape.org/) -->

<svg
   version="1.1"
   id="svg1"
   width="512"
   height="512"
   viewBox="0 0 512 512"
   xml:space="preserve"
   sodipodi:docname="obsidian.svg"
   inkscape:version="1.3 (0e150ed6c4, 2023-07-21)"
   xmlns:inkscape="http://www.inkscape.org/namespaces/inkscape"
   xmlns:sodipodi="http://sodipodi.sourceforge.net/DTD/sodipodi-0.dtd"
   xmlns:xlink="http://www.w3.org/1999/xlink"
   xmlns="http://www.w3.org/2000/svg"
   xmlns:svg="http://www.w3.org/2000/svg"><sodipodi:namedview
     id="namedview1"
     pagecolor="#505050"
     bordercolor="#eeeeee"
     borderopacity="1"
     inkscape:showpageshadow="0"
     inkscape:pageopacity="0"
     inkscape:pagecheckerboard="0"
     inkscape:deskcolor="#505050"
     inkscape:zoom="0.81249999"
     inkscape:cx="195.69231"
     inkscape:cy="190.76923"
     inkscape:window-width="1920"
     inkscape:window-height="1028"
     inkscape:window-x="0"
     inkscape:window-y="28"
     inkscape:window-maximized="1"
     inkscape:current-layer="svg1" /><defs
     id="defs1"><linearGradient
       id="linearGradient7"
       inkscape:collect="always"><stop
         style="stop-color:#6128cd;stop-opacity:1;"
         offset="0"
         id="stop7" /><stop
         style="stop-color:#c855e3;stop-opacity:1;"
         offset="1"
         id="stop8" /></linearGradient><linearGradient
       id="linearGradient5"
       inkscape:collect="always"><stop
         style="stop-color:#611d9f;stop-opacity:1;"
         offset="0"
         id="stop5" /><stop
         style="stop-color:#c03cdb;stop-opacity:1;"
         offset="1"
         id="stop6" /></linearGradient><linearGradient
       id="linearGradient3"
       inkscape:collect="always"><stop
         style="stop-color:#811ad7;stop-opacity:1;"
         offset="0"
         id="stop3" /><stop
         style="stop-color:#b557e4;stop-opacity:1;"
         offset="1"
         id="stop4" /></linearGradient><linearGradient
       id="linearGradient1"
       inkscape:collect="always"><stop
         style="stop-color:#5f1cdf;stop-opacity:1;"
         offset="0"
         id="stop1" /><stop
         style="stop-color:#c061e8;stop-opacity:1;"
         offset="1"
         id="stop2" /></linearGradient><linearGradient
       inkscape:collect="always"
       xlink:href="#linearGradient1"
       id="linearGradient2"
       x1="194.4184"
       y1="62.319309"
       x2="191.63348"
       y2="242.64241"
       gradientUnits="userSpaceOnUse" /><linearGradient
       inkscape:collect="always"
       xlink:href="#linearGradient3"
       id="linearGradient4"
       x1="253.85887"
       y1="91.99604"
       x2="280.31558"
       y2="260.48331"
       gradientUnits="userSpaceOnUse"
       gradientTransform="translate(-0.98460038)" /><linearGradient
       inkscape:collect="always"
       xlink:href="#linearGradient5"
       id="linearGradient6"
       x1="241.47694"
       y1="320.73846"
       x2="266.09232"
       y2="439.87692"
       gradientUnits="userSpaceOnUse"
       gradientTransform="translate(0,-0.98463794)" /><linearGradient
       inkscape:collect="always"
       xlink:href="#linearGradient7"
       id="linearGradient8"
       x1="132.18462"
       y1="250.83078"
       x2="151.87692"
       y2="379.8154"
       gradientUnits="userSpaceOnUse"
       gradientTransform="matrix(1.0125342,0,0,1.0016741,-1.3790388,-1.7042315)" /></defs><g
     id="layer2"
     style="display:inline;fill:#181818;fill-opacity:1"><path
       id="path11"
       style="fill:#181818;fill-opacity:1;stroke-width:1.68464"
       d="m 388.48633,-5.2890625 a 116.70013,104.5648 0 0 1 -1.79102,-0.1152344 l -268.90234,-0.3398437 -0.36719,-0.3867188 a 104.30371,113.51506 0 0 1 -7.90039,0.359375 A 104.30371,113.51506 0 0 1 5.2226562,-119.28711 a 104.30371,113.51506 0 0 1 0.3066407,-4.67578 l -0.089844,-0.0957 -0.3046875,-277.09961 0.21875,-0.19336 a 113.76122,106.02679 0 0 1 113.5468746,-103.22071 113.76122,106.02679 0 0 1 3.15234,0.21094 l 1.04883,-0.92578 265.75586,-0.0879 a 113.8843,105.04218 0 0 1 2.3125,-0.15234 113.8843,105.04218 0 0 1 113.75586,103.375 l 0.1875,0.16796 0.0879,294.85157 -0.0879,0.0801 A 116.70013,104.5648 0 0 1 388.48633,-5.2890625 Z"
       transform="scale(1,-1)" /></g><g
     inkscape:groupmode="layer"
     id="layer1"
     inkscape:label="new"
     style="fill:#000000;fill-opacity:1"
     transform="translate(55.559578,37.961924)"><path
       id="path8"
       style="fill:#000000;fill-opacity:1;stroke:#e2e2e2;stroke-width:16.7;stroke-linecap:round;stroke-linejoin:round;stroke-opacity:0"
       d="m 247.07992,36.01892 c -10.90017,0.113619 -17.91015,7.333985 -17.91015,7.333985 L 145.6307,118.75329 c -6.64615,6.64615 -7.01562,15.41993 -7.01562,15.41993 l -9.99414,67.16406 -46.710942,103.38476 c 0,0 -5.731584,15.09803 7.976563,28.16602 0,0 30.780929,32.85553 68.416019,70.58008 0,0 3.3171,3.79178 7.74609,5.41992 -0.0488,0.0947 -0.0917,0.18644 -0.14062,0.28125 0,0 8.29273,3.67596 17.27734,2.9375 l 41.96875,3.44726 c 0,0 12.15086,0.52217 72.72266,19.32032 0,0 35.01472,7.70999 38.70703,-36.59766 0,0 4.21642,-26.83045 13.8164,-41.35351 0,0 -0.16805,-0.44494 -0.1875,-0.50196 l 38.17188,-60.05273 c 5.41538,-7.87692 -0.0918,-14.50781 -0.0918,-14.50781 l -20.8457,-29.73829 c -28.06149,-40.86151 -25,-101.38476 -25,-101.38476 0,-10.33845 -5.75391,-16.89063 -5.75391,-16.89063 L 268.02133,47.477905 c -1.95874,-4.190524 -3.95899,-5.863281 -3.95899,-5.863281 -6.26922,-4.230765 -12.0278,-5.647348 -16.98242,-5.595704 z" /><path
       style="fill:url(#linearGradient2);fill-opacity:1;stroke:#e2e2e2;stroke-width:16.7;stroke-linecap:round;stroke-linejoin:round;stroke-opacity:0"
       d="m 218.13367,258.82973 c 0,0 -25.89098,-3.45939 -64.00948,6.98404 0,0 -3.41647,-45.81377 -61.016465,-81.75222 l 10.061265,-67.61049 c 0,0 0.3695,-8.77413 7.01566,-15.42028 l 83.53846,-75.400004 c 0,0 14.83077,-15.276921 34.89231,-1.73846 0,0 11.94986,9.729343 6.03192,42.800184 0,0 -0.69624,11.074373 -12.70617,31.613111 0,0 -19.69021,32.787999 -22.30106,63.704889 0,0 -6.09201,38.33605 18.49356,96.81923 z"
       id="path1" /><path
       style="fill:url(#linearGradient4);fill-opacity:1;stroke:#e2e2e2;stroke-width:16.7;stroke-linecap:round;stroke-linejoin:round;stroke-opacity:0"
       d="m 228.10775,24.13847 73.13846,91.98461 c 0,0 5.75385,6.55385 5.75385,16.89231 0,0 -3.06152,60.52306 25,101.38461 l 20.84615,29.73848 c 0,0 5.50769,6.63076 0.0923,14.50769 l -38.64384,60.79374 c 0,0 -31.09463,-76.17835 -96.07924,-80.11682 0,0 -16.27459,-34.54327 -19.58168,-71.26931 0,0 -3.27984,-16.05377 3.12015,-42.14608 6.4,-26.0923 20.15385,-49.230766 20.15385,-49.230766 0,0 17.96923,-26.8 12.55384,-57.076924 0,0 -1.97691,-12.86154 -6.35384,-15.46154 z"
       id="path2" /><path
       style="fill:url(#linearGradient8);fill-opacity:1;stroke:#e2e2e2;stroke-width:16.7;stroke-linecap:round;stroke-linejoin:round;stroke-opacity:0"
       d="M 124.86061,220.63661 77.972435,324.41454 c 0,0 -5.732456,15.09766 7.975705,28.16566 0,0 30.78104,32.85491 68.41616,70.57949 0,0 3.61397,4.17622 8.34951,5.65562 0,0 10.2967,-17.39831 15.03224,-30.71287 0,0 18.80199,-55.75473 8.58318,-96.19154 0,0 -4.0813,-47.09409 -61.46862,-81.27429 z"
       id="path4"
       transform="translate(-31.507662,-37.415377)" /><path
       style="fill:url(#linearGradient6);fill-opacity:1;stroke:#e2e2e2;stroke-width:16.7;stroke-linecap:round;stroke-linejoin:round;stroke-opacity:0"
       d="m 250.68567,295.9567 c 71.73182,8.0798 95.77587,80.65867 95.77587,80.65867 -9.59999,14.52308 -13.81538,41.35385 -13.81538,41.35385 -3.69231,44.30769 -38.70731,36.59697 -38.70731,36.59697 -60.57186,-18.79817 -72.72347,-19.32005 -72.72347,-19.32005 l -41.96923,-3.44616 c -8.98462,0.73846 -17.27693,-2.93846 -17.27693,-2.93846 39.38462,-76.30769 24.12309,-126.03077 24.12309,-126.03077 0,0 32.91497,-11.48656 64.59336,-6.87405 z"
       id="path5"
       transform="translate(-31.507662,-37.415377)" /></g></svg>
