<?xml version="1.0" encoding="UTF-8" standalone="no"?>
<!-- Created with Inkscape (http://www.inkscape.org/) -->

<svg
   version="1.1"
   id="svg1"
   width="512"
   height="512"
   viewBox="0 0 512 512"
   sodipodi:docname="diki.svg"
   inkscape:version="1.3 (0e150ed6c4, 2023-07-21)"
   xml:space="preserve"
   xmlns:inkscape="http://www.inkscape.org/namespaces/inkscape"
   xmlns:sodipodi="http://sodipodi.sourceforge.net/DTD/sodipodi-0.dtd"
   xmlns:xlink="http://www.w3.org/1999/xlink"
   xmlns="http://www.w3.org/2000/svg"
   xmlns:svg="http://www.w3.org/2000/svg"><defs
     id="defs1"><linearGradient
       id="linearGradient1"
       inkscape:collect="always"><stop
         style="stop-color:#7a2dff;stop-opacity:1;"
         offset="0"
         id="stop1" /><stop
         style="stop-color:#4be4ff;stop-opacity:1;"
         offset="1"
         id="stop2" /></linearGradient><linearGradient
       inkscape:collect="always"
       xlink:href="#linearGradient1"
       id="linearGradient2"
       x1="172.66463"
       y1="98.342239"
       x2="401.0275"
       y2="477.09039"
       gradientUnits="userSpaceOnUse"
       gradientTransform="matrix(0.77042813,0,0,0.77042813,64.744478,51.212708)" /></defs><sodipodi:namedview
     id="namedview1"
     pagecolor="#505050"
     bordercolor="#eeeeee"
     borderopacity="1"
     inkscape:showpageshadow="0"
     inkscape:pageopacity="0"
     inkscape:pagecheckerboard="0"
     inkscape:deskcolor="#505050"
     inkscape:zoom="1.1490485"
     inkscape:cx="172.31649"
     inkscape:cy="337.67069"
     inkscape:window-width="1920"
     inkscape:window-height="1028"
     inkscape:window-x="0"
     inkscape:window-y="28"
     inkscape:window-maximized="1"
     inkscape:current-layer="layer3" /><g
     inkscape:groupmode="layer"
     id="layer2"
     inkscape:label="background"
     style="display:inline;fill:#4b00ff;fill-opacity:1"><path
       id="path11"
       style="fill:#171717;fill-opacity:1;stroke-width:1.68464"
       d="M 388.48633 -5.2890625 A 116.70013 104.5648 0 0 1 386.69531 -5.4042969 L 117.79297 -5.7441406 L 117.42578 -6.1308594 A 104.30371 113.51506 0 0 1 109.52539 -5.7714844 A 104.30371 113.51506 0 0 1 5.2226562 -119.28711 A 104.30371 113.51506 0 0 1 5.5292969 -123.96289 L 5.4394531 -124.05859 L 5.1347656 -401.1582 L 5.3535156 -401.35156 A 113.76122 106.02679 0 0 1 118.90039 -504.57227 A 113.76122 106.02679 0 0 1 122.05273 -504.36133 L 123.10156 -505.28711 L 388.85742 -505.375 A 113.8843 105.04218 0 0 1 391.16992 -505.52734 A 113.8843 105.04218 0 0 1 504.92578 -402.15234 L 505.11328 -401.98438 L 505.20117 -107.13281 L 505.11328 -107.05273 A 116.70013 104.5648 0 0 1 388.48633 -5.2890625 z "
       transform="scale(1,-1)" /></g><g
     inkscape:groupmode="layer"
     id="layer3"
     inkscape:label="hello"
     transform="translate(-2.7849235,22.279282)"><path
       id="path4"
       style="fill:#000000;fill-opacity:1;stroke:#000000;stroke-width:16.7;stroke-linecap:round;stroke-linejoin:round;stroke-opacity:0"
       d="M 258.78491,4.5881361 A 229.13264,229.13264 0 0 0 29.652339,233.72073 229.13264,229.13264 0 0 0 258.78491,462.8533 229.13264,229.13264 0 0 0 487.91751,233.72073 229.13264,229.13264 0 0 0 258.78491,4.5881361 Z m 0,150.2513939 a 78.881751,78.881751 0 0 1 78.88124,78.8812 78.881751,78.881751 0 0 1 -78.88124,78.88123 78.881751,78.881751 0 0 1 -78.88123,-78.88123 78.881751,78.881751 0 0 1 78.88123,-78.8812 z" /><path
       id="path1"
       style="fill:url(#linearGradient2);fill-opacity:1;stroke:#000000;stroke-width:16.7;stroke-linecap:round;stroke-linejoin:round;stroke-opacity:0"
       d="M 258.78491,95.867514 A 137.85324,137.85324 0 0 0 120.93172,233.72072 137.85324,137.85324 0 0 0 258.78491,371.57392 137.85324,137.85324 0 0 0 396.63813,233.72072 137.85324,137.85324 0 0 0 258.78491,95.867514 Z m 0,90.395826 a 47.457685,47.457685 0 0 1 47.45738,47.45738 47.457685,47.457685 0 0 1 -47.45738,47.45735 47.457685,47.457685 0 0 1 -47.45735,-47.45735 47.457685,47.457685 0 0 1 47.45735,-47.45738 z" /><circle
       style="fill:#171717;fill-opacity:1;stroke:#000000;stroke-width:16.7;stroke-linecap:round;stroke-linejoin:round;stroke-opacity:0"
       id="path6"
       cx="258.78491"
       cy="233.72072"
       r="51.234989" /></g></svg>
