<?xml version="1.0" encoding="UTF-8" standalone="no"?>
<!-- Created with Inkscape (http://www.inkscape.org/) -->

<svg
   version="1.1"
   id="svg1"
   width="512"
   height="512"
   viewBox="0 0 512 512"
   xml:space="preserve"
   sodipodi:docname="preferences-system.svg"
   inkscape:version="1.3 (0e150ed6c4, 2023-07-21)"
   xmlns:inkscape="http://www.inkscape.org/namespaces/inkscape"
   xmlns:sodipodi="http://sodipodi.sourceforge.net/DTD/sodipodi-0.dtd"
   xmlns="http://www.w3.org/2000/svg"
   xmlns:svg="http://www.w3.org/2000/svg"><sodipodi:namedview
     id="namedview1"
     pagecolor="#505050"
     bordercolor="#eeeeee"
     borderopacity="1"
     inkscape:showpageshadow="0"
     inkscape:pageopacity="0"
     inkscape:pagecheckerboard="0"
     inkscape:deskcolor="#505050"
     inkscape:zoom="0.8125"
     inkscape:cx="144"
     inkscape:cy="316.30769"
     inkscape:window-width="1920"
     inkscape:window-height="1028"
     inkscape:window-x="0"
     inkscape:window-y="28"
     inkscape:window-maximized="1"
     inkscape:current-layer="svg1" /><defs
     id="defs1" /><g
     id="layer2"
     style="display:inline;fill:#b6b6b6;fill-opacity:0.67762232"
     transform="translate(0.8320273,0.59179375)"><path
       id="path11"
       style="fill:#b6b6b6;fill-opacity:0.67762232;stroke-width:1.68464"
       d="m 388.48633,-5.2890625 a 116.70013,104.5648 0 0 1 -1.79102,-0.1152344 l -268.90234,-0.3398437 -0.36719,-0.3867188 a 104.30371,113.51506 0 0 1 -7.90039,0.359375 A 104.30371,113.51506 0 0 1 5.2226562,-119.28711 a 104.30371,113.51506 0 0 1 0.3066407,-4.67578 l -0.089844,-0.0957 -0.3046875,-277.09961 0.21875,-0.19336 a 113.76122,106.02679 0 0 1 113.5468746,-103.22071 113.76122,106.02679 0 0 1 3.15234,0.21094 l 1.04883,-0.92578 265.75586,-0.0879 a 113.8843,105.04218 0 0 1 2.3125,-0.15234 113.8843,105.04218 0 0 1 113.75586,103.375 l 0.1875,0.16796 0.0879,294.85157 -0.0879,0.0801 A 116.70013,104.5648 0 0 1 388.48633,-5.2890625 Z"
       transform="scale(1,-1)" /></g><g
     inkscape:groupmode="layer"
     id="layer3"
     inkscape:label="Layer 1"
     transform="translate(0,-21.145223)"><path
       id="path2"
       style="fill:#5c5c5c;fill-opacity:1;stroke:#878787;stroke-width:1;stroke-opacity:0"
       d="M 255.85131,47.753722 A 43.397813,70.707733 0 0 0 226.67607,66.429218 L 50.449559,371.64933 l 0.108359,0.14206 a 43.396503,70.709867 52.586853 0 0 2.427257,36.26022 43.396503,70.709867 52.586853 0 0 34.316296,11.76731 l 0.166153,0.2167 H 424.91405 l 0.17577,-0.23597 a 70.709903,43.396481 36.789262 0 0 34.23444,-12.20314 70.709903,43.396481 36.789262 0 0 2.39595,-34.87327 L 283.90924,64.76056 A 43.397813,70.707733 0 0 0 255.85131,47.753722 Z" /><path
       id="path4"
       style="fill:#2c2c2c;fill-opacity:1;stroke:#878787;stroke-width:1;stroke-opacity:0"
       d="M 461.94103,150.24824 A 43.396256,70.710271 60.002622 0 0 431.17919,134.3207 l -352.454284,7.2e-4 -0.06879,0.16486 a 70.710617,43.396042 22.581784 0 0 -30.190148,20.23208 70.710617,43.396042 22.581784 0 0 6.96688,35.60101 l -0.104674,0.25223 168.723226,292.22322 0.29225,0.0343 a 43.397784,70.70778 6.7928782 0 0 27.68594,23.54491 43.397784,70.70778 6.7928782 0 0 31.40056,-15.36178 L 461.24094,183.04943 a 43.396256,70.710271 60.002622 0 0 0.70009,-32.80114 z" /><ellipse
       style="fill:#c6c6c6;fill-opacity:1;stroke:#878787;stroke-width:1;stroke-opacity:0"
       id="path5"
       cx="256"
       cy="268.78659"
       rx="51.502457"
       ry="51.499992" /></g></svg>
