<?xml version="1.0" encoding="UTF-8" standalone="no"?>
<!-- Created with Inkscape (http://www.inkscape.org/) -->

<svg
   version="1.1"
   id="svg1"
   width="512"
   height="512"
   viewBox="0 0 512 512"
   sodipodi:docname="pycharm.svg"
   xml:space="preserve"
   inkscape:version="1.3 (0e150ed6c4, 2023-07-21)"
   xmlns:inkscape="http://www.inkscape.org/namespaces/inkscape"
   xmlns:sodipodi="http://sodipodi.sourceforge.net/DTD/sodipodi-0.dtd"
   xmlns:xlink="http://www.w3.org/1999/xlink"
   xmlns="http://www.w3.org/2000/svg"
   xmlns:svg="http://www.w3.org/2000/svg"><sodipodi:namedview
     id="namedview1"
     pagecolor="#505050"
     bordercolor="#eeeeee"
     borderopacity="1"
     inkscape:showpageshadow="0"
     inkscape:pageopacity="0"
     inkscape:pagecheckerboard="0"
     inkscape:deskcolor="#505050"
     inkscape:zoom="0.57452426"
     inkscape:cx="-3.4811411"
     inkscape:cy="229.75531"
     inkscape:window-width="1920"
     inkscape:window-height="1028"
     inkscape:window-x="0"
     inkscape:window-y="28"
     inkscape:window-maximized="1"
     inkscape:current-layer="svg1" /><defs
     id="defs1"><inkscape:path-effect
       effect="powerstroke"
       id="path-effect6"
       is_visible="true"
       lpeversion="1.3"
       scale_width="1"
       interpolator_type="CentripetalCatmullRom"
       interpolator_beta="0.75"
       start_linecap_type="round"
       end_linecap_type="round"
       offset_points="2.9587096,18.461539"
       linejoin_type="spiro"
       miter_limit="4"
       not_jump="true"
       sort_points="true"
       message="&lt;b&gt;Ctrl + click&lt;/b&gt; on existing node and move it" /><inkscape:path-effect
       effect="simplify"
       id="path-effect5"
       is_visible="true"
       lpeversion="1.3"
       threshold="0.23446154"
       steps="1"
       smooth_angles="0"
       helper_size="0"
       simplify_individual_paths="false"
       simplify_just_coalesce="false"
       step="1" /><inkscape:path-effect
       effect="powerstroke"
       id="path-effect4"
       is_visible="true"
       lpeversion="1.3"
       scale_width="1"
       interpolator_type="CentripetalCatmullRom"
       interpolator_beta="0.75"
       start_linecap_type="round"
       end_linecap_type="round"
       offset_points="0,18.461539"
       linejoin_type="spiro"
       miter_limit="4"
       not_jump="true"
       sort_points="true"
       message="&lt;b&gt;Ctrl + click&lt;/b&gt; on existing node and move it" /><inkscape:path-effect
       effect="simplify"
       id="path-effect3"
       is_visible="true"
       lpeversion="1.3"
       threshold="0.23446154"
       steps="1"
       smooth_angles="0"
       helper_size="0"
       simplify_individual_paths="false"
       simplify_just_coalesce="false"
       step="1" /><inkscape:path-effect
       effect="powerstroke"
       id="path-effect2"
       is_visible="true"
       lpeversion="1.3"
       scale_width="1"
       interpolator_type="CentripetalCatmullRom"
       interpolator_beta="0.75"
       start_linecap_type="round"
       end_linecap_type="round"
       offset_points="4.0514538,18.461539"
       linejoin_type="spiro"
       miter_limit="4"
       not_jump="true"
       sort_points="true"
       message="&lt;b&gt;Ctrl + click&lt;/b&gt; on existing node and move it" /><inkscape:path-effect
       effect="simplify"
       id="path-effect1"
       is_visible="true"
       lpeversion="1.3"
       threshold="0.23446154"
       steps="1"
       smooth_angles="0"
       helper_size="0"
       simplify_individual_paths="false"
       simplify_just_coalesce="false"
       step="1" /><linearGradient
       id="linearGradient83"
       inkscape:collect="always"><stop
         style="stop-color:#25dcff;stop-opacity:0;"
         offset="0"
         id="stop84" /><stop
         style="stop-color:#ffffff;stop-opacity:0;"
         offset="1"
         id="stop85" /></linearGradient><linearGradient
       id="linearGradient14"
       inkscape:collect="always"><stop
         style="stop-color:#0067fe;stop-opacity:1;"
         offset="0"
         id="stop15" /><stop
         style="stop-color:#41ffdd;stop-opacity:1;"
         offset="1"
         id="stop16" /></linearGradient><linearGradient
       id="linearGradient8"
       inkscape:collect="always"><stop
         style="stop-color:#8cff3a;stop-opacity:1;"
         offset="0"
         id="stop9" /><stop
         style="stop-color:#8cff3a;stop-opacity:0;"
         offset="1"
         id="stop10" /></linearGradient><linearGradient
       inkscape:collect="always"
       xlink:href="#linearGradient8"
       id="linearGradient10"
       x1="16.274265"
       y1="244.26909"
       x2="40.120125"
       y2="-145.61882"
       gradientUnits="userSpaceOnUse" /><linearGradient
       inkscape:collect="always"
       xlink:href="#linearGradient14"
       id="linearGradient16"
       x1="35.768818"
       y1="-31.222696"
       x2="378.31357"
       y2="-393.78357"
       gradientUnits="userSpaceOnUse" /><linearGradient
       inkscape:collect="always"
       xlink:href="#linearGradient83"
       id="linearGradient85"
       x1="16.274265"
       y1="244.26909"
       x2="40.120125"
       y2="-145.61882"
       gradientUnits="userSpaceOnUse" /></defs><g
     id="layer2"
     style="display:inline;fill:url(#linearGradient10);fill-opacity:1;stroke:url(#linearGradient85)"><path
       id="path11"
       style="fill:url(#linearGradient16);fill-opacity:1;stroke-width:1.68464;stroke:url(#linearGradient85)"
       d="M 388.48633 -5.2890625 A 116.70013 104.5648 0 0 1 386.69531 -5.4042969 L 117.79297 -5.7441406 L 117.42578 -6.1308594 A 104.30371 113.51506 0 0 1 109.52539 -5.7714844 A 104.30371 113.51506 0 0 1 5.2226562 -119.28711 A 104.30371 113.51506 0 0 1 5.5292969 -123.96289 L 5.4394531 -124.05859 L 5.1347656 -401.1582 L 5.3535156 -401.35156 A 113.76122 106.02679 0 0 1 118.90039 -504.57227 A 113.76122 106.02679 0 0 1 122.05273 -504.36133 L 123.10156 -505.28711 L 388.85742 -505.375 A 113.8843 105.04218 0 0 1 391.16992 -505.52734 A 113.8843 105.04218 0 0 1 504.92578 -402.15234 L 505.11328 -401.98438 L 505.20117 -107.13281 L 505.11328 -107.05273 A 116.70013 104.5648 0 0 1 388.48633 -5.2890625 z "
       transform="scale(1,-1)" /></g><g
     inkscape:groupmode="layer"
     id="layer1"
     inkscape:label="Layer 1"><g
       id="g5"
       style="display:inline;fill:#000000;fill-opacity:1;stroke-width:1.22099"
       transform="matrix(0.81900452,0,0,0.81900452,47.016559,46.819134)"><ellipse
         style="fill:#000000;fill-opacity:1;stroke-width:2.05694"
         id="ellipse2"
         cx="109.52541"
         cy="-119.28624"
         rx="104.30371"
         ry="113.51506"
         transform="scale(1,-1)" /><ellipse
         style="fill:#000000;fill-opacity:1;stroke-width:2.08819"
         id="ellipse3"
         cx="-109.85475"
         cy="-388.48688"
         rx="104.5648"
         ry="116.70013"
         transform="matrix(0,-1,-1,0,0,0)" /><ellipse
         style="fill:#000000;fill-opacity:1;stroke-width:2.07611"
         id="ellipse4"
         cx="-398.54544"
         cy="-118.90063"
         rx="106.02679"
         ry="113.76122"
         transform="matrix(0,-1,-1,0,0,0)" /><ellipse
         style="fill:#000000;fill-opacity:1;stroke-width:2.06756"
         id="ellipse5"
         cx="-400.48523"
         cy="-391.17087"
         rx="105.04218"
         ry="113.8843"
         transform="matrix(0,-1,-1,0,0,0)" /><path
         style="fill:#000000;fill-opacity:1;stroke-width:1.22099"
         d="m 123.10186,505.28763 266.00269,0.087 116.00903,-103.38988 0.087,-294.85265 L 392.49866,5.395766 117.79312,5.7438815 5.4392829,124.05917 5.1346778,401.158 Z"
         id="path5" /></g><text
       xml:space="preserve"
       style="font-weight:600;font-size:214.802px;line-height:1;font-family:'Antipasto Pro';-inkscape-font-specification:'Antipasto Pro Semi-Bold';display:none;fill:#ffffff;fill-opacity:1;fill-rule:evenodd;stroke:#000000;stroke-width:5.978;stroke-linecap:round;stroke-linejoin:round;stroke-opacity:0"
       x="82.29631"
       y="244.80455"
       id="text1"
       transform="scale(0.99418601,1.005848)"><tspan
         sodipodi:role="line"
         id="tspan1"
         x="82.29631"
         y="244.80455"
         style="font-style:normal;font-variant:normal;font-weight:normal;font-stretch:normal;font-family:'Antipasto Pro';-inkscape-font-specification:'Antipasto Pro';fill:#ffffff;fill-opacity:1;stroke-width:5.978">PC</tspan><tspan
         sodipodi:role="line"
         x="82.29631"
         y="459.60657"
         id="tspan2"
         style="fill:#ffffff;fill-opacity:1;stroke-width:5.978" /></text><path
       style="fill:#f6e6f3;fill-opacity:1;fill-rule:evenodd;stroke:#ffffff;stroke-width:16.7;stroke-linecap:round;stroke-linejoin:round"
       d="m 99.324019,291.09098 c -0.776327,-0.38271 -1.853305,-1.40628 -2.393285,-2.27459 l -0.981782,-1.57875 V 223.0541 c 0,-59.96349 0.04937,-64.27376 0.75095,-65.55574 0.413022,-0.75471 1.415206,-1.78273 2.227075,-2.2845 1.446153,-0.89377 1.908663,-0.91229 22.775623,-0.91229 25.58512,0 27.20963,0.2096 35.84421,4.62473 7.4415,3.80508 12.90743,9.47454 16.72713,17.34997 2.7641,5.69899 3.63942,8.94917 3.99318,14.82721 1.05432,17.51844 -9.41557,33.24599 -25.95741,38.99242 -5.90515,2.05137 -7.26416,2.17802 -25.79199,2.40365 l -17.73206,0.21593 -0.002,27.26108 c -0.002,26.43479 -0.0278,27.30407 -0.86631,28.67927 -1.77071,2.90421 -5.49914,3.96071 -8.593705,2.43515 z m 45.968751,-72.62216 c 4.42101,-1.04213 8.53595,-3.43636 12.27902,-7.14441 5.19514,-5.14654 7.76157,-11.14179 7.77598,-18.16494 0.009,-4.34291 -0.65173,-7.13616 -2.70664,-11.44392 -3.17035,-6.64605 -9.24401,-11.53511 -17.08592,-13.7535 -2.19129,-0.61989 -5.35548,-0.76967 -19.6902,-0.93204 l -17.07935,-0.19347 v 26.15064 26.15064 l 16.86178,-0.006 c 13.48923,-0.005 17.41852,-0.13767 19.64533,-0.66257 z"
       id="path6" /><path
       style="fill:#f6e6f3;fill-opacity:1;fill-rule:evenodd;stroke:#ffffff;stroke-width:16.7;stroke-linecap:round;stroke-linejoin:round"
       d="m 267.73569,293.11397 c -5.21391,-0.49527 -10.05912,-1.54129 -15.27385,-3.29743 -23.63812,-7.96052 -40.63856,-27.33275 -46.12145,-52.556 -0.82059,-3.77499 -0.96125,-5.77326 -0.96943,-13.77129 -0.008,-8.14683 0.11898,-9.94588 0.98531,-13.92457 2.79777,-12.84884 8.17204,-23.67301 16.55951,-33.35203 9.60534,-11.08443 22.86219,-18.67701 38.34381,-21.96063 6.60988,-1.40194 18.1914,-1.41737 25.11981,-0.0335 12.51809,2.5004 23.9391,8.14093 33.18416,16.38875 3.98919,3.55889 5.65626,5.84159 5.65977,7.74987 0.008,4.19167 -4.75755,7.82082 -8.43386,6.42309 -0.68595,-0.2608 -2.64205,-1.71891 -4.3469,-3.24024 -8.99972,-8.03097 -18.30714,-12.60279 -29.36475,-14.424 -6.5058,-1.07152 -16.52578,-0.70486 -22.34942,0.81783 -19.09175,4.99186 -33.51313,18.41966 -39.72405,36.98721 -3.66178,10.94687 -3.81315,24.67345 -0.39274,35.61343 6.08284,19.45562 22.25991,34.33349 41.80796,38.45031 5.07032,1.06781 15.07192,1.30617 20.37958,0.48568 11.16974,-1.72668 19.52882,-5.56521 27.78005,-12.7567 5.18696,-4.52077 5.27315,-4.57723 7.34469,-4.81072 4.86505,-0.54836 8.27515,4.36795 6.30326,9.08735 -1.3416,3.2109 -11.79832,11.32361 -19.67086,15.26137 -10.78104,5.39257 -24.79564,8.00444 -36.8206,6.86219 z"
       id="path7" /></g><rect
     style="fill:#ffffff;fill-opacity:1;fill-rule:evenodd;stroke:#ffffff;stroke-width:16.7;stroke-linecap:round;stroke-linejoin:round;stroke-dasharray:none;stroke-opacity:1"
     id="rect80"
     width="186.58916"
     height="21.583065"
     x="94.723061"
     y="355.89713"
     rx="34.81144"
     ry="34.81144" /></svg>
