<?xml version="1.0" encoding="UTF-8" standalone="no"?>
<!-- Created with Inkscape (http://www.inkscape.org/) -->

<svg
   version="1.1"
   id="svg1"
   width="512"
   height="512"
   viewBox="0 0 512 512"
   sodipodi:docname="pycharm.svg"
   xml:space="preserve"
   inkscape:version="1.3 (0e150ed6c4, 2023-07-21)"
   xmlns:inkscape="http://www.inkscape.org/namespaces/inkscape"
   xmlns:sodipodi="http://sodipodi.sourceforge.net/DTD/sodipodi-0.dtd"
   xmlns:xlink="http://www.w3.org/1999/xlink"
   xmlns="http://www.w3.org/2000/svg"
   xmlns:svg="http://www.w3.org/2000/svg"><sodipodi:namedview
     id="namedview1"
     pagecolor="#505050"
     bordercolor="#eeeeee"
     borderopacity="1"
     inkscape:showpageshadow="0"
     inkscape:pageopacity="0"
     inkscape:pagecheckerboard="0"
     inkscape:deskcolor="#505050"
     inkscape:zoom="0.81249999"
     inkscape:cx="173.53846"
     inkscape:cy="276.92308"
     inkscape:window-width="1920"
     inkscape:window-height="1028"
     inkscape:window-x="0"
     inkscape:window-y="28"
     inkscape:window-maximized="1"
     inkscape:current-layer="svg1" /><defs
     id="defs1"><linearGradient
       id="linearGradient83"
       inkscape:collect="always"><stop
         style="stop-color:#25dcff;stop-opacity:0;"
         offset="0"
         id="stop84" /><stop
         style="stop-color:#ffffff;stop-opacity:0;"
         offset="1"
         id="stop85" /></linearGradient><linearGradient
       id="linearGradient14"
       inkscape:collect="always"><stop
         style="stop-color:#61fe00;stop-opacity:1;"
         offset="0"
         id="stop15" /><stop
         style="stop-color:#e8ff41;stop-opacity:1;"
         offset="1"
         id="stop16" /></linearGradient><linearGradient
       id="linearGradient8"
       inkscape:collect="always"><stop
         style="stop-color:#8cff3a;stop-opacity:1;"
         offset="0"
         id="stop9" /><stop
         style="stop-color:#8cff3a;stop-opacity:0;"
         offset="1"
         id="stop10" /></linearGradient><linearGradient
       inkscape:collect="always"
       xlink:href="#linearGradient8"
       id="linearGradient10"
       x1="5.1346778"
       y1="255.40868"
       x2="505.20058"
       y2="255.40868"
       gradientUnits="userSpaceOnUse" /><linearGradient
       inkscape:collect="always"
       xlink:href="#linearGradient14"
       id="linearGradient16"
       x1="35.768818"
       y1="-31.222696"
       x2="378.31357"
       y2="-393.78357"
       gradientUnits="userSpaceOnUse" /><linearGradient
       inkscape:collect="always"
       xlink:href="#linearGradient83"
       id="linearGradient85"
       x1="4.292028"
       y1="255.40821"
       x2="506.0436"
       y2="255.40821"
       gradientUnits="userSpaceOnUse" /></defs><g
     id="layer2"
     style="display:inline;fill:url(#linearGradient10);fill-opacity:1;stroke:url(#linearGradient85)"><path
       id="path11"
       style="fill:url(#linearGradient16);fill-opacity:1;stroke-width:1.68464;stroke:url(#linearGradient85)"
       d="M 388.48633 -5.2890625 A 116.70013 104.5648 0 0 1 386.69531 -5.4042969 L 117.79297 -5.7441406 L 117.42578 -6.1308594 A 104.30371 113.51506 0 0 1 109.52539 -5.7714844 A 104.30371 113.51506 0 0 1 5.2226562 -119.28711 A 104.30371 113.51506 0 0 1 5.5292969 -123.96289 L 5.4394531 -124.05859 L 5.1347656 -401.1582 L 5.3535156 -401.35156 A 113.76122 106.02679 0 0 1 118.90039 -504.57227 A 113.76122 106.02679 0 0 1 122.05273 -504.36133 L 123.10156 -505.28711 L 388.85742 -505.375 A 113.8843 105.04218 0 0 1 391.16992 -505.52734 A 113.8843 105.04218 0 0 1 504.92578 -402.15234 L 505.11328 -401.98438 L 505.20117 -107.13281 L 505.11328 -107.05273 A 116.70013 104.5648 0 0 1 388.48633 -5.2890625 z "
       transform="scale(1,-1)" /></g><g
     inkscape:groupmode="layer"
     id="layer1"
     inkscape:label="Layer 1"><g
       id="g5"
       style="display:inline;fill:#000000;fill-opacity:1;stroke-width:1.22099"
       transform="matrix(0.81900452,0,0,0.81900452,47.016559,46.819134)"><ellipse
         style="fill:#000000;fill-opacity:1;stroke-width:2.05694"
         id="ellipse2"
         cx="109.52541"
         cy="-119.28624"
         rx="104.30371"
         ry="113.51506"
         transform="scale(1,-1)" /><ellipse
         style="fill:#000000;fill-opacity:1;stroke-width:2.08819"
         id="ellipse3"
         cx="-109.85475"
         cy="-388.48688"
         rx="104.5648"
         ry="116.70013"
         transform="matrix(0,-1,-1,0,0,0)" /><ellipse
         style="fill:#000000;fill-opacity:1;stroke-width:2.07611"
         id="ellipse4"
         cx="-398.54544"
         cy="-118.90063"
         rx="106.02679"
         ry="113.76122"
         transform="matrix(0,-1,-1,0,0,0)" /><ellipse
         style="fill:#000000;fill-opacity:1;stroke-width:2.06756"
         id="ellipse5"
         cx="-400.48523"
         cy="-391.17087"
         rx="105.04218"
         ry="113.8843"
         transform="matrix(0,-1,-1,0,0,0)" /><path
         style="fill:#000000;fill-opacity:1;stroke-width:1.22099"
         d="m 123.10186,505.28763 266.00269,0.087 116.00903,-103.38988 0.087,-294.85265 L 392.49866,5.395766 117.79312,5.7438815 5.4392829,124.05917 5.1346778,401.158 Z"
         id="path5" /></g><text
       xml:space="preserve"
       style="font-weight:600;font-size:214.802px;line-height:1;font-family:'Antipasto Pro';-inkscape-font-specification:'Antipasto Pro Semi-Bold';fill:#ffffff;fill-opacity:1;fill-rule:evenodd;stroke:#000000;stroke-width:5.978;stroke-linecap:round;stroke-linejoin:round;stroke-opacity:0"
       x="82.29631"
       y="244.80455"
       id="text1"
       transform="scale(0.99418601,1.005848)"><tspan
         sodipodi:role="line"
         id="tspan1"
         x="82.29631"
         y="244.80455"
         style="fill:#ffffff;fill-opacity:1;stroke-width:5.978">PC</tspan><tspan
         sodipodi:role="line"
         x="82.29631"
         y="459.60654"
         id="tspan2"
         style="fill:#ffffff;fill-opacity:1;stroke-width:5.978" /></text></g><rect
     style="fill:#ffffff;fill-opacity:1;fill-rule:evenodd;stroke:#ffffff;stroke-width:16.7;stroke-linecap:round;stroke-linejoin:round;stroke-dasharray:none;stroke-opacity:1"
     id="rect80"
     width="186.58916"
     height="21.583065"
     x="94.723061"
     y="355.89713"
     rx="34.81144"
     ry="34.81144" /></svg>
