<?xml version="1.0" encoding="UTF-8" standalone="no"?>
<!-- Created with Inkscape (http://www.inkscape.org/) -->

<svg
   version="1.1"
   id="svg1"
   width="512"
   height="512"
   viewBox="0 0 512 512"
   xml:space="preserve"
   sodipodi:docname="software-store.svg"
   inkscape:version="1.3 (0e150ed6c4, 2023-07-21)"
   xmlns:inkscape="http://www.inkscape.org/namespaces/inkscape"
   xmlns:sodipodi="http://sodipodi.sourceforge.net/DTD/sodipodi-0.dtd"
   xmlns:xlink="http://www.w3.org/1999/xlink"
   xmlns="http://www.w3.org/2000/svg"
   xmlns:svg="http://www.w3.org/2000/svg"><sodipodi:namedview
     id="namedview1"
     pagecolor="#505050"
     bordercolor="#eeeeee"
     borderopacity="1"
     inkscape:showpageshadow="0"
     inkscape:pageopacity="0"
     inkscape:pagecheckerboard="0"
     inkscape:deskcolor="#505050"
     inkscape:zoom="0.81249998"
     inkscape:cx="288.00001"
     inkscape:cy="215.38462"
     inkscape:window-width="1920"
     inkscape:window-height="1028"
     inkscape:window-x="0"
     inkscape:window-y="28"
     inkscape:window-maximized="1"
     inkscape:current-layer="svg1" /><defs
     id="defs1"><linearGradient
       id="linearGradient1"
       inkscape:collect="always"><stop
         style="stop-color:#e01fe0;stop-opacity:1;"
         offset="0"
         id="stop3" /><stop
         style="stop-color:#2b0995;stop-opacity:1;"
         offset="1"
         id="stop2" /></linearGradient><linearGradient
       id="swatch1"
       inkscape:swatch="solid"><stop
         style="stop-color:#ba095a;stop-opacity:1;"
         offset="0"
         id="stop1" /></linearGradient><linearGradient
       inkscape:collect="always"
       xlink:href="#linearGradient1"
       id="linearGradient3"
       x1="260.38043"
       y1="-34.127708"
       x2="263.82822"
       y2="460.14926"
       gradientUnits="userSpaceOnUse" /></defs><path
     id="path11"
     style="display:inline;fill:#171717;fill-opacity:1;stroke:#474747;stroke-opacity:0;stroke-width:1.68464"
     d="M 505.18555 -159.78516 L 5.4003906 -159.78516 L 5.1347656 -401.1582 L 5.3535156 -401.35156 A 113.76122 106.02679 0 0 1 118.90039 -504.57227 A 113.76122 106.02679 0 0 1 122.05273 -504.36133 L 123.10156 -505.28711 L 388.85742 -505.375 A 113.8843 105.04218 0 0 1 391.16992 -505.52734 A 113.8843 105.04218 0 0 1 504.92578 -402.15234 L 505.11328 -401.98438 L 505.18555 -159.78516 z "
     transform="scale(1,-1)" /><path
     id="path1"
     style="display:inline;fill:url(#linearGradient3);fill-opacity:1;stroke:#474747;stroke-opacity:0;stroke-width:1.68464"
     d="M 388.48633 8.0742188 A 116.70013 104.5648 0 0 0 386.69531 8.1894531 L 117.79297 8.5292969 L 117.42578 8.9160156 A 104.30371 113.51506 0 0 0 109.52539 8.5566406 A 104.30371 113.51506 0 0 0 5.2226562 122.07227 A 104.30371 113.51506 0 0 0 5.5292969 126.74805 L 5.4394531 126.84375 L 5.4003906 162.57031 L 91.119141 162.57031 L 91.119141 265.36914 C 91.119141 292.07727 117.97678 313.57813 151.33984 313.57812 L 360.91602 313.57812 C 394.27909 313.57812 421.13672 292.07727 421.13672 265.36914 L 421.13672 162.57031 L 505.18555 162.57031 L 505.20117 109.91797 L 505.11328 109.83789 A 116.70013 104.5648 0 0 0 388.48633 8.0742188 z " /><path
     id="path2"
     style="fill:#171717;fill-opacity:1;fill-rule:evenodd;stroke:#ff7474;stroke-width:3.978;stroke-linecap:round;stroke-linejoin:round;stroke-dasharray:none;stroke-opacity:0"
     d="m 158.07364,161.23607 v 65.77086 c 0,16.86885 15.9736,30.44843 35.81634,30.44843 h 124.64477 c 19.84273,0 35.81632,-13.57958 35.81632,-30.44843 v -65.77086 z" /></svg>
