<?xml version="1.0" encoding="UTF-8" standalone="no"?>
<!-- Created with Inkscape (http://www.inkscape.org/) -->

<svg
   version="1.1"
   id="svg1"
   width="512"
   height="512"
   viewBox="0 0 512 512"
   sodipodi:docname="space-usage.svg"
   inkscape:version="1.3 (0e150ed6c4, 2023-07-21)"
   xml:space="preserve"
   xmlns:inkscape="http://www.inkscape.org/namespaces/inkscape"
   xmlns:sodipodi="http://sodipodi.sourceforge.net/DTD/sodipodi-0.dtd"
   xmlns:xlink="http://www.w3.org/1999/xlink"
   xmlns="http://www.w3.org/2000/svg"
   xmlns:svg="http://www.w3.org/2000/svg"><defs
     id="defs1"><linearGradient
       id="linearGradient1"
       inkscape:collect="always"><stop
         style="stop-color:#7a2dff;stop-opacity:1;"
         offset="0"
         id="stop1" /><stop
         style="stop-color:#a54bff;stop-opacity:1;"
         offset="1"
         id="stop2" /></linearGradient><linearGradient
       inkscape:collect="always"
       xlink:href="#linearGradient1"
       id="linearGradient2"
       x1="172.66463"
       y1="98.342239"
       x2="401.0275"
       y2="477.09039"
       gradientUnits="userSpaceOnUse"
       gradientTransform="matrix(1.1867705,0,0,1.1867705,-40.115737,-47.415326)" /></defs><sodipodi:namedview
     id="namedview1"
     pagecolor="#505050"
     bordercolor="#eeeeee"
     borderopacity="1"
     inkscape:showpageshadow="0"
     inkscape:pageopacity="0"
     inkscape:pagecheckerboard="0"
     inkscape:deskcolor="#505050"
     inkscape:zoom="0.81249999"
     inkscape:cx="296.61539"
     inkscape:cy="409.84616"
     inkscape:window-width="1920"
     inkscape:window-height="1028"
     inkscape:window-x="0"
     inkscape:window-y="28"
     inkscape:window-maximized="1"
     inkscape:current-layer="layer3" /><g
     inkscape:groupmode="layer"
     id="layer2"
     inkscape:label="background"
     style="display:inline;fill:#4b00ff;fill-opacity:1"><path
       id="path11"
       style="fill:#171717;fill-opacity:1;stroke-width:1.68464"
       d="M 388.48633 -5.2890625 A 116.70013 104.5648 0 0 1 386.69531 -5.4042969 L 117.79297 -5.7441406 L 117.42578 -6.1308594 A 104.30371 113.51506 0 0 1 109.52539 -5.7714844 A 104.30371 113.51506 0 0 1 5.2226562 -119.28711 A 104.30371 113.51506 0 0 1 5.5292969 -123.96289 L 5.4394531 -124.05859 L 5.1347656 -401.1582 L 5.3535156 -401.35156 A 113.76122 106.02679 0 0 1 118.90039 -504.57227 A 113.76122 106.02679 0 0 1 122.05273 -504.36133 L 123.10156 -505.28711 L 388.85742 -505.375 A 113.8843 105.04218 0 0 1 391.16992 -505.52734 A 113.8843 105.04218 0 0 1 504.92578 -402.15234 L 505.11328 -401.98438 L 505.20117 -107.13281 L 505.11328 -107.05273 A 116.70013 104.5648 0 0 1 388.48633 -5.2890625 z "
       transform="scale(1,-1)" /></g><g
     inkscape:groupmode="layer"
     id="layer3"
     inkscape:label="hello"
     transform="translate(-2.7849235,22.279282)"><path
       id="path1"
       style="fill:url(#linearGradient2);fill-opacity:1;stroke:#000000;stroke-width:16.7;stroke-linecap:round;stroke-linejoin:round;stroke-opacity:0"
       d="M 258.78492 21.371109 A 212.34966 212.34966 0 0 0 46.435314 233.72072 A 212.34966 212.34966 0 0 0 258.78492 446.07033 A 212.34966 212.34966 0 0 0 471.13453 233.72072 A 212.34966 212.34966 0 0 0 258.78492 21.371109 z M 258.78492 160.6172 A 73.104004 73.104004 0 0 1 331.88844 233.72072 A 73.104004 73.104004 0 0 1 258.78492 306.82423 A 73.104004 73.104004 0 0 1 185.68141 233.72072 A 73.104004 73.104004 0 0 1 258.78492 160.6172 z " /><path
       id="path4"
       style="fill:#ffffff;fill-opacity:1;stroke:#000000;stroke-width:16.7;stroke-linecap:round;stroke-linejoin:round;stroke-opacity:0"
       d="m 180.51433,301.05256 c -6.30754,0.15912 -14.41219,2.58928 -23.13783,6.89906 -35.00764,13.76653 -79.597636,43.66144 -90.886656,51.40126 a 36.043982,36.192169 0 0 0 -1.590695,1.09453 c -0.417385,0.29002 -1.210902,0.83701 -1.210902,0.83701 l 0.305809,-0.15601 a 36.043982,36.192169 0 0 0 -14.562876,28.94586 36.043982,36.192169 0 0 0 36.045893,36.19161 36.043982,36.192169 0 0 0 22.824627,-8.25362 c 0.003,0.008 0.10112,0.24021 0.10112,0.24021 0,0 71.7314,-70.24542 83.08607,-98.72894 2.49048,-6.03863 2.67652,-11.19849 -0.005,-14.58065 -2.19616,-2.77008 -6.0369,-4.01476 -10.96963,-3.89032 z" /></g></svg>
