<?xml version="1.0" encoding="UTF-8" standalone="no"?>
<svg
   width="64"
   height="64"
   version="1.1"
   id="svg9"
   sodipodi:docname="spotify-qt.svg"
   inkscape:version="1.3 (0e150ed6c4, 2023-07-21)"
   xmlns:inkscape="http://www.inkscape.org/namespaces/inkscape"
   xmlns:sodipodi="http://sodipodi.sourceforge.net/DTD/sodipodi-0.dtd"
   xmlns:xlink="http://www.w3.org/1999/xlink"
   xmlns="http://www.w3.org/2000/svg"
   xmlns:svg="http://www.w3.org/2000/svg">
  <defs
     id="defs9">
    <linearGradient
       id="linearGradient9"
       inkscape:collect="always">
      <stop
         style="stop-color:#1ed760;stop-opacity:1;"
         offset="0"
         id="stop9" />
      <stop
         style="stop-color:#1ed794;stop-opacity:1;"
         offset="1"
         id="stop10" />
    </linearGradient>
    <linearGradient
       inkscape:collect="always"
       xlink:href="#linearGradient9"
       id="linearGradient10"
       x1="18.776402"
       y1="9.4425936"
       x2="37.922676"
       y2="39.206348"
       gradientUnits="userSpaceOnUse" />
  </defs>
  <sodipodi:namedview
     id="namedview9"
     pagecolor="#505050"
     bordercolor="#eeeeee"
     borderopacity="1"
     inkscape:showpageshadow="0"
     inkscape:pageopacity="0"
     inkscape:pagecheckerboard="0"
     inkscape:deskcolor="#505050"
     inkscape:zoom="13"
     inkscape:cx="37.230769"
     inkscape:cy="40.923077"
     inkscape:window-width="1920"
     inkscape:window-height="1028"
     inkscape:window-x="0"
     inkscape:window-y="28"
     inkscape:window-maximized="1"
     inkscape:current-layer="svg9" />
  <path
     style="fill:url(#linearGradient10);fill-opacity:1"
     d="m21 4c-0.506681-3.431e-4 -0.994611 0.1916179-1.365234 0.5371094l-15 14c-0.4052278 0.378556-0.6351126 0.908352-0.6347656 1.462891v38c1.104e-4 1.104524 0.8954762 1.99989 2 2h37c0.506681 3.43e-4 0.994611-0.191618 1.365234-0.537109l15-14c0.405228-0.378556 0.635113-0.908352 0.634766-1.462891v-38c-1.1e-4 -1.1045238-0.895476-1.9998896-2-2z"
     id="path2" />
  <path
     style="fill:none;stroke:#3f3f3f;stroke-width:5;stroke-linecap:round"
     d="m 15.5,23.5 c 7.5,-3 23.5,-3 34,3"
     id="path5" />
  <path
     style="fill:none;stroke:#3f3f3f;stroke-width:4;stroke-linecap:round"
     d="m 17,32 c 7,-2 23,-1 29,3"
     id="path7" />
  <path
     style="fill:none;stroke:#3f3f3f;stroke-width:4;stroke-linecap:round"
     d="m 18,41 c 6,-1.5 18,-1.5 25,2"
     id="path9" />
</svg>
