<?xml version="1.0" encoding="UTF-8" standalone="no"?>
<!-- Created with Inkscape (http://www.inkscape.org/) -->

<svg
   version="1.1"
   id="svg1"
   width="512"
   height="512"
   viewBox="0 0 512 512"
   sodipodi:docname="spotify-qt.svg"
   inkscape:version="1.3 (0e150ed6c4, 2023-07-21)"
   xml:space="preserve"
   xmlns:inkscape="http://www.inkscape.org/namespaces/inkscape"
   xmlns:sodipodi="http://sodipodi.sourceforge.net/DTD/sodipodi-0.dtd"
   xmlns:xlink="http://www.w3.org/1999/xlink"
   xmlns="http://www.w3.org/2000/svg"
   xmlns:svg="http://www.w3.org/2000/svg"><defs
     id="defs1"><linearGradient
       id="linearGradient2"
       inkscape:collect="always"><stop
         style="stop-color:#07ff8e;stop-opacity:1;"
         offset="0"
         id="stop2" /><stop
         style="stop-color:#66f803;stop-opacity:1;"
         offset="1"
         id="stop3" /></linearGradient><linearGradient
       inkscape:collect="always"
       xlink:href="#linearGradient2"
       id="linearGradient3"
       x1="29.937809"
       y1="-5.9179292"
       x2="485.27112"
       y2="509.29095"
       gradientUnits="userSpaceOnUse"
       gradientTransform="matrix(1.1029455,0,0,1.1150443,-21.819943,-31.199885)" /></defs><sodipodi:namedview
     id="namedview1"
     pagecolor="#505050"
     bordercolor="#eeeeee"
     borderopacity="1"
     inkscape:showpageshadow="0"
     inkscape:pageopacity="0"
     inkscape:pagecheckerboard="0"
     inkscape:deskcolor="#505050"
     inkscape:zoom="0.57452425"
     inkscape:cx="41.773694"
     inkscape:cy="38.292552"
     inkscape:window-width="1920"
     inkscape:window-height="1028"
     inkscape:window-x="0"
     inkscape:window-y="28"
     inkscape:window-maximized="1"
     inkscape:current-layer="layer2" /><g
     inkscape:groupmode="layer"
     id="layer2"
     inkscape:label="background"
     style="display:inline;fill:#4b00ff;fill-opacity:1"><path
       id="rect2"
       style="fill:url(#linearGradient3);fill-opacity:1;stroke:#000000;stroke-width:16.7;stroke-linecap:round;stroke-linejoin:round;stroke-opacity:0"
       d="M 143.33108,23.355235 21.951053,144.74369 V 487.19978 H 412.37654 l 82.60244,-82.61035 V 23.355235 Z" /></g><path
     id="path2"
     style="fill:#171717;fill-opacity:1;stroke:#000000;stroke-width:16.7001;stroke-linecap:round;stroke-linejoin:round;stroke-opacity:0"
     d="m 229.00754,142.58935 c -57.59329,-0.2411 -91.25199,8.68011 -108.99127,14.46639 -23.652377,7.71501 -19.00643,28.28865 -19.00643,28.28865 7.04036,21.82342 28.203,14.39446 29.88293,14.35651 22.69791,-7.57686 43.92611,-8.8931 43.92611,-8.8931 99.25551,-7.28642 131.16003,2.8308 131.16003,2.8308 43.60383,4.24303 95.14199,31.38658 95.14199,31.38658 22.84722,15.30527 36.28517,-5.00022 36.28517,-5.00022 8.95968,-19.54833 -10.32933,-31.62788 -10.32933,-31.62788 -70.95714,-39.00372 -132.20052,-42.05703 -132.20052,-42.05703 -24.81388,-2.57168 -46.67092,-3.67033 -65.86868,-3.7507 z m -5.53627,86.50107 c -50.29137,-0.20609 -79.68192,7.41965 -95.17214,12.36591 -20.65364,6.59501 -16.59587,24.18247 -16.59587,24.18247 6.14773,18.65525 24.62459,12.30356 26.09155,12.27113 19.82018,-6.47693 38.35751,-7.60052 38.35751,-7.60052 86.67151,-6.22862 114.53185,2.41932 114.53185,2.41932 38.07555,3.62707 83.07851,26.83016 83.07851,26.83016 19.95057,13.08336 31.68598,-4.27422 31.68598,-4.27422 7.82373,-16.71043 -9.01959,-27.0348 -9.01959,-27.0348 -61.96091,-33.34146 -115.44092,-35.95163 -115.44092,-35.95163 -21.66788,-2.19835 -40.75309,-3.13912 -57.51688,-3.20782 z m 1.14172,82.01788 c -41.16368,-0.16234 -65.22104,5.84355 -77.89984,9.73978 -16.90507,5.19496 -13.58433,19.04867 -13.58433,19.04867 5.03194,14.69497 20.15595,9.69202 21.35665,9.66653 16.22288,-5.10195 31.39734,-5.98691 31.39734,-5.98691 70.94094,-4.90635 93.7439,1.90443 93.7439,1.90443 31.16497,2.85708 67.99917,21.13624 67.99917,21.13624 16.32963,10.30591 25.93646,-3.36723 25.93646,-3.36723 6.40375,-13.16302 -7.38457,-21.29782 -7.38457,-21.29782 -50.71522,-26.26345 -94.48711,-28.31879 -94.48711,-28.31879 -17.73523,-1.73166 -33.35645,-2.47078 -47.07767,-2.5249 z" /></svg>
