<?xml version="1.0" encoding="UTF-8" standalone="no"?>
<!-- Created with Inkscape (http://www.inkscape.org/) -->

<svg
   version="1.1"
   id="svg1"
   width="512"
   height="512"
   viewBox="0 0 512 512"
   sodipodi:docname="steam.svg"
   inkscape:version="1.3 (0e150ed6c4, 2023-07-21)"
   xmlns:inkscape="http://www.inkscape.org/namespaces/inkscape"
   xmlns:sodipodi="http://sodipodi.sourceforge.net/DTD/sodipodi-0.dtd"
   xmlns="http://www.w3.org/2000/svg"
   xmlns:svg="http://www.w3.org/2000/svg">
  <defs
     id="defs1" />
  <sodipodi:namedview
     id="namedview1"
     pagecolor="#505050"
     bordercolor="#eeeeee"
     borderopacity="1"
     inkscape:showpageshadow="0"
     inkscape:pageopacity="0"
     inkscape:pagecheckerboard="0"
     inkscape:deskcolor="#505050"
     inkscape:zoom="0.28726213"
     inkscape:cx="-302.85928"
     inkscape:cy="490.8409"
     inkscape:window-width="1920"
     inkscape:window-height="1028"
     inkscape:window-x="0"
     inkscape:window-y="28"
     inkscape:window-maximized="1"
     inkscape:current-layer="layer1" />
  <g
     inkscape:groupmode="layer"
     id="layer2"
     inkscape:label="background"
     style="display:inline;fill:#4b00ff;fill-opacity:1">
    <path
       id="path11"
       style="fill:#824cff;fill-opacity:1;stroke-width:1.68464"
       d="M 388.48633 -5.2890625 A 116.70013 104.5648 0 0 1 386.69531 -5.4042969 L 117.79297 -5.7441406 L 117.42578 -6.1308594 A 104.30371 113.51506 0 0 1 109.52539 -5.7714844 A 104.30371 113.51506 0 0 1 5.2226562 -119.28711 A 104.30371 113.51506 0 0 1 5.5292969 -123.96289 L 5.4394531 -124.05859 L 5.1347656 -401.1582 L 5.3535156 -401.35156 A 113.76122 106.02679 0 0 1 118.90039 -504.57227 A 113.76122 106.02679 0 0 1 122.05273 -504.36133 L 123.10156 -505.28711 L 388.85742 -505.375 A 113.8843 105.04218 0 0 1 391.16992 -505.52734 A 113.8843 105.04218 0 0 1 504.92578 -402.15234 L 505.11328 -401.98438 L 505.20117 -107.13281 L 505.11328 -107.05273 A 116.70013 104.5648 0 0 1 388.48633 -5.2890625 z "
       transform="scale(1,-1)" />
  </g>
  <g
     inkscape:groupmode="layer"
     id="layer1"
     inkscape:label="Image 1"
     transform="matrix(1.0703069,0,0,1.0703069,-20.678049,-18.261995)"
     style="stroke-width:0.934313">
    <path
       style="fill:#000000;fill-opacity:1;stroke:#000000;stroke-width:0.353126;stroke-linejoin:round"
       d="m 41.877492,310.31626 c 0,0 -9.683682,-36.47561 -5.915404,-74.15837 3.768277,-37.68275 5.915404,74.15837 5.915404,74.15837 z"
       id="path12" />
    <ellipse
       style="display:inline;fill:#824cff;fill-opacity:1;stroke-width:1.00359"
       id="path8"
       cx="258.58459"
       cy="256.24612"
       rx="223.50766"
       ry="220.55385" />
    <ellipse
       style="fill:#000000;fill-opacity:1;stroke-width:0.927631"
       id="path1"
       cx="332.86154"
       cy="200.12309"
       rx="41.230766"
       ry="40.492306" />
    <path
       style="fill:#000000;fill-opacity:1;stroke-width:0.934313"
       d="m 41.686664,310.03234 -2.251863,-10.0518 -1.74057,-10.09531 -0.815893,-5.35225 -0.652714,-5.7874 -0.522171,-5.96145 -0.337235,-4.60164 -0.217571,-5.04765 -0.08703,-4.96063 v -4.14473 l 0.08703,-2.69788 0.130543,-3.9598 0.217571,-3.82926 0.261085,-3.91628 0.271964,-3.64976 0.348115,0.17406 z"
       id="path9" />
    <path
       id="path3"
       style="fill:#000000;fill-opacity:1;stroke-width:0.96307"
       d="m 332.9707,118.66406 a 82.677109,81.806816 0 0 0 -82.67578,81.80664 82.677109,81.806816 0 0 0 82.67578,81.80664 82.677109,81.806816 0 0 0 82.67774,-81.80664 82.677109,81.806816 0 0 0 -82.67774,-81.80664 z m -0.082,25.24414 a 57.04285,56.814171 0 0 1 57.04297,56.81446 57.04285,56.814171 0 0 1 -57.04297,56.81445 57.04285,56.814171 0 0 1 -57.04101,-56.81445 57.04285,56.814171 0 0 1 57.04101,-56.81446 z" />
    <path
       style="fill:#000000;fill-opacity:1;stroke-width:0.934313"
       d="m 194.68282,277.14234 56.04637,-77.28133 79.02189,82.15493 -78.32566,52.56523 c -16.2597,-22.13258 -34.22043,-40.39336 -56.7426,-57.43883 z"
       id="path4"
       sodipodi:nodetypes="ccccc" />
    <path
       id="path5"
       style="display:inline;fill:#000000;fill-opacity:1;stroke-width:0.944674"
       d="m 189.63477,276.14062 a 62.138367,61.094021 0 0 0 -62.13868,61.09571 62.138367,61.094021 0 0 0 62.13868,61.09375 62.138367,61.094021 0 0 0 62.13867,-61.09375 62.138367,61.094021 0 0 0 -62.13867,-61.09571 z m -0.34766,12.88086 a 48.56192,47.517578 0 0 1 48.5625,47.51758 48.56192,47.517578 0 0 1 -48.5625,47.51758 48.56192,47.517578 0 0 1 -48.5625,-47.51758 48.56192,47.517578 0 0 1 48.5625,-47.51758 z" />
    <ellipse
       style="fill:#000000;fill-opacity:1;stroke-width:0.959604"
       id="path6"
       cx="189.24353"
       cy="336.93097"
       rx="33.2449"
       ry="33.941124" />
    <path
       id="path7"
       style="display:inline;fill:#000000;fill-opacity:1;stroke-width:0.934313"
       d="M 23.345307 222.91931 L 23.345307 303.40148 L 178.87714 369.18467 L 198.91922 304.469 L 23.345307 222.91931 z " />
  </g>
</svg>
