<?xml version="1.0" encoding="UTF-8" standalone="no"?>
<!-- Created with Inkscape (http://www.inkscape.org/) -->

<svg
   version="1.1"
   id="svg1"
   width="512"
   height="512"
   viewBox="0 0 512 512"
   sodipodi:docname="steam.svg"
   inkscape:version="1.3 (0e150ed6c4, 2023-07-21)"
   xmlns:inkscape="http://www.inkscape.org/namespaces/inkscape"
   xmlns:sodipodi="http://sodipodi.sourceforge.net/DTD/sodipodi-0.dtd"
   xmlns:xlink="http://www.w3.org/1999/xlink"
   xmlns="http://www.w3.org/2000/svg"
   xmlns:svg="http://www.w3.org/2000/svg">
  <defs
     id="defs1">
    <linearGradient
       id="linearGradient1"
       inkscape:collect="always">
      <stop
         style="stop-color:#0887ff;stop-opacity:1;"
         offset="0"
         id="stop1" />
      <stop
         style="stop-color:#7409fb;stop-opacity:1;"
         offset="1"
         id="stop2" />
    </linearGradient>
    <linearGradient
       inkscape:collect="always"
       xlink:href="#linearGradient1"
       id="linearGradient2"
       x1="243.08975"
       y1="64.223206"
       x2="230.0798"
       y2="408.98511"
       gradientUnits="userSpaceOnUse" />
  </defs>
  <sodipodi:namedview
     id="namedview1"
     pagecolor="#505050"
     bordercolor="#eeeeee"
     borderopacity="1"
     inkscape:showpageshadow="0"
     inkscape:pageopacity="0"
     inkscape:pagecheckerboard="0"
     inkscape:deskcolor="#505050"
     inkscape:zoom="1.1490485"
     inkscape:cx="157.52164"
     inkscape:cy="284.58329"
     inkscape:window-width="1920"
     inkscape:window-height="1028"
     inkscape:window-x="0"
     inkscape:window-y="28"
     inkscape:window-maximized="1"
     inkscape:current-layer="layer1" />
  <g
     inkscape:groupmode="layer"
     id="layer2"
     inkscape:label="background"
     style="display:inline;fill:#4b00ff;fill-opacity:1">
    <path
       id="path11"
       style="fill:#171717;fill-opacity:1;stroke-width:1.68464"
       d="M 388.48633 -5.2890625 A 116.70013 104.5648 0 0 1 386.69531 -5.4042969 L 117.79297 -5.7441406 L 117.42578 -6.1308594 A 104.30371 113.51506 0 0 1 109.52539 -5.7714844 A 104.30371 113.51506 0 0 1 5.2226562 -119.28711 A 104.30371 113.51506 0 0 1 5.5292969 -123.96289 L 5.4394531 -124.05859 L 5.1347656 -401.1582 L 5.3535156 -401.35156 A 113.76122 106.02679 0 0 1 118.90039 -504.57227 A 113.76122 106.02679 0 0 1 122.05273 -504.36133 L 123.10156 -505.28711 L 388.85742 -505.375 A 113.8843 105.04218 0 0 1 391.16992 -505.52734 A 113.8843 105.04218 0 0 1 504.92578 -402.15234 L 505.11328 -401.98438 L 505.20117 -107.13281 L 505.11328 -107.05273 A 116.70013 104.5648 0 0 1 388.48633 -5.2890625 z "
       transform="scale(1,-1)" />
  </g>
  <g
     inkscape:groupmode="layer"
     id="layer3"
     inkscape:label="hello"
     transform="translate(-2.7849235,22.279282)">
    <path
       style="fill:#000000;fill-opacity:1;stroke:#000000;stroke-width:0.377953;stroke-linejoin:round"
       d="m 51.992848,331.97356 c 0,0 -10.364511,-39.04009 -6.331297,-79.37221 4.033212,-40.33211 6.331297,79.37221 6.331297,79.37221 z"
       id="path2" />
    <ellipse
       style="fill:#000000;fill-opacity:1;stroke-width:0.99285"
       id="ellipse2"
       cx="363.43509"
       cy="214.03305"
       rx="44.129574"
       ry="43.339195" />
    <path
       style="fill:#000000;fill-opacity:1;stroke-width:1"
       d="m 51.788604,331.66968 -2.410185,-10.75851 -1.862944,-10.80508 -0.873256,-5.72855 -0.698604,-6.19429 -0.558883,-6.38059 -0.360945,-4.92516 -0.232868,-5.40254 -0.09315,-5.30939 v -4.43614 l 0.09315,-2.88756 0.139721,-4.2382 0.232868,-4.09848 0.279441,-4.19162 0.291085,-3.90637 0.37259,0.1863 z"
       id="path10" />
    <path
       id="path13"
       style="fill:#000000;fill-opacity:1;stroke-width:1.03078"
       d="m 363.55192,126.84689 a 88.48988,87.5584 0 0 0 -88.48846,87.55821 88.48988,87.5584 0 0 0 88.48846,87.55821 88.48988,87.5584 0 0 0 88.49055,-87.55821 88.48988,87.5584 0 0 0 -88.49055,-87.55821 z m -0.0878,27.01898 a 61.053356,60.808599 0 0 1 61.05349,60.80891 61.053356,60.808599 0 0 1 -61.05349,60.80889 61.053356,60.808599 0 0 1 -61.05138,-60.80889 61.053356,60.808599 0 0 1 61.05138,-60.80891 z" />
    <path
       style="fill:#000000;fill-opacity:1;stroke-width:1"
       d="m 215.54145,296.46729 59.98681,-82.71474 84.57768,87.93098 -83.8325,56.26093 c -17.40287,-23.68865 -36.62636,-43.23329 -60.73199,-61.47717 z"
       id="path14"
       sodipodi:nodetypes="ccccc" />
    <path
       id="path15"
       style="display:inline;fill:#000000;fill-opacity:1;stroke-width:1.01109"
       d="m 210.13848,295.39514 a 66.507123,65.389352 0 0 0 -66.50746,65.39116 66.507123,65.389352 0 0 0 66.50746,65.38906 66.507123,65.389352 0 0 0 66.50745,-65.38906 66.507123,65.389352 0 0 0 -66.50745,-65.39116 z m -0.3721,13.78647 a 51.976158,50.858392 0 0 1 51.97678,50.8584 51.976158,50.858392 0 0 1 -51.97678,50.85839 51.976158,50.858392 0 0 1 -51.97678,-50.85839 51.976158,50.858392 0 0 1 51.97678,-50.8584 z" />
    <ellipse
       style="fill:#000000;fill-opacity:1;stroke-width:1.02707"
       id="ellipse15"
       cx="209.71974"
       cy="360.45947"
       rx="35.582245"
       ry="36.327419" />
    <path
       id="path16"
       style="display:inline;fill:#000000;fill-opacity:1;stroke-width:1"
       d="m 32.157723,238.432 v 86.14063 l 166.466797,70.4082 21.45117,-69.26563 z" />
  </g>
  <g
     inkscape:groupmode="layer"
     id="layer1"
     inkscape:label="Image 1"
     transform="matrix(1.0703069,0,0,1.0703069,-20.678049,-18.261995)"
     style="stroke-width:0.934313">
    <path
       id="path12"
       style="fill:url(#linearGradient2);fill-opacity:1;stroke:#000000;stroke-width:0.353126;stroke-linejoin:round"
       d="M 332.97101 118.66329 A 82.677109 81.806816 0 0 0 250.2954 200.45934 L 195.22212 276.39769 A 62.138367 61.094021 0 0 0 189.6345 276.14039 A 62.138367 61.094021 0 0 0 157.32411 285.14956 L 38.100858 229.77336 C 37.752232 228.26695 37.382028 227.92849 36.989539 229.25693 L 23.345307 222.91931 L 23.345307 303.40148 L 128.56484 347.90536 A 62.138367 61.094021 0 0 0 189.6345 398.33081 A 62.138367 61.094021 0 0 0 251.77351 337.2356 A 62.138367 61.094021 0 0 0 251.70234 334.39434 L 329.70457 282.04553 A 82.677109 81.806816 0 0 0 332.97101 282.27728 A 82.677109 81.806816 0 0 0 415.64845 200.47029 A 82.677109 81.806816 0 0 0 332.97101 118.66329 z M 332.8889 143.90795 A 57.04285 56.814171 0 0 1 389.93117 200.72211 A 57.04285 56.814171 0 0 1 332.8889 257.53628 A 57.04285 56.814171 0 0 1 275.84845 200.72211 A 57.04285 56.814171 0 0 1 332.8889 143.90795 z M 332.86152 159.63066 A 41.230766 40.492306 0 0 0 291.63138 200.12357 A 41.230766 40.492306 0 0 0 332.86152 240.61466 A 41.230766 40.492306 0 0 0 374.09167 200.12357 A 41.230766 40.492306 0 0 0 332.86152 159.63066 z M 189.28778 289.02184 A 48.56192 47.517578 0 0 1 237.85008 336.53852 A 48.56192 47.517578 0 0 1 189.28778 384.05701 A 48.56192 47.517578 0 0 1 144.56127 354.67 L 174.86252 367.48576 A 33.2449 33.941124 0 0 0 177.25305 368.49671 L 178.87714 369.18467 L 178.89539 369.12263 A 33.2449 33.941124 0 0 0 189.24398 370.87264 A 33.2449 33.941124 0 0 0 222.48868 336.93085 A 33.2449 33.941124 0 0 0 198.859 304.44163 L 172.35156 292.12952 A 48.56192 47.517578 0 0 1 189.28778 289.02184 z " />
  </g>
</svg>
