<?xml version="1.0" encoding="UTF-8" standalone="no"?>
<!-- Created with Inkscape (http://www.inkscape.org/) -->

<svg
   version="1.1"
   id="svg1"
   width="512"
   height="512"
   viewBox="0 0 512 512"
   xml:space="preserve"
   sodipodi:docname="system_section.svg"
   inkscape:version="1.3 (0e150ed6c4, 2023-07-21)"
   xmlns:inkscape="http://www.inkscape.org/namespaces/inkscape"
   xmlns:sodipodi="http://sodipodi.sourceforge.net/DTD/sodipodi-0.dtd"
   xmlns="http://www.w3.org/2000/svg"
   xmlns:svg="http://www.w3.org/2000/svg"><sodipodi:namedview
     id="namedview1"
     pagecolor="#505050"
     bordercolor="#eeeeee"
     borderopacity="1"
     inkscape:showpageshadow="0"
     inkscape:pageopacity="0"
     inkscape:pagecheckerboard="0"
     inkscape:deskcolor="#505050"
     inkscape:zoom="0.8125"
     inkscape:cx="11.076923"
     inkscape:cy="439.38462"
     inkscape:window-width="1920"
     inkscape:window-height="1028"
     inkscape:window-x="0"
     inkscape:window-y="28"
     inkscape:window-maximized="1"
     inkscape:current-layer="svg1" /><defs
     id="defs1" /><path
     id="path2"
     style="fill:#5c5c5c;fill-opacity:1;stroke:#878787;stroke-width:1;stroke-opacity:0"
     d="M 255.83727,4.4306777 A 47.496722,77.384683 0 0 0 223.90644,24.869705 L 31.035389,358.91183 l 0.118594,0.15548 a 47.494757,77.387884 52.587935 0 0 2.65651,39.68428 47.494757,77.387884 52.587935 0 0 37.557459,12.8785 l 0.181846,0.23716 H 440.86793 l 0.19237,-0.25825 a 77.387938,47.494724 36.788187 0 0 37.46787,-13.35548 77.387938,47.494724 36.788187 0 0 2.62225,-38.16637 L 286.54526,23.043475 A 47.496722,77.384683 0 0 0 255.83727,4.4306777 Z" /><path
     id="path4"
     style="fill:#2c2c2c;fill-opacity:1;stroke:#878787;stroke-width:1;stroke-opacity:0"
     d="M 481.39206,116.60378 A 47.494386,77.388489 60.003593 0 0 447.72477,99.172201 l -385.743472,7.83e-4 -0.07529,0.180435 a 77.389009,47.494066 22.580989 0 0 -33.041597,22.142591 77.389009,47.494066 22.580989 0 0 7.624899,38.96283 l -0.11456,0.27605 184.65908,319.81793 0.31986,0.0375 a 47.496678,77.384754 6.7931416 0 0 30.30086,25.76826 47.496678,77.384754 6.7931416 0 0 34.36634,-16.8124 L 480.62585,152.5024 a 47.494386,77.388489 60.003593 0 0 0.76621,-35.89856 z" /><ellipse
     style="fill:#c6c6c6;fill-opacity:1;stroke:#878787;stroke-width:1;stroke-opacity:0"
     id="path5"
     cx="256"
     cy="246.33572"
     rx="56.366848"
     ry="56.363152" /></svg>
