<?xml version="1.0" encoding="UTF-8" standalone="no"?>
<!-- Created with Inkscape (http://www.inkscape.org/) -->

<svg
   version="1.1"
   id="svg1"
   width="512"
   height="512"
   viewBox="0 0 512 512"
   xml:space="preserve"
   sodipodi:docname="telegram.svg"
   inkscape:version="1.3 (0e150ed6c4, 2023-07-21)"
   xmlns:inkscape="http://www.inkscape.org/namespaces/inkscape"
   xmlns:sodipodi="http://sodipodi.sourceforge.net/DTD/sodipodi-0.dtd"
   xmlns:xlink="http://www.w3.org/1999/xlink"
   xmlns="http://www.w3.org/2000/svg"
   xmlns:svg="http://www.w3.org/2000/svg"><sodipodi:namedview
     id="namedview1"
     pagecolor="#505050"
     bordercolor="#eeeeee"
     borderopacity="1"
     inkscape:showpageshadow="0"
     inkscape:pageopacity="0"
     inkscape:pagecheckerboard="0"
     inkscape:deskcolor="#505050"
     inkscape:zoom="0.8125"
     inkscape:cx="76.307692"
     inkscape:cy="323.69231"
     inkscape:window-width="1920"
     inkscape:window-height="1028"
     inkscape:window-x="0"
     inkscape:window-y="28"
     inkscape:window-maximized="1"
     inkscape:current-layer="svg1" /><defs
     id="defs1"><linearGradient
       id="linearGradient4"
       inkscape:collect="always"><stop
         style="stop-color:#1477f7;stop-opacity:1;"
         offset="0"
         id="stop4" /><stop
         style="stop-color:#7f3cff;stop-opacity:1;"
         offset="1"
         id="stop5" /></linearGradient><linearGradient
       inkscape:collect="always"
       xlink:href="#linearGradient4"
       id="linearGradient5"
       x1="180.43082"
       y1="72.123047"
       x2="341.90768"
       y2="422.64609"
       gradientUnits="userSpaceOnUse" /></defs><g
     id="layer2"
     style="display:inline;fill:#171717;fill-opacity:1"><path
       id="path11"
       style="fill:#171717;fill-opacity:1;stroke-width:1.68464"
       d="M 388.48633 -5.2890625 A 116.70013 104.5648 0 0 1 386.69531 -5.4042969 L 117.79297 -5.7441406 L 117.42578 -6.1308594 A 104.30371 113.51506 0 0 1 109.52539 -5.7714844 A 104.30371 113.51506 0 0 1 5.2226562 -119.28711 A 104.30371 113.51506 0 0 1 5.5292969 -123.96289 L 5.4394531 -124.05859 L 5.1347656 -401.1582 L 5.3535156 -401.35156 A 113.76122 106.02679 0 0 1 118.90039 -504.57227 A 113.76122 106.02679 0 0 1 122.05273 -504.36133 L 123.10156 -505.28711 L 388.85742 -505.375 A 113.8843 105.04218 0 0 1 391.16992 -505.52734 A 113.8843 105.04218 0 0 1 504.92578 -402.15234 L 505.11328 -401.98438 L 505.20117 -107.13281 L 505.11328 -107.05273 A 116.70013 104.5648 0 0 1 388.48633 -5.2890625 z "
       transform="scale(1,-1)" /></g><circle
     style="fill:#000000;fill-opacity:1;stroke:#e2e2e2;stroke-width:16.7;stroke-linecap:round;stroke-linejoin:round;stroke-opacity:0"
     id="circle1"
     cx="269.78464"
     cy="275.69232"
     r="213.16924" /><circle
     style="fill:url(#linearGradient5);fill-opacity:1;stroke:#e2e2e2;stroke-width:16.7;stroke-linecap:round;stroke-linejoin:round;stroke-opacity:0"
     id="path4"
     cx="256"
     cy="256"
     r="213.16924" /><g
     inkscape:groupmode="layer"
     id="layer1"
     inkscape:label="arrow"
     transform="translate(-3.508866,-2.9998798)"><path
       style="fill:#fefefe;fill-opacity:1;stroke:#e2e2e2;stroke-width:16.7;stroke-linecap:round;stroke-linejoin:round;stroke-opacity:0"
       d="m 137.76616,240.67739 229.75531,-92.51132 c 0,0 27.6098,-11.13965 22.38809,15.14296 -5.22171,26.28261 -43.81726,204.13713 -43.81726,204.13713 0,0 -5.79999,11.86153 -23.15384,-1.67693 L 230.6256,296.85431 344.69824,194.96566 c 0,0 7.88638,-10.56566 -6.51362,-3.98104 l -141.5077,88.18462 -66.98461,-25.04616 c 0,0 -3.12563,-1.73491 0.35551,-6.82608 3.48114,-5.09117 7.71834,-6.61961 7.71834,-6.61961 z"
       id="path1" /><path
       style="fill:#ccd8e6;fill-opacity:1;stroke:#e2e2e2;stroke-width:16.7;stroke-linecap:round;stroke-linejoin:round;stroke-opacity:0"
       d="m 196.95382,278.78888 26.05505,81.24603 8.07427,-63.36041 115.11274,-102.71033 c 0,0 7.8103,-10.61181 -6.41284,-4.15312 z"
       id="path2" /><path
       style="fill:#abbdd5;fill-opacity:1;stroke:#e2e2e2;stroke-width:16.7;stroke-linecap:round;stroke-linejoin:round;stroke-opacity:0"
       d="M 222.7225,360.0154 269.83138,325.82419 230.95799,296.673 Z"
       id="path3" /></g></svg>
