<?xml version="1.0" encoding="UTF-8" standalone="no"?>
<!-- Created with Inkscape (http://www.inkscape.org/) -->

<svg
   version="1.1"
   id="svg1"
   width="512"
   height="512"
   viewBox="0 0 512 512"
   sodipodi:docname="utilities-terminal.svg"
   xml:space="preserve"
   inkscape:version="1.3 (0e150ed6c4, 2023-07-21)"
   xmlns:inkscape="http://www.inkscape.org/namespaces/inkscape"
   xmlns:sodipodi="http://sodipodi.sourceforge.net/DTD/sodipodi-0.dtd"
   xmlns="http://www.w3.org/2000/svg"
   xmlns:svg="http://www.w3.org/2000/svg"><sodipodi:namedview
     id="namedview1"
     pagecolor="#505050"
     bordercolor="#eeeeee"
     borderopacity="1"
     inkscape:showpageshadow="0"
     inkscape:pageopacity="0"
     inkscape:pagecheckerboard="0"
     inkscape:deskcolor="#505050"
     inkscape:zoom="0.8125"
     inkscape:cx="158.76923"
     inkscape:cy="354.46154"
     inkscape:window-width="1920"
     inkscape:window-height="1028"
     inkscape:window-x="0"
     inkscape:window-y="28"
     inkscape:window-maximized="1"
     inkscape:current-layer="svg1" /><defs
     id="defs1" /><g
     id="layer2"
     style="display:inline;fill:#3f3f3f;fill-opacity:1"
     transform="translate(0.8320274,0.59179375)"><path
       id="path11"
       style="fill:#3f3f3f;fill-opacity:1;stroke-width:1.68464"
       d="m 388.48633,-5.2890625 a 116.70013,104.5648 0 0 1 -1.79102,-0.1152344 l -268.90234,-0.3398437 -0.36719,-0.3867188 a 104.30371,113.51506 0 0 1 -7.90039,0.359375 A 104.30371,113.51506 0 0 1 5.2226562,-119.28711 a 104.30371,113.51506 0 0 1 0.3066407,-4.67578 l -0.089844,-0.0957 -0.3046875,-277.09961 0.21875,-0.19336 a 113.76122,106.02679 0 0 1 113.5468746,-103.22071 113.76122,106.02679 0 0 1 3.15234,0.21094 l 1.04883,-0.92578 265.75586,-0.0879 a 113.8843,105.04218 0 0 1 2.3125,-0.15234 113.8843,105.04218 0 0 1 113.75586,103.375 l 0.1875,0.16796 0.0879,294.85157 -0.0879,0.0801 A 116.70013,104.5648 0 0 1 388.48633,-5.2890625 Z"
       transform="scale(1,-1)" /></g><rect
     style="fill:#7e7e7e;fill-opacity:1;stroke-width:0.999996"
     id="rect2"
     width="403.83228"
     height="288.18076"
     x="25.662844"
     y="65.998672"
     ry="54.602673"
     rx="54.602673" /><rect
     style="fill:#262626;fill-opacity:0.80629361;stroke-width:0.999996"
     id="rect1"
     width="403.83228"
     height="288.18076"
     x="90.012703"
     y="158.5016"
     ry="54.602673"
     rx="54.602673" /><text
     xml:space="preserve"
     style="font-weight:600;font-size:115.533px;line-height:1;font-family:'Antipasto Pro';-inkscape-font-specification:'Antipasto Pro Semi-Bold';fill:#7e7e7e;fill-opacity:1;stroke-width:0.999996"
     x="107.69875"
     y="276.33942"
     id="text3"><tspan
       id="tspan3"
       x="107.69875"
       y="276.33942"
       style="stroke-width:0.999996">[#!]$</tspan></text></svg>
