<?xml version="1.0" encoding="UTF-8" standalone="no"?>
<!-- Created with Inkscape (http://www.inkscape.org/) -->

<svg
   version="1.1"
   id="svg1"
   width="512"
   height="512"
   viewBox="0 0 512 512"
   xml:space="preserve"
   sodipodi:docname="visualstudiocode.svg"
   inkscape:version="1.3 (0e150ed6c4, 2023-07-21)"
   xmlns:inkscape="http://www.inkscape.org/namespaces/inkscape"
   xmlns:sodipodi="http://sodipodi.sourceforge.net/DTD/sodipodi-0.dtd"
   xmlns:xlink="http://www.w3.org/1999/xlink"
   xmlns="http://www.w3.org/2000/svg"
   xmlns:svg="http://www.w3.org/2000/svg"><sodipodi:namedview
     id="namedview1"
     pagecolor="#505050"
     bordercolor="#eeeeee"
     borderopacity="1"
     inkscape:showpageshadow="0"
     inkscape:pageopacity="0"
     inkscape:pagecheckerboard="0"
     inkscape:deskcolor="#505050"
     inkscape:zoom="0.81249999"
     inkscape:cx="232.61539"
     inkscape:cy="292.92308"
     inkscape:window-width="1920"
     inkscape:window-height="1028"
     inkscape:window-x="0"
     inkscape:window-y="28"
     inkscape:window-maximized="1"
     inkscape:current-layer="layer1" /><defs
     id="defs1"><linearGradient
       id="swatch1"><stop
         style="stop-color:#000000;stop-opacity:1;"
         offset="0"
         id="stop1" /></linearGradient><linearGradient
       xlink:href="#swatch1"
       id="linearGradient1"
       x1="154.74224"
       y1="256.12177"
       x2="357.58452"
       y2="256.12177"
       gradientUnits="userSpaceOnUse"
       gradientTransform="matrix(1.1338971,0,0,1.1338971,-32.487289,-34.413039)" /></defs><g
     id="layer2-5"
     style="display:inline;fill:#161616;fill-opacity:1;stroke-width:0.992215"
     transform="matrix(1.0078462,0,0,1.0078462,0.7994758,-1.4099692)"><ellipse
       style="fill:#161616;fill-opacity:1;stroke-width:1.67153"
       id="path11-3"
       cx="109.52541"
       cy="-119.28624"
       rx="104.30371"
       ry="113.51506"
       transform="scale(1,-1)" /><ellipse
       style="fill:#161616;fill-opacity:1;stroke-width:1.69693"
       id="ellipse11-5"
       cx="-109.85475"
       cy="-388.48688"
       rx="104.5648"
       ry="116.70013"
       transform="matrix(0,-1,-1,0,0,0)" /><ellipse
       style="fill:#161616;fill-opacity:1;stroke-width:1.68711"
       id="ellipse12-6"
       cx="-398.54544"
       cy="-118.90063"
       rx="106.02679"
       ry="113.76122"
       transform="matrix(0,-1,-1,0,0,0)" /><ellipse
       style="fill:#161616;fill-opacity:1;stroke-width:1.68015"
       id="ellipse13-2"
       cx="-400.48523"
       cy="-391.17087"
       rx="105.04218"
       ry="113.8843"
       transform="matrix(0,-1,-1,0,0,0)" /><path
       style="fill:#161616;fill-opacity:1;stroke-width:0.992215"
       d="m 123.10186,505.28763 266.00269,0.087 116.00903,-103.38988 0.087,-294.85265 L 392.49866,5.395766 117.79312,5.7438815 5.4392829,124.05917 5.1346778,401.158 Z"
       id="path10-9" /></g><g
     inkscape:groupmode="layer"
     id="g6"
     inkscape:label="uppper"
     transform="matrix(0.8592532,0,0,0.85924341,87.607539,77.516488)"
     style="stroke-width:1.16381;fill:#000000;fill-opacity:1"><path
       style="display:inline;fill:#000000;fill-opacity:1;fill-rule:evenodd;stroke:#ff7474;stroke-width:4.62963;stroke-linecap:round;stroke-linejoin:round;stroke-opacity:0"
       d="m 438.62376,413.03742 -93.29459,43.86237 c 0,0 -13.36117,8.877 -26.65347,-4.16915 L 35.044924,193.99218 c 0,0 -9.353845,-8.06153 1.476924,-19.87692 l 26.092309,-23.63077 c 0,0 9.599994,-8.86154 19.446148,0.98461 L 425.75263,413.09988 Z"
       id="path4" /><path
       style="display:inline;fill:#000000;fill-opacity:1;fill-rule:evenodd;stroke:#ff7474;stroke-width:4.62963;stroke-linecap:round;stroke-linejoin:round;stroke-opacity:0"
       d="m 438.62376,93.229146 -93.29459,-43.86237 c 0,0 -13.36117,-8.877 -26.65347,4.16915 L 35.044924,312.27438 c 0,0 -9.353845,8.06153 1.476924,19.87692 l 26.092309,23.63077 c 0,0 9.599994,8.86154 19.446148,-0.98461 L 425.75263,93.166686 Z"
       id="path5" /><path
       id="path6"
       style="display:inline;fill:#000000;fill-opacity:1;fill-rule:evenodd;stroke:#ff7474;stroke-width:4.62963;stroke-linecap:round;stroke-linejoin:round;stroke-opacity:0"
       d="m 333.70117,46.210938 c -2.35748,0.02571 -4.83789,0.491766 -7.26367,1.6875 0,-10e-7 17.89947,6.370558 20.00977,26.199218 l -1.76758,154.990234 h 0.0469 c -0.22647,14.58968 -0.11133,48.71289 -0.11133,48.71289 l 0.0742,0.0508 1.75782,154.21485 c -2.1103,19.82866 -20.00977,26.19922 -20.00977,26.19921 9.70313,4.78294 20.29492,-2.11718 20.29492,-2.11718 v -0.0391 l 90.84766,-41.85352 c 0,0 9.81818,-4.08144 10.55664,-22.66602 l -0.43945,-114.51367 h -0.0195 v -47.98828 h 0.0195 L 448.13673,114.5742 C 447.39826,95.989649 437.58008,91.908203 437.58008,91.908203 l -87.16016,-40.154297 -3.6875,-1.734375 v -0.0039 c 0,0 -5.9588,-3.881831 -13.03125,-3.804687 z" /></g><g
     inkscape:groupmode="layer"
     id="layer1"
     inkscape:label="uppper"
     transform="matrix(0.8592532,0,0,0.85924341,50.011204,38.527691)"
     style="stroke-width:1.16381"><path
       style="display:inline;fill:#28469b;fill-opacity:1;fill-rule:evenodd;stroke:#ff7474;stroke-width:4.62963;stroke-linecap:round;stroke-linejoin:round;stroke-opacity:0"
       d="m 438.62376,413.03742 -93.29459,43.86237 c 0,0 -13.36117,8.877 -26.65347,-4.16915 L 35.044924,193.99218 c 0,0 -9.353845,-8.06153 1.476924,-19.87692 l 26.092309,-23.63077 c 0,0 9.599994,-8.86154 19.446148,0.98461 L 425.75263,413.09988 Z"
       id="path1" /><path
       style="display:inline;fill:#1f3986;fill-opacity:1;fill-rule:evenodd;stroke:#ff7474;stroke-width:4.62963;stroke-linecap:round;stroke-linejoin:round;stroke-opacity:0"
       d="m 438.62376,93.229146 -93.29459,-43.86237 c 0,0 -13.36117,-8.877 -26.65347,4.16915 L 35.044924,312.27438 c 0,0 -9.353845,8.06153 1.476924,19.87692 l 26.092309,23.63077 c 0,0 9.599994,8.86154 19.446148,-0.98461 L 425.75263,93.166686 Z"
       id="path2" /><path
       id="path3"
       style="display:inline;fill:#3062ef;fill-opacity:1;fill-rule:evenodd;stroke:#ff7474;stroke-width:4.62963;stroke-linecap:round;stroke-linejoin:round;stroke-opacity:0"
       d="m 333.70117,46.210938 c -2.35748,0.02571 -4.83789,0.491766 -7.26367,1.6875 0,-10e-7 17.89947,6.370558 20.00977,26.199218 l -1.76758,154.990234 h 0.0469 c -0.22647,14.58968 -0.11133,48.71289 -0.11133,48.71289 l 0.0742,0.0508 1.75782,154.21485 c -2.1103,19.82866 -20.00977,26.19922 -20.00977,26.19921 9.70313,4.78294 20.29492,-2.11718 20.29492,-2.11718 v -0.0391 l 90.84766,-41.85352 c 0,0 9.81818,-4.08144 10.55664,-22.66602 l -0.43945,-114.51367 h -0.0195 v -47.98828 h 0.0195 L 448.13673,114.5742 C 447.39826,95.989649 437.58008,91.908203 437.58008,91.908203 l -87.16016,-40.154297 -3.6875,-1.734375 v -0.0039 c 0,0 -5.9588,-3.881831 -13.03125,-3.804687 z" /></g></svg>
