<?xml version="1.0" encoding="UTF-8" standalone="no"?>
<!-- Created with Inkscape (http://www.inkscape.org/) -->

<svg
   version="1.1"
   id="svg1"
   width="24"
   height="24"
   viewBox="0 0 24 24"
   xml:space="preserve"
   sodipodi:docname="application-x-xz-compressed-tar.svg"
   inkscape:version="1.3 (0e150ed6c4, 2023-07-21)"
   xmlns:inkscape="http://www.inkscape.org/namespaces/inkscape"
   xmlns:sodipodi="http://sodipodi.sourceforge.net/DTD/sodipodi-0.dtd"
   xmlns:xlink="http://www.w3.org/1999/xlink"
   xmlns="http://www.w3.org/2000/svg"
   xmlns:svg="http://www.w3.org/2000/svg"><sodipodi:namedview
     id="namedview1"
     pagecolor="#505050"
     bordercolor="#eeeeee"
     borderopacity="1"
     inkscape:showpageshadow="0"
     inkscape:pageopacity="0"
     inkscape:pagecheckerboard="0"
     inkscape:deskcolor="#505050"
     inkscape:zoom="18.384776"
     inkscape:cx="7.2886391"
     inkscape:cy="19.146276"
     inkscape:window-width="1920"
     inkscape:window-height="1028"
     inkscape:window-x="0"
     inkscape:window-y="28"
     inkscape:window-maximized="1"
     inkscape:current-layer="svg1" /><defs
     id="defs1"><linearGradient
       id="linearGradient6"
       inkscape:collect="always"><stop
         style="stop-color:#f1d005;stop-opacity:1;"
         offset="0"
         id="stop6" /><stop
         style="stop-color:#44bd39;stop-opacity:1;"
         offset="1"
         id="stop7" /></linearGradient><linearGradient
       id="linearGradient159"
       inkscape:collect="always"><stop
         style="stop-color:#f1d005;stop-opacity:1;"
         offset="0"
         id="stop159" /><stop
         style="stop-color:#71c22b;stop-opacity:1;"
         offset="1"
         id="stop160" /></linearGradient><linearGradient
       inkscape:collect="always"
       xlink:href="#linearGradient159"
       id="linearGradient160"
       x1="282.52707"
       y1="17.847504"
       x2="282.21414"
       y2="479.75278"
       gradientUnits="userSpaceOnUse" /><linearGradient
       inkscape:collect="always"
       xlink:href="#linearGradient6"
       id="linearGradient7"
       x1="270.51126"
       y1="81.918129"
       x2="278.0303"
       y2="553.34369"
       gradientUnits="userSpaceOnUse" /></defs><g
     id="layer1"
     transform="matrix(0.04770193,0,0,0.04770193,-0.93093446,-0.14366826)"
     style="stroke-width:20.9636"><path
       id="rect1"
       style="fill:url(#linearGradient160);fill-opacity:1;stroke-width:20.9633;opacity:1;stroke:#000000;stroke-opacity:0;fill-rule:nonzero"
       d="m 130.61707,9.3535156 c -22.99578,0 -41.509278,20.2010524 -41.509278,45.2929684 V 457.35352 c 0,25.09191 18.513498,45.29296 41.509278,45.29296 h 284.24278 c 22.99578,0 41.50928,-20.20105 41.50928,-45.29296 V 118.66797 L 351.30717,9.3535156 Z" /><path
       id="path1"
       style="display:inline;fill:#161616;fill-opacity:1;stroke-width:20.9633"
       d="M 143.00385 25.080801 C 122.0134 25.080801 105.13031 44.006524 105.13031 67.499159 L 105.13031 444.51483 C 105.13031 468.00745 122.0134 486.93318 143.00385 486.93318 L 402.46826 486.93318 C 423.4587 486.93318 440.34179 468.00745 440.34179 444.51483 L 440.34179 127.40076 L 440.30084 127.35981 L 440.30084 118.63866 L 432.11197 118.63866 L 351.20592 32.287009 L 351.20592 25.080801 L 344.4501 25.080801 L 331.30696 25.080801 L 143.00385 25.080801 z " /><path
       id="rect2"
       style="display:inline;fill:#f0cf06;fill-opacity:1;stroke-width:20.9633;opacity:1;stroke:#000000;stroke-opacity:0;fill-rule:nonzero"
       d="m 456.3693,118.61921 -0.004,-0.002 L 351.29532,9.4242514 351.09052,83.526188 c -0.0694,25.091822 10.80197,35.092972 35.89389,35.092972 z" /><path
       id="rect3"
       style="fill:#161616;fill-opacity:1;stroke-width:20.9636"
       d="m 369.50419,28.314322 0.1442,44.81157 c 0.0578,17.969758 9.95669,27.414488 27.92652,27.436918 l 41.65592,0.052 z" /></g><g
     id="layer2"
     transform="matrix(0.04770193,0,0,0.04770193,-0.13247338,-0.14366826)"
     style="stroke-width:20.9636;fill-opacity:1;fill:url(#linearGradient7)"><path
       id="rect18"
       style="fill:url(#linearGradient7);fill-opacity:1;stroke-width:20.9636;opacity:1;stroke:#000000;stroke-opacity:0;fill-rule:nonzero"
       d="M 133.4715 79.168301 L 133.4715 112.66079 L 166.8821 112.66079 L 166.8821 141.85412 L 133.4715 141.85412 L 133.4715 175.30566 L 166.8821 175.30566 L 166.8821 205.19504 L 133.4715 205.19504 L 133.4715 238.68753 L 166.8821 238.68753 L 166.8821 269.35485 L 200.37459 269.35485 L 200.37459 235.90331 L 166.96399 235.90331 L 166.96399 207.32415 L 200.37459 207.32415 L 200.37459 173.87261 L 166.96399 173.87261 L 166.96399 144.67928 L 200.37459 144.67928 L 200.37459 111.18679 L 166.96399 111.18679 L 166.96399 79.168301 L 133.4715 79.168301 z M 127.49363 287.16565 L 127.49363 372.1252 L 151.73269 372.1252 L 151.73269 445.66127 L 188.17317 445.66127 L 188.17317 372.1252 L 212.45318 372.1252 L 212.45318 287.16565 L 127.49363 287.16565 z M 232.2293 288.63965 C 230.47298 288.63965 228.97797 289.19332 227.80731 290.35931 C 226.6365 291.48484 226.08765 292.929 226.08765 294.61752 C 226.08765 296.30571 226.63671 297.70985 227.80731 298.87574 C 228.97812 300.00127 230.47327 300.5954 232.2293 300.5954 L 248.89366 300.5954 L 248.89366 359.92378 C 248.89366 361.61239 249.44426 363.01537 250.53143 364.14105 C 251.66031 365.26658 253.07456 365.81977 254.83059 365.81977 C 256.58691 365.81977 258.08102 365.26658 259.29352 364.14105 C 260.50605 363.01552 261.09508 361.6123 261.09508 359.92378 L 261.09508 300.5954 L 277.88226 300.5954 C 278.76021 300.5954 279.54541 300.46582 280.29798 300.18596 C 281.05057 299.86438 281.71994 299.39815 282.26331 298.87574 C 282.84861 298.35312 283.28088 297.7569 283.57353 297.03324 C 283.90811 296.30937 284.06486 295.50269 284.06486 294.65847 C 284.06486 292.96986 283.47584 291.52522 282.26331 290.35931 C 281.0925 289.19332 279.63825 288.63965 277.88226 288.63965 L 232.2293 288.63965 z M 311.25192 288.63965 C 309.95574 288.63965 308.77511 288.93842 307.77165 289.58137 C 306.81005 290.22474 306.02205 291.15865 305.47876 292.32464 L 276.12166 357.34428 C 275.41057 358.91193 275.29265 360.48423 275.7941 362.01194 C 276.29576 363.49951 277.35697 364.56314 278.98776 365.24655 C 279.82399 365.56813 280.6492 365.77973 281.48537 365.81977 C 282.36332 365.81977 283.1894 365.69298 283.94203 365.45127 C 284.69462 365.16973 285.36279 364.74535 285.9483 364.22294 C 286.57511 363.66028 287.08814 362.97988 287.4223 362.17572 L 295.11984 344.36492 L 326.93361 344.36492 L 334.75398 362.29855 C 335.13006 363.06246 335.6419 363.66007 336.26892 364.22294 C 336.89573 364.74577 337.56334 365.17015 338.31614 365.45127 C 339.06873 365.73281 339.89564 365.86002 340.73186 365.81977 C 341.56809 365.81977 342.35333 365.60691 343.14757 365.24655 C 344.73619 364.56314 345.79855 363.49966 346.30029 362.01194 C 346.80195 360.48412 346.68361 358.91223 345.97273 357.34428 L 316.90224 292.2837 C 316.40058 291.11771 315.6139 290.18434 314.56841 289.58137 C 313.56489 288.938 312.4644 288.63965 311.25192 288.63965 z M 362.26859 288.63965 C 360.51269 288.63965 359.01814 289.19284 357.80565 290.31837 C 356.63484 291.4439 356.08599 292.84711 356.08599 294.53564 L 356.08599 359.92378 C 356.08599 361.61218 356.63505 363.01537 357.80565 364.14105 C 359.01818 365.26658 360.51256 365.81977 362.26859 365.81977 C 364.02449 365.81977 365.51902 365.26658 366.73152 364.14105 C 367.94405 363.01552 368.57402 361.6123 368.57402 359.92378 L 368.57402 334.16978 L 378.11406 334.16978 L 395.63824 362.78988 C 396.05625 363.51375 396.60785 364.10907 397.23507 364.59144 C 397.90402 365.03356 398.57086 365.37375 399.32324 365.61504 C 400.07582 365.81629 400.86267 365.90131 401.65706 365.81977 C 402.45179 365.73801 403.23824 365.526 403.99089 365.12371 C 404.74348 364.76188 405.33215 364.25263 405.83339 363.64972 C 406.37697 363.00635 406.81058 362.32616 407.06172 361.6025 C 407.31244 360.83859 407.3904 360.07249 407.30739 359.26867 C 407.22353 358.46451 406.94823 357.65842 406.4885 356.93484 L 391.6257 332.81861 C 393.92524 332.0547 396.0488 330.99179 397.97207 329.62495 C 399.93719 328.21788 401.62762 326.60189 403.04917 324.75257 C 404.47071 322.90296 405.53121 320.86227 406.28378 318.61092 C 407.07829 316.35954 407.47116 314.02012 407.47116 311.52754 C 407.47116 308.35151 406.8827 305.3347 405.62867 302.56073 C 404.37421 299.74651 402.64464 297.28202 400.42873 295.23169 C 398.25459 293.18125 395.65878 291.64803 392.69025 290.48214 C 389.76358 289.27611 386.61783 288.63965 383.27305 288.63965 L 362.26859 288.63965 z M 368.57402 300.51351 L 383.27305 300.51351 C 384.86166 300.51351 386.35539 300.81068 387.77693 301.37334 C 389.19846 301.89575 390.4576 302.66033 391.50286 303.62528 C 392.58982 304.59023 393.45507 305.73796 394.08236 307.06461 C 394.70937 308.35114 394.98313 309.71248 394.98313 311.19999 C 394.98313 312.6471 394.70937 314.04962 394.08236 315.37631 C 393.49706 316.70288 392.67185 317.85155 391.58475 318.85659 C 390.5393 319.86158 389.32131 320.6692 387.89976 321.2723 C 386.47822 321.87542 384.90277 322.13213 383.31399 322.13213 L 368.57402 322.13213 L 368.57402 300.51351 z M 145.22254 304.89456 L 194.72427 304.89456 L 194.72427 354.39629 L 145.22254 354.39629 L 145.22254 304.89456 z M 310.92436 307.80161 L 321.61084 332.36822 L 300.31977 332.36822 L 310.92436 307.80161 z M 286.03019 376.99758 C 281.30724 376.99758 276.903 378.0162 272.80516 379.94557 C 268.7073 381.87505 265.13998 384.50451 262.11868 387.80689 C 259.0974 391.10925 256.73073 394.9377 254.99437 399.3532 C 253.29297 403.73159 252.45582 408.42119 252.45582 413.35617 C 252.45582 418.36537 253.29884 423.06264 255.03531 427.44103 C 256.80631 431.81944 259.17929 435.59923 262.20057 438.8645 C 265.25659 442.12976 268.8711 444.71064 272.96894 446.60299 C 277.10151 448.49536 281.50573 449.42815 286.19397 449.42815 C 290.39597 449.42815 294.34578 448.69743 298.02689 447.17621 C 301.70801 445.65489 304.91153 443.58331 307.68976 440.91172 C 310.46796 438.20303 312.69675 434.96319 314.36369 431.2898 C 316.06508 427.61641 317.06238 423.63443 317.27074 419.2931 C 317.27074 417.66067 316.71579 416.36422 315.67391 415.36244 C 314.63202 414.3606 313.36554 413.80272 311.90703 413.76561 L 294.83323 413.68372 C 293.3748 413.68372 292.16153 414.24907 291.18918 415.36244 C 290.21689 416.4385 289.71518 417.73088 289.71518 419.25216 C 289.71518 420.81037 290.21647 422.10678 291.18918 423.18281 C 292.16168 424.22198 293.37459 424.7387 294.83323 424.7387 L 305.80632 424.7387 C 304.52104 429.11711 302.2019 432.47723 298.76389 434.85196 C 295.36057 437.18955 291.16624 438.37317 286.23491 438.37317 C 282.97054 438.37317 279.91106 437.74748 277.06338 436.44879 C 274.21576 435.15031 271.77085 433.34846 269.65245 431.08508 C 267.56889 428.82167 265.8727 426.14355 264.65723 423.10093 C 263.44177 420.05826 262.85568 416.7583 262.85568 413.23334 C 262.85568 409.67124 263.44834 406.40836 264.69818 403.36574 C 265.94844 400.32312 267.65692 397.68976 269.77528 395.46348 C 271.89366 393.20008 274.37331 391.44324 277.18621 390.18166 C 279.99913 388.88318 282.95187 388.21633 286.11208 388.21633 C 289.16814 388.21633 292.1965 388.83456 295.07889 390.05883 C 297.99601 391.24599 300.57878 393.05935 302.94021 395.54537 C 303.46115 396.10195 304.03495 396.55512 304.65987 396.81465 C 305.3196 397.03644 306.00601 397.1422 306.66615 397.1422 C 307.32608 397.10447 307.9654 396.91019 308.59053 396.65087 C 309.21566 396.35403 309.78925 395.98275 310.3102 395.46348 C 311.31707 394.38743 311.81878 393.09889 311.78419 391.61471 C 311.78419 390.1305 311.23518 388.88292 310.22831 387.80689 C 306.85975 384.24477 303.19551 381.52191 299.13239 379.74085 C 295.06926 377.92269 290.68367 376.99758 286.03019 376.99758 z M 328.89894 377.52985 C 328.16962 377.52985 327.47028 377.68528 326.81077 377.98024 C 326.18564 378.27708 325.61841 378.68931 325.13205 379.20857 C 324.64591 379.69094 324.26338 380.26034 323.98561 380.92824 C 323.70806 381.59613 323.57617 382.31897 323.57617 383.09829 C 323.57617 384.6565 324.07767 385.99385 325.05017 387.06989 C 326.05725 388.10884 327.27656 388.62577 328.73516 388.62577 L 363.57881 388.62577 L 323.98561 439.6015 C 323.49947 440.19519 323.17038 440.82089 322.962 441.52589 C 322.7901 442.2311 322.72164 442.94978 322.75728 443.65499 C 322.82646 444.32289 323.01919 444.99337 323.3305 445.66127 C 323.64307 446.32917 324.07884 446.89835 324.59978 447.38093 C 325.15552 447.93751 325.74161 448.34548 326.40133 448.56832 C 327.06126 448.79011 327.71287 448.84746 328.4076 448.77304 L 375.32984 448.77304 C 376.78827 448.77304 378.00154 448.2561 378.97389 447.21715 C 379.94638 446.1411 380.40694 444.80398 380.40694 443.24555 C 380.40694 441.68733 379.94617 440.39095 378.97389 439.31489 C 378.00139 438.23884 376.7885 437.67712 375.32984 437.67712 L 338.9303 437.67712 L 378.48256 386.82422 C 378.93411 386.23033 379.29779 385.60847 379.50616 384.94078 C 379.74934 384.23557 379.77965 383.51676 379.71089 382.81168 C 379.67525 382.10646 379.53023 381.4364 379.21955 380.8054 C 378.942 380.13751 378.55311 379.56448 378.03217 379.04479 L 377.37706 378.55346 C 376.54355 377.95957 375.59361 377.60406 374.5519 377.52985 L 328.89894 377.52985 z M 237.22451 436.20312 C 236.391 436.20312 235.57289 436.4055 234.8088 436.77634 C 234.07948 437.1105 233.44015 437.57476 232.88441 438.16845 C 232.32888 438.76235 231.8804 439.44009 231.53325 440.25661 C 231.22068 441.07314 231.08286 441.90453 231.08286 442.79516 C 231.08286 443.68569 231.22215 444.59941 231.53325 445.4156 C 231.88061 446.23213 232.32888 446.91008 232.88441 447.50376 C 233.44015 448.09766 234.07948 448.56213 234.8088 448.89587 C 235.57292 449.26693 236.39124 449.42815 237.22451 449.42815 C 238.09282 449.42815 238.86997 449.26672 239.59929 448.89587 C 240.36341 448.56171 241.04961 448.09766 241.60556 447.50376 C 242.1613 446.91008 242.56227 446.23213 242.87484 445.4156 C 243.2222 444.59907 243.44806 443.68578 243.44806 442.79516 C 243.44806 441.90463 243.22241 441.07283 242.87484 440.25661 C 242.56227 439.44009 242.16151 438.76235 241.60556 438.16845 C 241.05003 437.57476 240.36341 437.11029 239.59929 436.77634 C 238.86997 436.40529 238.09282 436.20312 237.22451 436.20312 z " /></g></svg>
