<?xml version="1.0" encoding="UTF-8" standalone="no"?>
<!-- Created with Inkscape (http://www.inkscape.org/) -->

<svg
   version="1.1"
   id="svg1"
   width="512"
   height="512"
   viewBox="0 0 512 512"
   xml:space="preserve"
   sodipodi:docname="image-jpeg.svg"
   inkscape:version="1.3 (0e150ed6c4, 2023-07-21)"
   xmlns:inkscape="http://www.inkscape.org/namespaces/inkscape"
   xmlns:sodipodi="http://sodipodi.sourceforge.net/DTD/sodipodi-0.dtd"
   xmlns:xlink="http://www.w3.org/1999/xlink"
   xmlns="http://www.w3.org/2000/svg"
   xmlns:svg="http://www.w3.org/2000/svg"><sodipodi:namedview
     id="namedview1"
     pagecolor="#505050"
     bordercolor="#eeeeee"
     borderopacity="1"
     inkscape:showpageshadow="0"
     inkscape:pageopacity="0"
     inkscape:pagecheckerboard="0"
     inkscape:deskcolor="#505050"
     inkscape:zoom="0.8125"
     inkscape:cx="100.92308"
     inkscape:cy="273.23077"
     inkscape:window-width="1920"
     inkscape:window-height="1028"
     inkscape:window-x="0"
     inkscape:window-y="28"
     inkscape:window-maximized="1"
     inkscape:current-layer="svg1" /><defs
     id="defs1"><linearGradient
       id="linearGradient24"
       inkscape:collect="always"><stop
         style="stop-color:#00d86c;stop-opacity:1;"
         offset="0"
         id="stop24" /><stop
         style="stop-color:#027bf7;stop-opacity:1;"
         offset="1"
         id="stop25" /></linearGradient><linearGradient
       id="linearGradient22"
       inkscape:collect="always"><stop
         style="stop-color:#00d86c;stop-opacity:1;"
         offset="0"
         id="stop22" /><stop
         style="stop-color:#0284ea;stop-opacity:1;"
         offset="1"
         id="stop23" /></linearGradient><linearGradient
       inkscape:collect="always"
       xlink:href="#linearGradient22"
       id="linearGradient23"
       x1="249.8644"
       y1="63.322674"
       x2="251.40776"
       y2="401.32407"
       gradientUnits="userSpaceOnUse" /><linearGradient
       inkscape:collect="always"
       xlink:href="#linearGradient24"
       id="linearGradient25"
       x1="248.61542"
       y1="12.799993"
       x2="239.54401"
       y2="540.43793"
       gradientUnits="userSpaceOnUse" /></defs><g
     id="layer1"
     transform="translate(-16.738546)"><path
       id="rect1"
       style="fill:url(#linearGradient25);fill-opacity:1;stroke-width:0.999989"
       d="m 130.61707,9.3535156 c -22.99578,0 -41.509278,20.2010524 -41.509278,45.2929684 V 457.35352 c 0,25.09191 18.513498,45.29296 41.509278,45.29296 h 284.24278 c 22.99578,0 41.50928,-20.20105 41.50928,-45.29296 V 118.66797 L 351.30717,9.3535156 Z" /><path
       id="path1"
       style="display:inline;fill:#181818;fill-opacity:1;stroke-width:0.999989"
       d="M 143.01003 25.074219 C 122.01958 25.074219 105.12136 43.987834 105.12136 67.480469 L 105.12136 444.51953 C 105.12136 468.01216 122.01958 486.92578 143.01003 486.92578 L 402.46706 486.92578 C 423.4575 486.92578 440.35573 468.01216 440.35573 444.51953 L 440.35573 127.42188 L 440.31472 127.37891 L 440.31472 118.61914 L 432.10769 118.61914 L 351.21901 32.292969 L 351.21901 25.091797 L 344.47097 25.091797 L 344.45534 25.074219 L 143.01003 25.074219 z " /><path
       id="rect2"
       style="display:inline;fill:#00d86c;fill-opacity:1;stroke-width:0.999992"
       d="m 456.3693,118.61921 -0.004,-0.002 L 351.29532,9.4242514 351.09052,83.526188 c -0.0694,25.091822 10.80197,35.092972 35.89389,35.092972 z" /><path
       id="rect3"
       style="fill:#181818;fill-opacity:1;stroke-width:1"
       d="m 369.50419,28.314322 0.1442,44.81157 c 0.0578,17.969758 9.95669,27.414488 27.92652,27.436918 l 41.65592,0.052 z" /></g><path
     id="path-1-3"
     style="fill:url(#linearGradient23);fill-opacity:1;fill-rule:nonzero;stroke:none;stroke-width:0.783751"
     d="M 168.35501 94.576604 A 34.726176 35.883705 0 0 0 133.62814 130.4592 A 34.726176 35.883705 0 0 0 168.35501 166.34334 A 34.726176 35.883705 0 0 0 203.08036 130.4592 A 34.726176 35.883705 0 0 0 168.35501 94.576604 z M 267.48106 145.17442 C 266.06576 145.23442 264.75695 145.47541 263.60058 145.79438 C 263.59658 145.79538 263.5913 145.79644 263.5868 145.79744 C 260.73953 146.58714 258.3862 147.91606 256.60959 149.07787 C 256.59749 149.08587 256.58495 149.09283 256.57285 149.10083 C 253.90514 150.86339 251.61369 152.88407 249.63696 154.82282 L 249.61553 154.84425 C 247.7052 156.73047 245.88516 158.74422 244.18286 160.88158 C 244.16866 160.89938 244.154 160.91715 244.14 160.93515 C 239.88598 166.35837 236.33132 172.13781 233.17208 177.87151 C 227.98035 187.29712 223.75959 196.74841 219.15183 205.51249 C 217.56292 208.51145 215.94205 211.4925 214.28401 214.45061 C 213.05495 216.64762 211.77835 218.82962 210.44792 221.09718 C 209.29544 223.06082 208.17063 225.08297 207.1032 227.16665 C 205.25402 230.77084 203.53859 234.41722 201.90626 237.89423 C 201.19474 239.38737 200.52812 240.90323 199.91015 242.43907 C 198.3313 246.35237 197.0452 250.055 195.70208 253.40392 C 195.08578 254.9402 194.4777 256.36457 193.84986 257.70995 C 192.87217 255.5095 191.90091 253.30362 190.90773 251.08328 C 188.60961 245.93806 186.30609 240.89094 183.77897 235.89659 C 183.77497 235.88759 183.7692 235.87907 183.7652 235.87057 C 182.46565 233.32192 181.07351 230.68676 179.44385 228.08817 C 179.43115 228.06797 179.41839 228.04714 179.40559 228.02694 C 178.66866 226.87188 177.62201 225.26748 176.21088 223.72703 C 176.17128 223.68383 176.13188 223.64238 176.09149 223.59997 C 175.86123 223.35802 175.38906 222.86439 174.78268 222.35393 C 174.16029 221.83 173.29796 221.20135 172.18651 220.67163 C 170.44021 219.82433 168.68786 219.59242 167.20541 219.67357 C 165.82239 219.74927 164.61305 220.09442 163.62036 220.5262 C 160.89517 221.65328 158.98981 223.43924 157.79122 224.8751 C 156.05001 226.95674 154.97447 229.25191 154.52151 230.20674 C 154.01289 231.28042 153.67791 232.06 153.41477 232.62688 C 153.14104 233.2166 152.94937 233.59157 152.78716 233.87292 C 149.33176 239.528 146.51402 244.81263 144.42154 248.94021 C 137.82101 261.95771 131.58582 277.29747 129.43538 282.50983 A 9.231024 9.231024 0 0 0 146.50185 289.55134 C 148.73757 284.13225 154.68119 269.53141 160.88795 257.29052 C 162.64017 253.83413 164.96913 249.53073 167.67535 244.99544 C 169.85124 249.34161 171.90328 253.80582 174.05251 258.61769 C 175.30177 261.41051 176.57224 264.34229 177.94524 267.3859 C 177.95124 267.3984 177.95638 267.41024 177.96208 267.42264 C 178.21817 267.98365 178.64761 268.94085 179.16373 269.90401 C 179.66854 270.89717 180.2722 272.26391 181.15678 273.94216 C 181.15978 273.94716 181.16396 273.95216 181.16596 273.95746 C 181.68964 274.94634 182.56354 276.56752 183.83408 278.14563 C 183.85758 278.17473 183.88223 278.20408 183.90603 278.23288 C 184.22021 278.61355 184.73021 279.20642 185.40464 279.82028 C 186.07995 280.43496 187.01822 281.16142 188.23962 281.76435 C 189.34489 282.31083 190.60305 282.70043 191.96396 282.83742 C 193.29318 282.9712 194.79728 282.87121 196.33735 282.36441 C 197.83548 281.87712 198.89268 281.17126 199.54276 280.68363 C 200.20349 280.18804 200.50556 279.89145 200.51174 279.88611 C 200.53164 279.86891 200.55174 279.85146 200.57144 279.83406 C 203.56122 277.20366 205.79885 274.15206 207.53334 271.28935 C 207.53634 271.28435 207.53953 271.28007 207.54253 271.27557 C 209.7678 267.58758 211.43395 263.7756 212.83744 260.27704 C 214.396 256.39095 215.67845 252.69773 217.03326 249.33974 C 217.51125 248.1518 218.02794 246.97991 218.58239 245.81746 C 218.59039 245.80046 218.59735 245.78251 218.60535 245.76541 C 220.25704 242.24712 221.8452 238.87685 223.53134 235.59044 C 224.41225 233.87086 225.36189 232.16016 226.37091 230.44095 C 227.69315 228.18737 229.06124 225.85063 230.39222 223.47139 C 232.12625 220.37773 233.81965 217.26493 235.47282 214.14445 C 235.47682 214.13645 235.4823 214.12683 235.4866 214.11843 C 240.46414 204.65246 244.64119 195.31403 249.34153 186.78055 C 252.21654 181.5627 255.22787 176.71885 258.6455 172.3577 C 259.85028 170.845 261.17183 169.37823 262.57497 167.99197 C 264.0443 166.55087 265.39656 165.40111 266.73099 164.51714 C 267.05244 164.30748 267.26663 164.19781 267.50096 164.06862 C 267.85346 164.42028 268.2527 164.85598 268.71792 165.4111 C 270.21919 167.22487 271.60869 169.32902 273.04079 171.69947 C 275.43347 175.689 277.59068 179.90431 279.71032 184.2257 C 281.38908 187.64648 283.40997 191.98579 285.08789 195.40486 C 285.09089 195.41186 285.09358 195.41919 285.09708 195.42629 C 285.90455 197.0683 286.81494 198.88984 287.89072 200.71508 C 293.0656 209.64281 298.96352 218.21818 304.1367 227.14675 C 304.1387 227.15075 304.14082 227.15387 304.14282 227.15747 C 309.94775 237.14176 315.19908 247.61747 321.36543 257.6028 C 321.36943 257.6098 321.37307 257.6159 321.37767 257.6227 C 322.06699 258.73248 322.76623 259.8609 323.5238 261.00875 C 323.5444 261.03985 323.56567 261.07122 323.58657 261.10212 C 325.56901 264.02809 327.86137 266.42755 329.71421 268.23547 C 329.72021 268.24147 329.72648 268.24794 329.73258 268.25384 C 333.19974 271.61831 337.43549 275.02633 340.05757 277.22717 C 342.26398 279.0824 343.74783 280.37536 345.11368 281.7368 A 9.230775 9.230775 0 0 0 358.14659 268.66256 C 356.19553 266.71782 354.20783 265.00443 351.93169 263.09058 C 348.80994 260.47033 345.43329 257.76222 342.59863 255.01275 C 341.11513 253.56519 339.85257 252.18744 338.89878 250.78938 C 338.33978 249.94246 337.77552 249.03473 337.06646 247.89317 C 331.46239 238.81693 326.30867 228.55347 320.10867 217.8887 L 320.10714 217.88717 C 314.90451 208.91165 309.0484 200.40351 303.84585 191.42794 C 303.83305 191.40584 303.82048 191.38412 303.80758 191.36212 C 303.11437 190.18824 302.46657 188.91023 301.66911 187.28876 C 299.67711 183.21125 298.27692 180.17362 296.28389 176.09429 C 294.09808 171.63798 291.66831 166.86181 288.86581 162.19038 C 288.86081 162.18238 288.8557 162.17379 288.8505 162.16589 C 287.22328 159.47172 285.2886 156.47873 282.92339 153.62117 C 282.91289 153.60847 282.90175 153.5955 282.89125 153.5829 C 281.54118 151.96947 279.68629 149.93532 277.25498 148.19768 C 277.23758 148.18518 277.22053 148.17171 277.20293 148.15941 C 276.71205 147.81373 276.01979 147.35106 275.18845 146.90725 C 274.36805 146.46928 273.32873 146.00433 272.09172 145.67498 C 270.46654 145.23486 268.89805 145.1144 267.48106 145.17442 z M 188.23962 281.76435 C 188.23481 281.76198 188.2291 281.76061 188.22431 281.75823 L 188.25798 281.77507 C 188.2511 281.77168 188.24649 281.76774 188.23962 281.76435 z M 328.41306 309.9013 C 324.14946 309.9013 320.16782 310.71726 316.46852 312.34745 C 312.76922 313.97765 309.55676 316.18704 306.82931 318.97719 C 304.10186 321.76733 301.95383 325.02811 300.38633 328.75876 C 298.85018 332.45806 298.08253 336.39292 298.08253 340.56247 C 298.08253 344.79471 298.86628 348.76025 300.43378 352.45955 C 302.03263 356.15885 304.19524 359.38742 306.92269 362.14622 C 309.68148 364.90502 312.91158 367.08372 316.61088 368.68257 C 320.34153 370.28142 324.32317 371.08128 328.55542 371.08128 C 332.34877 371.08128 335.90633 370.4394 339.22943 369.15405 C 342.55252 367.8687 345.4682 366.09644 347.9762 363.83924 C 350.4842 361.55069 352.49036 358.85434 353.99516 355.75069 C 355.53131 352.64704 356.39405 349.26203 356.58215 345.59408 C 356.58215 344.21468 356.11129 343.10194 355.17079 342.25549 C 354.23029 341.40904 353.10144 340.97038 351.78474 340.93903 L 336.36078 340.84413 C 335.04408 340.84413 333.94744 341.31499 333.06964 342.25549 C 332.19184 343.16464 331.75165 344.26128 331.75165 345.54663 C 331.75165 346.86333 332.19184 347.97607 333.06964 348.88522 C 333.94744 349.76302 335.04408 350.20168 336.36078 350.20168 L 346.28318 350.20168 C 345.12323 353.90098 342.9913 356.75377 339.88765 358.76017 C 336.81536 360.73522 333.05304 361.72373 328.60134 361.72373 C 325.65444 361.72373 322.89674 361.17541 320.32604 360.07816 C 317.75534 358.98091 315.51375 357.47476 313.6014 355.56241 C 311.7204 353.65006 310.23036 351.41 309.13311 348.8393 C 308.03586 346.2686 307.48754 343.49326 307.48754 340.51501 C 307.48754 337.50542 308.05196 334.7155 309.18056 332.1448 C 310.30916 329.57411 311.82988 327.34862 313.74223 325.46762 C 315.65458 323.55527 317.88007 322.06522 320.41942 320.99932 C 322.95877 319.90207 325.65512 319.35375 328.50797 319.35375 C 331.26676 319.35375 333.94701 319.8714 336.54906 320.90595 C 339.18246 321.90915 341.56439 323.46055 343.69619 325.561 C 344.16644 326.03125 344.68408 326.37634 345.24838 326.59579 C 345.84403 326.78389 346.43913 326.87745 347.03478 326.87745 C 347.63043 326.8461 348.21096 326.72186 348.77526 326.50241 C 349.33956 326.25161 349.8572 325.90652 350.32745 325.46762 C 351.2366 324.55847 351.67526 323.4764 351.64391 322.2224 C 351.64391 320.9684 351.18915 319.88634 350.28 318.97719 C 347.23905 315.96759 343.88472 313.71142 340.21677 312.20662 C 336.54882 310.67048 332.61396 309.9013 328.41306 309.9013 z M 196.97874 310.32532 C 196.32039 310.32532 195.70918 310.45109 195.14488 310.70188 C 194.58058 310.95268 194.07904 311.29625 193.64015 311.73515 C 193.2326 312.17405 192.9036 312.69169 192.6528 313.28734 C 192.43335 313.88299 192.32369 314.5103 192.32369 315.16865 L 192.32369 366.56706 C 192.32369 368.07186 192.04148 369.49749 191.47718 370.84554 C 190.91288 372.19359 190.12913 373.36922 189.12593 374.37242 C 188.15408 375.37562 186.99455 376.17547 185.6465 376.77112 C 184.29845 377.39812 182.84061 377.72711 181.27312 377.75846 C 180.20722 377.82116 179.32837 378.0888 178.63867 378.55905 C 177.91762 379.0293 177.38541 379.6083 177.04056 380.298 C 176.69571 380.9877 176.53926 381.72467 176.57061 382.50842 C 176.57061 383.32352 176.75773 384.06049 177.13393 384.71884 C 177.47878 385.40854 178.0271 385.97296 178.7795 386.41186 C 179.50055 386.88211 180.39397 387.11754 181.45987 387.11754 C 184.28137 387.11754 186.91483 386.5838 189.36013 385.5179 C 191.80543 384.48335 193.93736 383.04161 195.75566 381.19196 C 197.60531 379.37366 199.04857 377.22563 200.08312 374.74898 C 201.14902 372.30368 201.68124 369.68632 201.68124 366.89617 L 201.72869 315.16865 C 201.72869 313.8206 201.27393 312.67565 200.36478 311.73515 C 199.48698 310.79465 198.35814 310.32532 196.97874 310.32532 z M 218.60994 310.32532 C 217.29324 310.32532 216.1805 310.76397 215.27135 311.64177 C 214.39355 312.51957 213.95489 313.61621 213.95489 314.93291 L 213.95489 365.90883 C 213.95489 367.22553 214.39355 368.32217 215.27135 369.19997 C 216.1805 370.07777 217.29324 370.51643 218.60994 370.51643 C 219.92664 370.51643 221.03938 370.07777 221.94853 369.19997 C 222.85768 368.32217 223.31244 367.22553 223.31244 365.90883 L 223.31244 345.82829 L 234.36302 345.82829 C 236.87102 345.82829 239.22227 345.37506 241.41677 344.46591 C 243.64262 343.55676 245.57132 342.31825 247.20152 340.75075 C 248.86307 339.1519 250.16447 337.28608 251.10497 335.15428 C 252.04547 332.99113 252.5148 330.65598 252.5148 328.14798 C 252.5148 325.67134 252.04547 323.35076 251.10497 321.18761 C 250.16447 318.99311 248.86307 317.09661 247.20152 315.49776 C 245.57132 313.89891 243.64262 312.6443 241.41677 311.73515 C 239.22227 310.79465 236.87102 310.32532 234.36302 310.32532 L 218.60994 310.32532 z M 265.77579 310.32532 C 265.11744 310.32532 264.49167 310.45109 263.89602 310.70188 C 263.33172 310.95268 262.82865 311.29625 262.38975 311.73515 C 261.9822 312.1427 261.6532 312.62967 261.4024 313.19397 C 261.18295 313.75827 261.07329 314.36947 261.07329 315.02782 L 261.07329 365.86138 C 261.07329 367.14673 261.48127 368.22879 262.29637 369.10659 C 263.11147 369.95304 264.14676 370.42238 265.40076 370.51643 L 290.88795 370.51643 C 291.5463 370.54778 292.1414 370.45422 292.67435 370.23477 C 293.23865 369.98397 293.72409 369.65497 294.13163 369.24742 C 294.57053 368.80852 294.90106 368.30698 295.12051 367.74268 C 295.37131 367.17838 295.49554 366.56718 295.49554 365.90883 C 295.49554 364.59213 295.05689 363.47939 294.17909 362.57024 C 293.30129 361.66109 292.20465 361.20633 290.88795 361.20633 L 270.43237 361.20633 L 270.43237 345.07669 L 285.19811 345.07669 C 286.5148 345.07669 287.61145 344.6526 288.48924 343.80615 C 289.39839 342.9597 289.85315 341.87917 289.85315 340.56247 C 289.85315 339.90412 289.72739 339.29291 289.47659 338.72861 C 289.25714 338.16431 288.92814 337.67735 288.48924 337.2698 C 288.0817 336.8309 287.59626 336.50191 287.03196 336.28246 C 286.46766 336.03166 285.85646 335.92199 285.19811 335.95334 L 270.43237 335.95334 L 270.43237 319.68287 L 290.88795 319.68287 C 292.20465 319.68287 293.30129 319.24421 294.17909 318.36641 C 295.05689 317.45726 295.49554 316.34452 295.49554 315.02782 C 295.49554 314.36947 295.37131 313.75827 295.12051 313.19397 C 294.90106 312.62967 294.57053 312.1427 294.13163 311.73515 C 293.72409 311.29625 293.23865 310.95268 292.67435 310.70188 C 292.1414 310.45109 291.5463 310.32532 290.88795 310.32532 L 265.77579 310.32532 z M 223.31244 319.58949 L 234.36302 319.58949 C 235.55432 319.58949 236.68316 319.80882 237.74906 320.24772 C 238.81496 320.65527 239.74059 321.23427 240.52434 321.98667 C 241.33944 322.73906 241.98132 323.63248 242.45157 324.66703 C 242.92182 325.67023 243.15725 326.7523 243.15725 327.91225 C 243.15725 329.04085 242.92182 330.12291 242.45157 331.15746 C 242.01267 332.19201 241.38536 333.10153 240.57026 333.88528 C 239.78651 334.66903 238.86242 335.29481 237.79652 335.76506 C 236.73062 336.23531 235.60177 336.47074 234.41047 336.47074 L 223.31244 336.47074 L 223.31244 319.58949 z M 174.50102 359.88987 C 173.74862 359.88987 173.02776 360.04632 172.33806 360.35982 C 171.67971 360.64197 171.09918 361.03384 170.59758 361.53544 C 170.09598 362.03704 169.688 362.63214 169.3745 363.32184 C 169.09235 364.01154 168.95201 364.73241 168.95201 365.48481 C 168.95201 366.23721 169.09235 366.95961 169.3745 367.64931 C 169.688 368.33901 170.09598 368.93411 170.59758 369.43571 C 171.09918 369.93731 171.67971 370.32918 172.33806 370.61133 C 173.02776 370.92483 173.74862 371.08128 174.50102 371.08128 C 175.28477 371.08128 176.00564 370.92483 176.66399 370.61133 C 177.35369 370.32918 177.94879 369.93731 178.45039 369.43571 C 178.95199 368.93411 179.34387 368.33901 179.62602 367.64931 C 179.93952 366.95961 180.09749 366.23721 180.09749 365.48481 C 180.09749 364.73241 179.93952 364.01154 179.62602 363.32184 C 179.34387 362.63214 178.95199 362.03704 178.45039 361.53544 C 177.94879 361.03384 177.35369 360.64197 176.66399 360.35982 C 176.00564 360.04632 175.28477 359.88987 174.50102 359.88987 z "
     transform="matrix(1.2759165,0,0,1.2759165,-50.25225,-26.640599)" /></svg>
